LondrinaSolid-Light.ufo
<glyph name="exclam" format="1">
  <advance width="217"/>
  <unicode hex="0021"/>
  <outline>
    <contour>
      <point x="68" y="1" type="curve" smooth="yes"/>
      <point x="59" y="1"/>
      <point x="71" y="81"/>
      <point x="71" y="118" type="curve"/>
      <point x="71" y="119" type="line"/>
      <point x="95" y="129"/>
      <point x="127" y="121"/>
      <point x="157" y="121" type="curve"/>
      <point x="156" y="84"/>
      <point x="154" y="40"/>
      <point x="154" y="1" type="curve"/>
      <point x="147" y="1" type="line" smooth="yes"/>
      <point x="137" y="1"/>
      <point x="132" y="1"/>
      <point x="122" y="1" type="curve" smooth="yes"/>
      <point x="121" y="1" type="line" smooth="yes"/>
      <point x="103" y="1"/>
      <point x="85" y="1"/>
    </contour>
    <contour>
      <point x="73" y="702" type="line"/>
      <point x="100" y="705"/>
      <point x="127" y="711"/>
      <point x="157" y="704" type="curve"/>
      <point x="154" y="533"/>
      <point x="150" y="346"/>
      <point x="158" y="175" type="curve"/>
      <point x="129" y="171"/>
      <point x="99" y="171"/>
      <point x="68" y="170" type="curve"/>
      <point x="67" y="170" type="line"/>
      <point x="70" y="346"/>
      <point x="59" y="520"/>
      <point x="70" y="702" type="curve"/>
    </contour>
  </outline>
</glyph>
<glyph name="quotedbl" format="1">
  <advance width="378"/>
  <unicode hex="0022"/>
  <outline>
    <contour>
      <point x="52" y="704" type="line"/>
      <point x="63" y="704"/>
      <point x="123" y="717"/>
      <point x="131" y="706" type="curve"/>
      <point x="131" y="662"/>
      <point x="133" y="479"/>
      <point x="133" y="460" type="curve" smooth="yes"/>
      <point x="129" y="460"/>
      <point x="70" y="458"/>
      <point x="49" y="459" type="curve"/>
      <point x="49" y="460" type="line"/>
      <point x="49" y="581"/>
      <point x="46" y="609"/>
      <point x="51" y="702" type="curve" smooth="yes"/>
      <point x="51" y="704" type="line"/>
    </contour>
    <contour>
      <point x="250" y="704" type="line"/>
      <point x="255" y="704"/>
      <point x="272" y="707"/>
      <point x="288" y="709" type="curve" smooth="yes"/>
      <point x="305" y="711"/>
      <point x="325" y="711"/>
      <point x="328" y="706" type="curve"/>
      <point x="328" y="662"/>
      <point x="330" y="479"/>
      <point x="330" y="460" type="curve" smooth="yes"/>
      <point x="326" y="459"/>
      <point x="269" y="458"/>
      <point x="247" y="459" type="curve"/>
      <point x="247" y="460" type="line"/>
      <point x="247" y="581"/>
      <point x="244" y="609"/>
      <point x="249" y="702" type="curve" smooth="yes"/>
      <point x="249" y="704" type="line"/>
    </contour>
  </outline>
</glyph>
<glyph name="numbersign" format="1">
  <advance width="669"/>
  <unicode hex="0023"/>
  <outline>
    <contour>
      <point x="646" y="402" type="curve"/>
      <point x="603" y="401"/>
      <point x="561" y="400"/>
      <point x="518" y="399" type="curve"/>
      <point x="505" y="359"/>
      <point x="485" y="282"/>
      <point x="471" y="242" type="curve"/>
      <point x="483" y="242"/>
      <point x="563" y="243"/>
      <point x="628" y="238" type="curve"/>
      <point x="634" y="222"/>
      <point x="631" y="206"/>
      <point x="635" y="170" type="curve" smooth="yes"/>
      <point x="635" y="168" type="line"/>
      <point x="613" y="165"/>
      <point x="597" y="165"/>
      <point x="573" y="165" type="curve" smooth="yes"/>
      <point x="537" y="165" type="line" smooth="yes"/>
      <point x="517" y="165"/>
      <point x="488" y="164"/>
      <point x="447" y="164" type="curve"/>
      <point x="446" y="164" type="line"/>
      <point x="444" y="164" type="line"/>
      <point x="441" y="159"/>
      <point x="408" y="43"/>
      <point x="388" y="2" type="curve"/>
      <point x="385" y="1" type="line" smooth="yes"/>
      <point x="383" y="1"/>
      <point x="379" y="0"/>
      <point x="370" y="0" type="curve" smooth="yes"/>
      <point x="361" y="-1"/>
      <point x="340" y="-1"/>
      <point x="306" y="1" type="curve"/>
      <point x="321" y="60"/>
      <point x="344" y="118"/>
      <point x="357" y="167" type="curve"/>
      <point x="356" y="167" type="line"/>
      <point x="356" y="167"/>
      <point x="353" y="167"/>
      <point x="344" y="167" type="curve"/>
      <point x="333" y="167"/>
      <point x="315" y="168"/>
      <point x="281" y="168" type="curve" smooth="yes"/>
      <point x="256" y="168"/>
      <point x="229" y="167"/>
      <point x="202" y="167" type="curve"/>
      <point x="183" y="117"/>
      <point x="178" y="107"/>
      <point x="156" y="43" type="curve"/>
      <point x="138" y="-23"/>
      <point x="133" y="4"/>
      <point x="58" y="0" type="curve"/>
      <point x="84" y="87"/>
      <point x="92" y="109"/>
      <point x="112" y="165" type="curve"/>
      <point x="71" y="164"/>
      <point x="43" y="162"/>
      <point x="28" y="163" type="curve"/>
      <point x="25" y="188"/>
      <point x="26" y="216"/>
      <point x="25" y="245" type="curve"/>
      <point x="26" y="244"/>
      <point x="33" y="242"/>
      <point x="47" y="242" type="curve" smooth="yes"/>
      <point x="59" y="242"/>
      <point x="89" y="241"/>
      <point x="142" y="242" type="curve"/>
      <point x="147" y="247"/>
      <point x="160" y="309"/>
      <point x="189" y="399" type="curve"/>
      <point x="173" y="399" type="line" smooth="yes"/>
      <point x="157" y="399"/>
      <point x="110" y="399"/>
      <point x="38" y="398" type="curve"/>
      <point x="37" y="425"/>
      <point x="37" y="453"/>
      <point x="36" y="480" type="curve"/>
      <point x="43" y="478"/>
      <point x="38" y="473"/>
      <point x="162" y="475" type="curve"/>
      <point x="184" y="475" type="line"/>
      <point x="225" y="475"/>
      <point x="220" y="477"/>
      <point x="236" y="540" type="curve" smooth="yes"/>
      <point x="247" y="580"/>
      <point x="258" y="616"/>
      <point x="263" y="637" type="curve"/>
      <point x="263" y="638" type="line"/>
      <point x="272" y="636"/>
      <point x="277" y="634"/>
      <point x="347" y="633" type="curve"/>
      <point x="347" y="630"/>
      <point x="338" y="591"/>
      <point x="303" y="476" type="curve"/>
      <point x="339" y="475"/>
      <point x="394" y="477"/>
      <point x="456" y="476" type="curve"/>
      <point x="465" y="493"/>
      <point x="485" y="561"/>
      <point x="505" y="639" type="curve"/>
      <point x="507" y="639" type="line" smooth="yes"/>
      <point x="533" y="635"/>
      <point x="560" y="640"/>
      <point x="586" y="636" type="curve"/>
      <point x="588" y="624"/>
      <point x="582" y="599"/>
      <point x="545" y="473" type="curve"/>
      <point x="555" y="473"/>
      <point x="565" y="472"/>
      <point x="576" y="472" type="curve" smooth="yes"/>
      <point x="639" y="472" type="line"/>
      <point x="639" y="468" type="line" smooth="yes"/>
      <point x="641" y="446"/>
      <point x="644" y="424"/>
    </contour>
    <contour>
      <point x="386" y="243" type="curve"/>
      <point x="386" y="262"/>
      <point x="400" y="293"/>
      <point x="408" y="319" type="curve" smooth="yes"/>
      <point x="417" y="348"/>
      <point x="428" y="375"/>
      <point x="433" y="401" type="curve"/>
      <point x="423" y="401" type="line"/>
      <point x="423" y="401" type="line"/>
      <point x="378" y="401"/>
      <point x="328" y="402"/>
      <point x="278" y="402" type="curve"/>
      <point x="276" y="401" type="line"/>
      <point x="264" y="368"/>
      <point x="249" y="315"/>
      <point x="228" y="242" type="curve"/>
      <point x="281" y="242"/>
      <point x="333" y="243"/>
    </contour>
  </outline>
</glyph>
<glyph name="dollar" format="1">
  <advance width="445"/>
  <unicode hex="0024"/>
  <outline>
    <contour>
      <point x="308" y="335" type="curve" smooth="yes"/>
      <point x="381" y="307"/>
      <point x="422" y="241"/>
      <point x="422" y="160" type="curve" smooth="yes"/>
      <point x="422" y="102"/>
      <point x="394" y="45"/>
      <point x="299" y="12" type="curve" smooth="yes"/>
      <point x="286" y="8"/>
      <point x="279" y="6"/>
      <point x="277" y="6" type="curve"/>
      <point x="277" y="-3"/>
      <point x="276" y="-56"/>
      <point x="276" y="-65" type="curve" smooth="yes"/>
      <point x="276" y="-69" type="line" smooth="yes"/>
      <point x="278" y="-100"/>
      <point x="275" y="-96"/>
      <point x="183" y="-95" type="curve" smooth="yes"/>
      <point x="161" y="-95"/>
      <point x="212" y="-4"/>
      <point x="147" y="9" type="curve" smooth="yes"/>
      <point x="12" y="42"/>
      <point x="20" y="109"/>
      <point x="20" y="191" type="curve" smooth="yes"/>
      <point x="20" y="219"/>
      <point x="20" y="233"/>
      <point x="36" y="238" type="curve" smooth="yes"/>
      <point x="37" y="238"/>
      <point x="116" y="243"/>
      <point x="116" y="234" type="curve" smooth="yes"/>
      <point x="116" y="170"/>
      <point x="83" y="87"/>
      <point x="233" y="88" type="curve" smooth="yes"/>
      <point x="282" y="88"/>
      <point x="316" y="118"/>
      <point x="318" y="167" type="curve" smooth="yes"/>
      <point x="323" y="272"/>
      <point x="199" y="293"/>
      <point x="146" y="324" type="curve" smooth="yes"/>
      <point x="76" y="365"/>
      <point x="28" y="428"/>
      <point x="28" y="507" type="curve" smooth="yes"/>
      <point x="28" y="568"/>
      <point x="65" y="626"/>
      <point x="177" y="653" type="curve"/>
      <point x="184" y="656"/>
      <point x="180" y="660"/>
      <point x="180" y="667" type="curve" smooth="yes"/>
      <point x="180" y="671"/>
      <point x="175" y="733"/>
      <point x="175" y="735" type="curve" smooth="yes"/>
      <point x="173" y="747"/>
      <point x="257" y="749"/>
      <point x="274" y="738" type="curve"/>
      <point x="275" y="665" type="line" smooth="yes"/>
      <point x="275" y="649"/>
      <point x="333" y="637"/>
      <point x="340" y="634" type="curve" smooth="yes"/>
      <point x="417" y="596"/>
      <point x="426" y="530"/>
      <point x="426" y="468" type="curve" smooth="yes"/>
      <point x="426" y="441"/>
      <point x="373" y="449"/>
      <point x="352" y="449" type="curve" smooth="yes"/>
      <point x="325" y="450"/>
      <point x="332" y="466"/>
      <point x="321" y="520" type="curve" smooth="yes"/>
      <point x="315" y="550"/>
      <point x="272" y="575"/>
      <point x="217" y="570" type="curve" smooth="yes"/>
      <point x="143" y="555"/>
      <point x="127" y="513"/>
      <point x="133" y="480" type="curve" smooth="yes"/>
      <point x="150" y="384"/>
      <point x="233" y="364"/>
    </contour>
  </outline>
</glyph>
<glyph name="percent" format="1">
  <advance width="604"/>
  <unicode hex="0025"/>
  <outline>
    <contour>
      <point x="405" y="169" type="curve" smooth="yes"/>
      <point x="402" y="196"/>
      <point x="402" y="228"/>
      <point x="405" y="255" type="curve" smooth="yes"/>
      <point x="412" y="294"/>
      <point x="429" y="322"/>
      <point x="465" y="326" type="curve"/>
      <point x="532" y="340"/>
      <point x="545" y="240"/>
      <point x="545" y="204" type="curve" smooth="yes"/>
      <point x="547" y="147"/>
      <point x="531" y="67"/>
      <point x="473" y="65" type="curve" smooth="yes"/>
      <point x="405" y="63"/>
      <point x="406" y="124"/>
    </contour>
    <contour>
      <point x="366" y="216" type="curve"/>
      <point x="366" y="199"/>
      <point x="366" y="183"/>
      <point x="367" y="165" type="curve"/>
      <point x="367" y="165" type="line"/>
      <point x="376" y="95"/>
      <point x="379" y="24"/>
      <point x="469" y="21" type="curve" smooth="yes"/>
      <point x="566" y="21"/>
      <point x="578" y="130"/>
      <point x="581" y="168" type="curve" smooth="yes"/>
      <point x="582" y="179"/>
      <point x="583" y="190"/>
      <point x="583" y="201" type="curve" smooth="yes"/>
      <point x="584" y="250"/>
      <point x="572" y="361"/>
      <point x="473" y="366" type="curve" smooth="yes"/>
      <point x="368" y="366"/>
      <point x="370" y="259"/>
    </contour>
    <contour>
      <point x="61" y="486" type="curve" smooth="yes"/>
      <point x="58" y="514"/>
      <point x="58" y="545"/>
      <point x="61" y="573" type="curve" smooth="yes"/>
      <point x="68" y="612"/>
      <point x="85" y="639"/>
      <point x="121" y="643" type="curve"/>
      <point x="188" y="657"/>
      <point x="201" y="558"/>
      <point x="201" y="521" type="curve" smooth="yes"/>
      <point x="202" y="467"/>
      <point x="188" y="385"/>
      <point x="129" y="383" type="curve" smooth="yes"/>
      <point x="61" y="380"/>
      <point x="62" y="441"/>
    </contour>
    <contour>
      <point x="24" y="536" type="curve"/>
      <point x="24" y="520"/>
      <point x="24" y="504"/>
      <point x="25" y="486" type="curve"/>
      <point x="25" y="485" type="line"/>
      <point x="34" y="416"/>
      <point x="37" y="345"/>
      <point x="127" y="341" type="curve" smooth="yes"/>
      <point x="224" y="341"/>
      <point x="235" y="452"/>
      <point x="239" y="488" type="curve" smooth="yes"/>
      <point x="240" y="499"/>
      <point x="241" y="509"/>
      <point x="241" y="522" type="curve" smooth="yes"/>
      <point x="242" y="570"/>
      <point x="230" y="683"/>
      <point x="131" y="687" type="curve" smooth="yes"/>
      <point x="63" y="687"/>
      <point x="37" y="633"/>
      <point x="32" y="593" type="curve" smooth="yes"/>
      <point x="27" y="573"/>
      <point x="25" y="558"/>
    </contour>
    <contour>
      <point x="217" y="7" type="curve"/>
      <point x="273" y="151" type="line" smooth="yes"/>
      <point x="345" y="330"/>
      <point x="445" y="651"/>
      <point x="453" y="683" type="curve"/>
      <point x="456" y="691"/>
      <point x="456" y="694"/>
      <point x="459" y="701" type="curve"/>
      <point x="439" y="711"/>
      <point x="401" y="704"/>
      <point x="371" y="709" type="curve"/>
      <point x="355" y="648"/>
      <point x="341" y="607"/>
      <point x="321" y="550" type="curve"/>
      <point x="261" y="363"/>
      <point x="228" y="286"/>
      <point x="205" y="222" type="curve" smooth="yes"/>
      <point x="187" y="173"/>
      <point x="179" y="147"/>
      <point x="154" y="80" type="curve" smooth="yes"/>
      <point x="146" y="59"/>
      <point x="125" y="4"/>
      <point x="128" y="-1" type="curve" smooth="yes"/>
      <point x="200" y="1"/>
      <point x="214" y="-3"/>
    </contour>
  </outline>
</glyph>
<glyph name="ampersand" format="1">
  <advance width="565"/>
  <unicode hex="0026"/>
  <outline>
    <contour>
      <point x="561" y="2" type="curve"/>
      <point x="524" y="-2"/>
      <point x="516" y="-1"/>
      <point x="472" y="-1" type="curve" smooth="yes"/>
      <point x="442" y="-1"/>
      <point x="432" y="35"/>
      <point x="405" y="64" type="curve"/>
      <point x="347" y="4"/>
      <point x="311" y="2"/>
      <point x="219" y="-1" type="curve"/>
      <point x="87" y="-1"/>
      <point x="18" y="113"/>
      <point x="18" y="220" type="curve" smooth="yes"/>
      <point x="18" y="291"/>
      <point x="67" y="362"/>
      <point x="118" y="410" type="curve"/>
      <point x="86" y="453"/>
      <point x="41" y="519"/>
      <point x="41" y="580" type="curve" smooth="yes"/>
      <point x="41" y="665"/>
      <point x="138" y="731"/>
      <point x="234" y="731" type="curve" smooth="yes"/>
      <point x="336" y="731"/>
      <point x="406" y="659"/>
      <point x="406" y="579" type="curve" smooth="yes"/>
      <point x="406" y="521"/>
      <point x="377" y="468"/>
      <point x="345" y="425" type="curve"/>
      <point x="341" y="420"/>
      <point x="337" y="413"/>
      <point x="335" y="407" type="curve" smooth="yes"/>
      <point x="335" y="403"/>
      <point x="380" y="314"/>
      <point x="415" y="300" type="curve"/>
      <point x="440" y="348"/>
      <point x="423" y="396"/>
      <point x="475" y="390" type="curve" smooth="yes"/>
      <point x="497" y="388"/>
      <point x="530" y="390"/>
      <point x="541" y="379" type="curve" smooth="yes"/>
      <point x="545" y="375"/>
      <point x="546" y="365"/>
      <point x="542" y="349" type="curve" smooth="yes"/>
      <point x="541" y="318"/>
      <point x="532" y="295"/>
      <point x="522" y="269" type="curve"/>
      <point x="522" y="269" type="line"/>
      <point x="514" y="248"/>
      <point x="477" y="171"/>
      <point x="477" y="165" type="curve" smooth="yes"/>
      <point x="477" y="157"/>
      <point x="491" y="144"/>
      <point x="503" y="128" type="curve"/>
      <point x="503" y="129" type="line"/>
      <point x="528" y="98"/>
      <point x="569" y="43"/>
    </contour>
    <contour>
      <point x="249" y="656" type="curve" smooth="yes"/>
      <point x="188" y="664"/>
      <point x="138" y="630"/>
      <point x="134" y="579" type="curve" smooth="yes"/>
      <point x="133" y="542"/>
      <point x="159" y="466"/>
      <point x="219" y="461" type="curve"/>
      <point x="219" y="460" type="line"/>
      <point x="297" y="463"/>
      <point x="324" y="546"/>
      <point x="307" y="612" type="curve" smooth="yes"/>
      <point x="295" y="637"/>
      <point x="277" y="653"/>
    </contour>
    <contour>
      <point x="289" y="98" type="curve"/>
      <point x="307" y="104"/>
      <point x="326" y="114"/>
      <point x="333" y="121" type="curve" smooth="yes"/>
      <point x="392" y="196"/>
      <point x="334" y="354"/>
      <point x="205" y="333" type="curve"/>
      <point x="139" y="324"/>
      <point x="100" y="228"/>
      <point x="123" y="172" type="curve"/>
      <point x="146" y="124"/>
      <point x="165" y="90"/>
      <point x="236" y="90" type="curve" smooth="yes"/>
      <point x="255" y="90"/>
      <point x="268" y="92"/>
    </contour>
  </outline>
</glyph>
<glyph name="quotesingle" format="1">
  <advance width="185"/>
  <unicode hex="0027"/>
  <outline>
    <contour>
      <point x="55" y="704" type="line"/>
      <point x="60" y="704"/>
      <point x="76" y="707"/>
      <point x="93" y="709" type="curve" smooth="yes"/>
      <point x="109" y="711"/>
      <point x="130" y="711"/>
      <point x="133" y="706" type="curve"/>
      <point x="133" y="662"/>
      <point x="135" y="479"/>
      <point x="135" y="460" type="curve" smooth="yes"/>
      <point x="130" y="459"/>
      <point x="73" y="458"/>
      <point x="52" y="459" type="curve"/>
      <point x="52" y="460" type="line"/>
      <point x="52" y="581"/>
      <point x="49" y="609"/>
      <point x="54" y="702" type="curve" smooth="yes"/>
      <point x="54" y="704" type="line"/>
    </contour>
  </outline>
</glyph>
<glyph name="parenright" format="1">
  <advance width="313"/>
  <unicode hex="0029"/>
  <outline>
    <contour>
      <point x="206" y="41" type="curve" smooth="yes"/>
      <point x="267" y="86"/>
      <point x="278" y="160"/>
      <point x="282" y="203" type="curve"/>
      <point x="279" y="274"/>
      <point x="276" y="352"/>
      <point x="276" y="420" type="curve" smooth="yes"/>
      <point x="276" y="444" type="line"/>
      <point x="273" y="502"/>
      <point x="284" y="568"/>
      <point x="252" y="621" type="curve"/>
      <point x="219" y="684"/>
      <point x="162" y="710"/>
      <point x="102" y="711" type="curve" smooth="yes"/>
      <point x="79" y="710"/>
      <point x="52" y="707"/>
      <point x="29" y="705" type="curve"/>
      <point x="28" y="704" type="line"/>
      <point x="24" y="673"/>
      <point x="27" y="645"/>
      <point x="29" y="622" type="curve"/>
      <point x="78" y="607"/>
      <point x="163" y="606"/>
      <point x="173" y="517" type="curve"/>
      <point x="178" y="467"/>
      <point x="181" y="422"/>
      <point x="184" y="381" type="curve"/>
      <point x="186" y="290"/>
      <point x="189" y="222"/>
      <point x="177" y="184" type="curve"/>
      <point x="156" y="122"/>
      <point x="113" y="87"/>
      <point x="45" y="90" type="curve"/>
      <point x="39" y="91"/>
      <point x="32" y="92"/>
      <point x="25" y="93" type="curve"/>
      <point x="25" y="67"/>
      <point x="25" y="34"/>
      <point x="27" y="9" type="curve"/>
      <point x="35" y="-2"/>
      <point x="54" y="0"/>
      <point x="69" y="0" type="curve" smooth="yes"/>
      <point x="86" y="0" type="line" smooth="yes"/>
      <point x="127" y="1"/>
      <point x="169" y="13"/>
    </contour>
  </outline>
</glyph>
<glyph name="asterisk" format="1">
  <advance width="367"/>
  <unicode hex="002A"/>
  <outline>
    <contour>
      <point x="273" y="380" type="curve" smooth="yes"/>
      <point x="272" y="379"/>
      <point x="249" y="400"/>
      <point x="214" y="435" type="curve" smooth="yes"/>
      <point x="191" y="458"/>
      <point x="183" y="464"/>
      <point x="180" y="465" type="curve"/>
      <point x="175" y="462"/>
      <point x="166" y="453"/>
      <point x="141" y="429" type="curve" smooth="yes"/>
      <point x="105" y="396"/>
      <point x="94" y="384"/>
      <point x="88" y="384" type="curve"/>
      <point x="66" y="404"/>
      <point x="51" y="419"/>
      <point x="32" y="435" type="curve"/>
      <point x="43" y="452"/>
      <point x="73" y="474"/>
      <point x="118" y="529" type="curve"/>
      <point x="90" y="570"/>
      <point x="45" y="610"/>
      <point x="36" y="630" type="curve"/>
      <point x="44" y="632"/>
      <point x="76" y="671"/>
      <point x="90" y="681" type="curve" smooth="yes"/>
      <point x="91" y="682" type="line"/>
      <point x="103" y="679"/>
      <point x="146" y="625"/>
      <point x="183" y="599" type="curve"/>
      <point x="197" y="613"/>
      <point x="275" y="684"/>
      <point x="272" y="682" type="curve"/>
      <point x="276" y="676"/>
      <point x="320" y="634"/>
      <point x="326" y="628" type="curve"/>
      <point x="326" y="620"/>
      <point x="264" y="575"/>
      <point x="246" y="533" type="curve"/>
      <point x="255" y="533"/>
      <point x="335" y="436"/>
      <point x="334" y="436" type="curve"/>
      <point x="336" y="426"/>
      <point x="296" y="397"/>
    </contour>
  </outline>
</glyph>
<glyph name="plus" format="1">
  <advance width="445"/>
  <unicode hex="002B"/>
  <outline>
    <contour>
      <point x="168" y="114" type="curve"/>
      <point x="168" y="115"/>
      <point x="167" y="114"/>
      <point x="167" y="117" type="curve" smooth="yes"/>
      <point x="164" y="142"/>
      <point x="166" y="155"/>
      <point x="166" y="183" type="curve" smooth="yes"/>
      <point x="166" y="195"/>
      <point x="166" y="206"/>
      <point x="166" y="217" type="curve" smooth="yes"/>
      <point x="166" y="225"/>
      <point x="166" y="260"/>
      <point x="163" y="262" type="curve"/>
      <point x="161" y="262" type="line" smooth="yes"/>
      <point x="151" y="262"/>
      <point x="23" y="270"/>
      <point x="23" y="275" type="curve"/>
      <point x="25" y="292"/>
      <point x="20" y="355"/>
      <point x="20" y="361" type="curve"/>
      <point x="24" y="360"/>
      <point x="55" y="363"/>
      <point x="105" y="365" type="curve" smooth="yes"/>
      <point x="149" y="368"/>
      <point x="170" y="370"/>
      <point x="173" y="371" type="curve"/>
      <point x="173" y="470"/>
      <point x="174" y="482"/>
      <point x="180" y="524" type="curve"/>
      <point x="189" y="515"/>
      <point x="257" y="522"/>
      <point x="277" y="520" type="curve"/>
      <point x="277" y="493" type="line" smooth="yes"/>
      <point x="277" y="443"/>
      <point x="277" y="377"/>
      <point x="279" y="372" type="curve"/>
      <point x="308" y="369"/>
      <point x="390" y="374"/>
      <point x="423" y="368" type="curve"/>
      <point x="421" y="332"/>
      <point x="423" y="303"/>
      <point x="419" y="270" type="curve"/>
      <point x="414" y="267"/>
      <point x="386" y="267"/>
      <point x="343" y="267" type="curve" smooth="yes"/>
      <point x="250" y="267"/>
      <point x="279" y="261"/>
      <point x="275" y="192" type="curve" smooth="yes"/>
      <point x="274" y="155"/>
      <point x="270" y="128"/>
      <point x="270" y="118" type="curve" smooth="yes"/>
      <point x="270" y="116" type="line" smooth="yes"/>
      <point x="270" y="112"/>
      <point x="249" y="112"/>
      <point x="224" y="113" type="curve" smooth="yes"/>
      <point x="194" y="113"/>
      <point x="171" y="115"/>
    </contour>
  </outline>
</glyph>
<glyph name="comma" format="1">
  <advance width="188"/>
  <unicode hex="002C"/>
  <outline>
    <contour>
      <point x="128" y="-61" type="line"/>
      <point x="125" y="-74"/>
      <point x="123" y="-87"/>
      <point x="120" y="-100" type="curve"/>
      <point x="115" y="-98"/>
      <point x="97" y="-99"/>
      <point x="67" y="-98" type="curve"/>
      <point x="63" y="-94"/>
      <point x="82" y="-37"/>
      <point x="87" y="-1" type="curve"/>
      <point x="54" y="3" type="line"/>
      <point x="53" y="3"/>
      <point x="52" y="3"/>
      <point x="51" y="4" type="curve"/>
      <point x="51" y="7"/>
      <point x="50" y="10"/>
      <point x="55" y="119" type="curve"/>
      <point x="55" y="120" type="line"/>
      <point x="56" y="120" type="line"/>
      <point x="83" y="126"/>
      <point x="112" y="121"/>
      <point x="146" y="119" type="curve"/>
      <point x="147" y="119" type="line"/>
      <point x="143" y="4" type="line"/>
      <point x="141" y="4" type="line"/>
      <point x="141" y="3"/>
      <point x="140" y="2"/>
      <point x="140" y="1" type="curve" smooth="yes"/>
      <point x="140" y="-4"/>
      <point x="137" y="-14"/>
      <point x="136" y="-21" type="curve" smooth="yes"/>
    </contour>
  </outline>
</glyph>
<glyph name="hyphen" format="1">
  <advance width="521"/>
  <unicode hex="002D"/>
  <outline>
    <contour>
      <point x="36" y="237" type="curve"/>
      <point x="36" y="259"/>
      <point x="39" y="331"/>
      <point x="39" y="342" type="curve"/>
      <point x="482" y="342" type="line"/>
      <point x="483" y="305"/>
      <point x="480" y="267"/>
      <point x="485" y="230" type="curve"/>
      <point x="484" y="230" type="line"/>
      <point x="399" y="231"/>
      <point x="121" y="236"/>
    </contour>
  </outline>
</glyph>
<glyph name="period" format="1">
  <advance width="189"/>
  <unicode hex="002E"/>
  <outline>
    <contour>
      <point x="57" y="1" type="line"/>
      <point x="54" y="1" type="line"/>
      <point x="49" y="31"/>
      <point x="53" y="98"/>
      <point x="53" y="117" type="curve"/>
      <point x="78" y="127"/>
      <point x="126" y="125"/>
      <point x="141" y="119" type="curve"/>
      <point x="141" y="117"/>
      <point x="135" y="21"/>
      <point x="135" y="2" type="curve"/>
      <point x="135" y="1" type="line"/>
      <point x="135" y="0" type="line"/>
      <point x="133" y="0" type="line"/>
    </contour>
  </outline>
</glyph>
<glyph name="slash" format="1">
  <advance width="412"/>
  <unicode hex="002F"/>
  <outline>
    <contour>
      <point x="129" y="7" type="curve"/>
      <point x="185" y="151" type="line" smooth="yes"/>
      <point x="257" y="330"/>
      <point x="357" y="651"/>
      <point x="365" y="683" type="curve"/>
      <point x="368" y="691"/>
      <point x="368" y="694"/>
      <point x="371" y="701" type="curve"/>
      <point x="351" y="711"/>
      <point x="313" y="704"/>
      <point x="283" y="709" type="curve"/>
      <point x="267" y="648"/>
      <point x="253" y="607"/>
      <point x="233" y="550" type="curve"/>
      <point x="141" y="269"/>
      <point x="124" y="249"/>
      <point x="98" y="168" type="curve" smooth="yes"/>
      <point x="82" y="133"/>
      <point x="73" y="98"/>
      <point x="55" y="51" type="curve" smooth="yes"/>
      <point x="47" y="27"/>
      <point x="38" y="3"/>
      <point x="40" y="-1" type="curve" smooth="yes"/>
      <point x="112" y="1"/>
      <point x="126" y="-3"/>
    </contour>
  </outline>
</glyph>
<glyph name="zero" format="1">
  <advance width="513"/>
  <unicode hex="0030"/>
  <outline>
    <contour>
      <point x="82" y="618" type="curve"/>
      <point x="113" y="671"/>
      <point x="179" y="707"/>
      <point x="247" y="710" type="curve" smooth="yes"/>
      <point x="438" y="717"/>
      <point x="498" y="508"/>
      <point x="488" y="373" type="curve"/>
      <point x="496" y="216"/>
      <point x="432" y="-10"/>
      <point x="244" y="2" type="curve" smooth="yes"/>
      <point x="217" y="3"/>
      <point x="194" y="7"/>
      <point x="174" y="15" type="curve" smooth="yes"/>
      <point x="39" y="65"/>
      <point x="35" y="196"/>
      <point x="32" y="315" type="curve"/>
      <point x="27" y="417"/>
      <point x="23" y="527"/>
    </contour>
    <contour>
      <point x="244" y="104" type="curve"/>
      <point x="259" y="103"/>
      <point x="274" y="104"/>
      <point x="287" y="108" type="curve"/>
      <point x="395" y="145"/>
      <point x="380" y="290"/>
      <point x="381" y="311" type="curve" smooth="yes"/>
      <point x="382" y="342"/>
      <point x="384" y="375"/>
      <point x="381" y="427" type="curve" smooth="yes"/>
      <point x="379" y="500"/>
      <point x="351" y="597"/>
      <point x="265" y="609" type="curve"/>
      <point x="138" y="609"/>
      <point x="133" y="492"/>
      <point x="133" y="471" type="curve" smooth="yes"/>
      <point x="131" y="459"/>
      <point x="130" y="447"/>
      <point x="129" y="432" type="curve" smooth="yes"/>
      <point x="128" y="396"/>
      <point x="127" y="364"/>
      <point x="128" y="334" type="curve" smooth="yes"/>
      <point x="129" y="255"/>
      <point x="134" y="108"/>
    </contour>
  </outline>
</glyph>
<glyph name="one" format="1">
  <advance width="336"/>
  <unicode hex="0031"/>
  <outline>
    <contour>
      <point x="283" y="11" type="curve" smooth="yes"/>
      <point x="280" y="3"/>
      <point x="258" y="2"/>
      <point x="241" y="2" type="curve" smooth="yes"/>
      <point x="219" y="2"/>
      <point x="194" y="3"/>
      <point x="174" y="6" type="curve"/>
      <point x="174" y="104" type="line" smooth="yes"/>
      <point x="175" y="237"/>
      <point x="184" y="334"/>
      <point x="185" y="526" type="curve"/>
      <point x="185" y="556" type="line"/>
      <point x="185" y="563"/>
      <point x="185" y="567"/>
      <point x="184" y="574" type="curve"/>
      <point x="172" y="577"/>
      <point x="125" y="452"/>
      <point x="97" y="452" type="curve" smooth="yes"/>
      <point x="90" y="452"/>
      <point x="12" y="470"/>
      <point x="12" y="480" type="curve"/>
      <point x="54" y="572"/>
      <point x="143" y="707"/>
      <point x="147" y="711" type="curve"/>
      <point x="166" y="711"/>
      <point x="186" y="712"/>
      <point x="209" y="712" type="curve" smooth="yes"/>
      <point x="234" y="712"/>
      <point x="260" y="711"/>
      <point x="289" y="710" type="curve"/>
      <point x="293" y="653"/>
      <point x="292" y="598"/>
      <point x="292" y="542" type="curve" smooth="yes"/>
      <point x="295" y="389"/>
      <point x="283" y="241"/>
      <point x="283" y="88" type="curve" smooth="yes"/>
      <point x="283" y="65"/>
      <point x="283" y="43"/>
    </contour>
  </outline>
</glyph>
<glyph name="two" format="1">
  <advance width="498"/>
  <unicode hex="0032"/>
  <outline>
    <contour>
      <point x="76" y="-1" type="curve"/>
      <point x="31" y="-1" type="line"/>
      <point x="30" y="0"/>
      <point x="30" y="1"/>
      <point x="30" y="2" type="curve" smooth="yes"/>
      <point x="33" y="75"/>
      <point x="26" y="138"/>
      <point x="80" y="206" type="curve"/>
      <point x="142" y="274"/>
      <point x="232" y="321"/>
      <point x="306" y="369" type="curve"/>
      <point x="346" y="390"/>
      <point x="367" y="418"/>
      <point x="369" y="449" type="curve" smooth="yes"/>
      <point x="378" y="622"/>
      <point x="289" y="607"/>
      <point x="223" y="602" type="curve"/>
      <point x="158" y="594"/>
      <point x="137" y="517"/>
      <point x="139" y="460" type="curve"/>
      <point x="140" y="442"/>
      <point x="141" y="430"/>
      <point x="140" y="424" type="curve"/>
      <point x="139" y="422" type="line"/>
      <point x="102" y="416"/>
      <point x="72" y="414"/>
      <point x="38" y="418" type="curve"/>
      <point x="37" y="420" type="line"/>
      <point x="21" y="512"/>
      <point x="38" y="596"/>
      <point x="87" y="651" type="curve"/>
      <point x="140" y="720"/>
      <point x="301" y="722"/>
      <point x="373" y="693" type="curve"/>
      <point x="460" y="648"/>
      <point x="477" y="544"/>
      <point x="473" y="436" type="curve"/>
      <point x="461" y="295"/>
      <point x="301" y="284"/>
      <point x="213" y="197" type="curve"/>
      <point x="193" y="176"/>
      <point x="133" y="114"/>
      <point x="157" y="101" type="curve"/>
      <point x="194" y="100"/>
      <point x="236" y="99"/>
      <point x="285" y="99" type="curve" smooth="yes"/>
      <point x="347" y="99"/>
      <point x="401" y="102"/>
      <point x="452" y="104" type="curve"/>
      <point x="465" y="66"/>
      <point x="452" y="34"/>
      <point x="460" y="5" type="curve" smooth="yes"/>
      <point x="460" y="3"/>
      <point x="123" y="0"/>
    </contour>
  </outline>
</glyph>
<glyph name="three" format="1">
  <advance width="492"/>
  <unicode hex="0033"/>
  <outline>
    <contour>
      <point x="70" y="44" type="curve" smooth="yes"/>
      <point x="29" y="85"/>
      <point x="33" y="144"/>
      <point x="28" y="218" type="curve"/>
      <point x="28" y="219"/>
      <point x="28" y="219"/>
      <point x="29" y="219" type="curve"/>
      <point x="30" y="219" type="line"/>
      <point x="60" y="216"/>
      <point x="88" y="224"/>
      <point x="118" y="224" type="curve"/>
      <point x="120" y="223" type="line" smooth="yes"/>
      <point x="126" y="209"/>
      <point x="124" y="103"/>
      <point x="237" y="105" type="curve" smooth="yes"/>
      <point x="296" y="105"/>
      <point x="341" y="126"/>
      <point x="347" y="177" type="curve" smooth="yes"/>
      <point x="368" y="286"/>
      <point x="336" y="320"/>
      <point x="244" y="319" type="curve" smooth="yes"/>
      <point x="212" y="319"/>
      <point x="186" y="317"/>
      <point x="170" y="316" type="curve"/>
      <point x="164" y="329"/>
      <point x="163" y="348"/>
      <point x="164" y="368" type="curve" smooth="yes"/>
      <point x="165" y="388"/>
      <point x="166" y="403"/>
      <point x="165" y="410" type="curve"/>
      <point x="165" y="411" type="line"/>
      <point x="179" y="416"/>
      <point x="208" y="416"/>
      <point x="245" y="415" type="curve" smooth="yes"/>
      <point x="276" y="415"/>
      <point x="299" y="415"/>
      <point x="315" y="416" type="curve" smooth="yes"/>
      <point x="347" y="419"/>
      <point x="358" y="450"/>
      <point x="353" y="525" type="curve" smooth="yes"/>
      <point x="350" y="577"/>
      <point x="321" y="601"/>
      <point x="278" y="603" type="curve" smooth="yes"/>
      <point x="246" y="607"/>
      <point x="218" y="604"/>
      <point x="196" y="597" type="curve" smooth="yes"/>
      <point x="152" y="584"/>
      <point x="119" y="563"/>
      <point x="121" y="489" type="curve"/>
      <point x="90" y="487"/>
      <point x="31" y="487"/>
      <point x="28" y="487" type="curve"/>
      <point x="28" y="489" type="line" smooth="yes"/>
      <point x="28" y="516"/>
      <point x="21" y="553"/>
      <point x="32" y="582" type="curve"/>
      <point x="80" y="743"/>
      <point x="371" y="743"/>
      <point x="440" y="623" type="curve" smooth="yes"/>
      <point x="452" y="601"/>
      <point x="455" y="576"/>
      <point x="454" y="551" type="curve"/>
      <point x="457" y="438"/>
      <point x="456" y="328"/>
      <point x="452" y="220" type="curve"/>
      <point x="449" y="180"/>
      <point x="451" y="140"/>
      <point x="435" y="104" type="curve" smooth="yes"/>
      <point x="391" y="4"/>
      <point x="280" y="-12"/>
      <point x="172" y="4" type="curve" smooth="yes"/>
      <point x="118" y="12"/>
      <point x="76" y="37"/>
    </contour>
  </outline>
</glyph>
<glyph name="four" format="1">
  <advance width="469"/>
  <unicode hex="0034"/>
  <outline>
    <contour>
      <point x="391" y="325" type="curve" smooth="yes"/>
      <point x="416" y="326"/>
      <point x="440" y="323"/>
      <point x="452" y="323" type="curve"/>
      <point x="450" y="289"/>
      <point x="448" y="255"/>
      <point x="446" y="221" type="curve"/>
      <point x="430" y="216"/>
      <point x="409" y="219"/>
      <point x="385" y="218" type="curve"/>
      <point x="385" y="219"/>
      <point x="384" y="212"/>
      <point x="383" y="200" type="curve" smooth="yes"/>
      <point x="380" y="145"/>
      <point x="374" y="5"/>
      <point x="373" y="4" type="curve"/>
      <point x="367" y="-3"/>
      <point x="334" y="-3"/>
      <point x="267" y="-3" type="curve"/>
      <point x="264" y="9"/>
      <point x="272" y="90"/>
      <point x="276" y="176" type="curve" smooth="yes"/>
      <point x="277" y="207"/>
      <point x="278" y="223"/>
      <point x="278" y="225" type="curve"/>
      <point x="271" y="227"/>
      <point x="271" y="228"/>
      <point x="209" y="227" type="curve" smooth="yes"/>
      <point x="174" y="227"/>
      <point x="136" y="227"/>
      <point x="107" y="226" type="curve" smooth="yes"/>
      <point x="62" y="226"/>
      <point x="22" y="226"/>
      <point x="20" y="229" type="curve" smooth="yes"/>
      <point x="17" y="244"/>
      <point x="12" y="280"/>
      <point x="16" y="327" type="curve"/>
      <point x="100" y="441"/>
      <point x="170" y="556"/>
      <point x="271" y="702" type="curve"/>
      <point x="271" y="703"/>
      <point x="375" y="705"/>
      <point x="384" y="704" type="curve"/>
      <point x="385" y="704"/>
      <point x="387" y="704"/>
      <point x="390" y="704" type="curve"/>
      <point x="392" y="704" type="line"/>
      <point x="392" y="699"/>
      <point x="385" y="527"/>
      <point x="384" y="410" type="curve" smooth="yes"/>
      <point x="384" y="349" type="line" smooth="yes"/>
      <point x="384" y="336"/>
      <point x="384" y="328"/>
      <point x="385" y="324" type="curve"/>
      <point x="387" y="324"/>
      <point x="389" y="325"/>
    </contour>
    <contour>
      <point x="302" y="591" type="curve"/>
      <point x="298" y="602"/>
      <point x="273" y="553"/>
      <point x="159" y="396" type="curve" smooth="yes"/>
      <point x="129" y="353"/>
      <point x="111" y="326"/>
      <point x="110" y="324" type="curve"/>
      <point x="107" y="323"/>
      <point x="155" y="323"/>
      <point x="175" y="322" type="curve" smooth="yes"/>
      <point x="191" y="322"/>
      <point x="215" y="322"/>
      <point x="243" y="322" type="curve" smooth="yes"/>
      <point x="271" y="323"/>
      <point x="289" y="323"/>
      <point x="295" y="324" type="curve"/>
      <point x="297" y="413"/>
      <point x="299" y="502"/>
    </contour>
  </outline>
</glyph>
<glyph name="five" format="1">
  <advance width="503"/>
  <unicode hex="0035"/>
  <outline>
    <contour>
      <point x="142" y="218" type="curve"/>
      <point x="142" y="217" type="line"/>
      <point x="142" y="146"/>
      <point x="148" y="93"/>
      <point x="256" y="99" type="curve" smooth="yes"/>
      <point x="349" y="106"/>
      <point x="376" y="183"/>
      <point x="372" y="250" type="curve" smooth="yes"/>
      <point x="366" y="355"/>
      <point x="314" y="378"/>
      <point x="205" y="373" type="curve" smooth="yes"/>
      <point x="156" y="372"/>
      <point x="114" y="371"/>
      <point x="85" y="369" type="curve" smooth="yes"/>
      <point x="73" y="369"/>
      <point x="40" y="369"/>
      <point x="40" y="371" type="curve" smooth="yes"/>
      <point x="32" y="453"/>
      <point x="36" y="578"/>
      <point x="36" y="696" type="curve"/>
      <point x="37" y="696" type="line"/>
      <point x="50" y="696"/>
      <point x="437" y="706"/>
      <point x="463" y="702" type="curve"/>
      <point x="466" y="699"/>
      <point x="462" y="605"/>
      <point x="462" y="605" type="curve"/>
      <point x="425" y="599"/>
      <point x="186" y="597"/>
      <point x="140" y="597" type="curve"/>
      <point x="139" y="595" type="line"/>
      <point x="139" y="594" type="line"/>
      <point x="139" y="592"/>
      <point x="141" y="576"/>
      <point x="142" y="540" type="curve" smooth="yes"/>
      <point x="144" y="503"/>
      <point x="143" y="479"/>
      <point x="147" y="473" type="curve" smooth="yes"/>
      <point x="149" y="471" type="line"/>
      <point x="150" y="471" type="line"/>
      <point x="207" y="478"/>
      <point x="255" y="479"/>
      <point x="298" y="475" type="curve" smooth="yes"/>
      <point x="484" y="456"/>
      <point x="488" y="270"/>
      <point x="470" y="134" type="curve"/>
      <point x="430" y="-52"/>
      <point x="33" y="-69"/>
      <point x="37" y="156" type="curve" smooth="yes"/>
      <point x="37" y="173"/>
      <point x="39" y="193"/>
      <point x="43" y="214" type="curve" smooth="yes"/>
      <point x="43" y="216" type="line"/>
      <point x="76" y="217"/>
      <point x="109" y="217"/>
    </contour>
  </outline>
</glyph>
<glyph name="six" format="1">
  <advance width="503"/>
  <unicode hex="0036"/>
  <outline>
    <contour>
      <point x="480" y="215" type="curve"/>
      <point x="480" y="211"/>
      <point x="480" y="207"/>
      <point x="481" y="203" type="curve"/>
      <point x="497" y="44"/>
      <point x="344" y="-17"/>
      <point x="197" y="-1" type="curve"/>
      <point x="17" y="31"/>
      <point x="26" y="291"/>
      <point x="38" y="489" type="curve"/>
      <point x="42" y="527"/>
      <point x="39" y="565"/>
      <point x="51" y="585" type="curve"/>
      <point x="86" y="665"/>
      <point x="194" y="708"/>
      <point x="289" y="708" type="curve"/>
      <point x="415" y="711"/>
      <point x="489" y="592"/>
      <point x="460" y="485" type="curve"/>
      <point x="431" y="479"/>
      <point x="399" y="481"/>
      <point x="370" y="481" type="curve"/>
      <point x="368" y="482" type="line"/>
      <point x="366" y="504"/>
      <point x="372" y="559"/>
      <point x="336" y="592" type="curve" smooth="yes"/>
      <point x="323" y="604"/>
      <point x="285" y="604"/>
      <point x="256" y="604" type="curve"/>
      <point x="130" y="594"/>
      <point x="142" y="468"/>
      <point x="143" y="408" type="curve" smooth="yes"/>
      <point x="142" y="353"/>
      <point x="146" y="318"/>
      <point x="145" y="287" type="curve"/>
      <point x="145" y="286" type="line"/>
      <point x="176" y="339"/>
      <point x="287" y="377"/>
      <point x="376" y="354" type="curve" smooth="yes"/>
      <point x="444" y="333"/>
      <point x="470" y="288"/>
    </contour>
    <contour>
      <point x="397" y="209" type="line"/>
      <point x="397" y="254"/>
      <point x="350" y="284"/>
      <point x="309" y="284" type="curve" smooth="yes"/>
      <point x="245" y="284"/>
      <point x="187" y="247"/>
      <point x="182" y="185" type="curve"/>
      <point x="176" y="138"/>
      <point x="219" y="90"/>
      <point x="276" y="93" type="curve" smooth="yes"/>
      <point x="370" y="97"/>
      <point x="397" y="152"/>
      <point x="397" y="204" type="curve" smooth="yes"/>
    </contour>
  </outline>
</glyph>
<glyph name="eight" format="1">
  <advance width="490"/>
  <unicode hex="0038"/>
  <outline>
    <contour>
      <point x="463" y="513" type="line"/>
      <point x="463" y="495" type="line" smooth="yes"/>
      <point x="463" y="436"/>
      <point x="434" y="385"/>
      <point x="386" y="346" type="curve"/>
      <point x="386" y="345" type="line"/>
      <point x="485" y="273"/>
      <point x="478" y="125"/>
      <point x="406" y="45" type="curve"/>
      <point x="338" y="-35"/>
      <point x="134" y="-31"/>
      <point x="70" y="57" type="curve"/>
      <point x="7" y="136"/>
      <point x="5" y="273"/>
      <point x="87" y="352" type="curve"/>
      <point x="-17" y="460"/>
      <point x="35" y="700"/>
      <point x="200" y="708" type="curve"/>
      <point x="328" y="712"/>
      <point x="383" y="714"/>
      <point x="436" y="630" type="curve" smooth="yes"/>
      <point x="453" y="600"/>
      <point x="462" y="543"/>
      <point x="463" y="523" type="curve" smooth="yes"/>
      <point x="463" y="519" type="line"/>
    </contour>
    <contour>
      <point x="139" y="514" type="curve"/>
      <point x="138" y="514"/>
      <point x="138" y="514"/>
      <point x="138" y="514" type="curve"/>
      <point x="138" y="513" type="line" smooth="yes"/>
      <point x="131" y="459"/>
      <point x="155" y="405"/>
      <point x="241" y="400" type="curve" smooth="yes"/>
      <point x="351" y="395"/>
      <point x="355" y="475"/>
      <point x="356" y="510" type="curve"/>
      <point x="358" y="559"/>
      <point x="324" y="595"/>
      <point x="275" y="601" type="curve" smooth="yes"/>
      <point x="220" y="607"/>
      <point x="153" y="587"/>
    </contour>
    <contour>
      <point x="356" y="175" type="curve"/>
      <point x="357" y="182"/>
      <point x="359" y="189"/>
      <point x="360" y="196" type="curve" smooth="yes"/>
      <point x="364" y="247"/>
      <point x="330" y="296"/>
      <point x="246" y="302" type="curve" smooth="yes"/>
      <point x="138" y="301"/>
      <point x="119" y="227"/>
      <point x="129" y="181" type="curve" smooth="yes"/>
      <point x="147" y="108"/>
      <point x="214" y="95"/>
      <point x="290" y="108" type="curve"/>
      <point x="333" y="119"/>
      <point x="347" y="138"/>
    </contour>
  </outline>
</glyph>
<glyph name="nine" format="1">
  <advance width="513"/>
  <unicode hex="0039"/>
  <outline>
    <contour>
      <point x="476" y="323" type="curve" smooth="yes"/>
      <point x="477" y="279"/>
      <point x="482" y="236"/>
      <point x="477" y="192" type="curve" smooth="yes"/>
      <point x="470" y="143"/>
      <point x="454" y="96"/>
      <point x="427" y="57" type="curve"/>
      <point x="343" y="-43"/>
      <point x="123" y="-12"/>
      <point x="54" y="89" type="curve" smooth="yes"/>
      <point x="31" y="123"/>
      <point x="23" y="166"/>
      <point x="30" y="217" type="curve"/>
      <point x="30" y="222" type="line"/>
      <point x="53" y="222"/>
      <point x="78" y="224"/>
      <point x="102" y="224" type="curve" smooth="yes"/>
      <point x="115" y="113"/>
      <point x="217" y="81"/>
      <point x="294" y="108" type="curve" smooth="yes"/>
      <point x="343" y="125"/>
      <point x="360" y="165"/>
      <point x="361" y="217" type="curve"/>
      <point x="361" y="277" type="line"/>
      <point x="361" y="291"/>
      <point x="362" y="307"/>
      <point x="362" y="323" type="curve"/>
      <point x="361" y="324" type="line"/>
      <point x="329" y="300"/>
      <point x="297" y="287"/>
      <point x="264" y="286" type="curve" smooth="yes"/>
      <point x="165" y="282"/>
      <point x="101" y="313"/>
      <point x="59" y="378" type="curve" smooth="yes"/>
      <point x="21" y="434"/>
      <point x="20" y="540"/>
      <point x="44" y="598" type="curve"/>
      <point x="89" y="675"/>
      <point x="165" y="705"/>
      <point x="256" y="709" type="curve"/>
      <point x="324" y="706"/>
      <point x="400" y="715"/>
      <point x="440" y="653" type="curve" smooth="yes"/>
      <point x="471" y="606"/>
      <point x="473" y="539"/>
      <point x="474" y="471" type="curve" smooth="yes"/>
      <point x="475" y="422"/>
      <point x="475" y="372"/>
    </contour>
    <contour>
      <point x="370" y="474" type="curve" smooth="yes"/>
      <point x="372" y="481"/>
      <point x="372" y="490"/>
      <point x="372" y="500" type="curve" smooth="yes"/>
      <point x="374" y="540"/>
      <point x="359" y="584"/>
      <point x="317" y="598" type="curve" smooth="yes"/>
      <point x="249" y="622"/>
      <point x="138" y="600"/>
      <point x="138" y="519" type="curve" smooth="yes"/>
      <point x="140" y="493"/>
      <point x="143" y="465"/>
      <point x="151" y="442" type="curve"/>
      <point x="151" y="441" type="line"/>
      <point x="170" y="400"/>
      <point x="212" y="380"/>
      <point x="253" y="378" type="curve" smooth="yes"/>
      <point x="318" y="375"/>
      <point x="361" y="417"/>
    </contour>
  </outline>
</glyph>
<glyph name="colon" format="1">
  <advance width="205"/>
  <unicode hex="003A"/>
  <outline>
    <contour>
      <point x="64" y="1" type="line"/>
      <point x="61" y="1" type="line"/>
      <point x="56" y="31"/>
      <point x="60" y="98"/>
      <point x="60" y="117" type="curve"/>
      <point x="85" y="127"/>
      <point x="133" y="125"/>
      <point x="148" y="119" type="curve"/>
      <point x="148" y="117"/>
      <point x="142" y="21"/>
      <point x="142" y="2" type="curve"/>
      <point x="142" y="1" type="line"/>
      <point x="142" y="0" type="line"/>
      <point x="140" y="0" type="line"/>
    </contour>
    <contour>
      <point x="64" y="337" type="line"/>
      <point x="61" y="337" type="line"/>
      <point x="56" y="367"/>
      <point x="60" y="434"/>
      <point x="60" y="453" type="curve"/>
      <point x="86" y="463"/>
      <point x="133" y="461"/>
      <point x="149" y="455" type="curve"/>
      <point x="149" y="453"/>
      <point x="143" y="357"/>
      <point x="143" y="338" type="curve"/>
      <point x="143" y="337" type="line"/>
      <point x="143" y="336" type="line"/>
      <point x="141" y="336" type="line"/>
    </contour>
  </outline>
</glyph>
<glyph name="semicolon" format="1">
  <advance width="205"/>
  <unicode hex="003B"/>
  <outline>
    <contour>
      <point x="63" y="337" type="line"/>
      <point x="60" y="337" type="line"/>
      <point x="55" y="367"/>
      <point x="59" y="434"/>
      <point x="59" y="453" type="curve"/>
      <point x="85" y="463"/>
      <point x="136" y="461"/>
      <point x="151" y="455" type="curve"/>
      <point x="151" y="453"/>
      <point x="145" y="357"/>
      <point x="145" y="338" type="curve"/>
      <point x="145" y="337" type="line"/>
      <point x="145" y="336" type="line"/>
      <point x="143" y="336" type="line"/>
    </contour>
    <contour>
      <point x="132" y="-61" type="line"/>
      <point x="129" y="-74"/>
      <point x="127" y="-87"/>
      <point x="124" y="-100" type="curve"/>
      <point x="119" y="-98"/>
      <point x="101" y="-99"/>
      <point x="71" y="-98" type="curve"/>
      <point x="67" y="-94"/>
      <point x="86" y="-37"/>
      <point x="91" y="-1" type="curve"/>
      <point x="58" y="3" type="line"/>
      <point x="57" y="3"/>
      <point x="56" y="3"/>
      <point x="55" y="4" type="curve"/>
      <point x="55" y="7"/>
      <point x="54" y="10"/>
      <point x="59" y="119" type="curve"/>
      <point x="59" y="120" type="line"/>
      <point x="60" y="120" type="line"/>
      <point x="87" y="126"/>
      <point x="116" y="121"/>
      <point x="150" y="119" type="curve"/>
      <point x="151" y="119" type="line"/>
      <point x="147" y="4" type="line"/>
      <point x="145" y="4" type="line"/>
      <point x="145" y="3"/>
      <point x="144" y="2"/>
      <point x="144" y="1" type="curve" smooth="yes"/>
      <point x="144" y="-4"/>
      <point x="141" y="-14"/>
      <point x="140" y="-21" type="curve" smooth="yes"/>
    </contour>
  </outline>
</glyph>
<glyph name="less" format="1">
  <advance width="363"/>
  <unicode hex="003C"/>
  <outline>
    <contour>
      <point x="306" y="57" type="curve"/>
      <point x="298" y="49" type="line" smooth="yes"/>
      <point x="292" y="44"/>
      <point x="287" y="38"/>
      <point x="265" y="19" type="curve"/>
      <point x="264" y="20" type="line" smooth="yes"/>
      <point x="183" y="102"/>
      <point x="91" y="168"/>
      <point x="13" y="270" type="curve"/>
      <point x="79" y="353"/>
      <point x="189" y="459"/>
      <point x="258" y="528" type="curve"/>
      <point x="275" y="518"/>
      <point x="297" y="490"/>
      <point x="311" y="478" type="curve"/>
      <point x="282" y="440"/>
      <point x="157" y="320"/>
      <point x="117" y="267" type="curve"/>
      <point x="179" y="204"/>
      <point x="257" y="124"/>
      <point x="320" y="73" type="curve"/>
      <point x="315" y="68"/>
      <point x="311" y="62"/>
    </contour>
  </outline>
</glyph>
<glyph name="equal" format="1">
  <advance width="466"/>
  <unicode hex="003D"/>
  <outline>
    <contour>
      <point x="38" y="347" type="curve"/>
      <point x="38" y="369"/>
      <point x="41" y="429"/>
      <point x="41" y="441" type="curve"/>
      <point x="358" y="441" type="line"/>
      <point x="387" y="441" type="line"/>
      <point x="422" y="441" type="line"/>
      <point x="423" y="408"/>
      <point x="420" y="373"/>
      <point x="425" y="341" type="curve"/>
      <point x="424" y="341" type="line"/>
      <point x="421" y="341" type="line"/>
      <point x="387" y="341"/>
      <point x="52" y="347"/>
    </contour>
    <contour>
      <point x="38" y="139" type="curve"/>
      <point x="38" y="160"/>
      <point x="41" y="221"/>
      <point x="41" y="233" type="curve"/>
      <point x="358" y="233" type="line"/>
      <point x="387" y="233" type="line"/>
      <point x="422" y="233" type="line"/>
      <point x="423" y="200"/>
      <point x="420" y="165"/>
      <point x="425" y="132" type="curve"/>
      <point x="424" y="132" type="line"/>
      <point x="421" y="132" type="line"/>
      <point x="387" y="132"/>
      <point x="52" y="139"/>
    </contour>
  </outline>
</glyph>
<glyph name="greater" format="1">
  <advance width="363"/>
  <unicode hex="003E"/>
  <outline>
    <contour>
      <point x="42" y="73" type="curve"/>
      <point x="47" y="68"/>
      <point x="51" y="62"/>
      <point x="56" y="57" type="curve" smooth="yes"/>
      <point x="64" y="49" type="line" smooth="yes"/>
      <point x="69" y="45"/>
      <point x="75" y="38"/>
      <point x="97" y="19" type="curve"/>
      <point x="98" y="20" type="line" smooth="yes"/>
      <point x="179" y="102"/>
      <point x="270" y="169"/>
      <point x="349" y="270" type="curve"/>
      <point x="283" y="353"/>
      <point x="173" y="459"/>
      <point x="104" y="528" type="curve"/>
      <point x="86" y="518"/>
      <point x="65" y="490"/>
      <point x="51" y="478" type="curve"/>
      <point x="82" y="440"/>
      <point x="203" y="318"/>
      <point x="245" y="267" type="curve"/>
      <point x="182" y="204"/>
      <point x="105" y="124"/>
    </contour>
  </outline>
</glyph>
<glyph name="at" format="1">
  <advance width="564"/>
  <unicode hex="0040"/>
  <outline>
    <contour>
      <point x="395" y="462" type="curve"/>
      <point x="402" y="453"/>
      <point x="405" y="438"/>
      <point x="404" y="413" type="curve" smooth="yes"/>
      <point x="404" y="398"/>
      <point x="403" y="374"/>
      <point x="403" y="347" type="curve" smooth="yes"/>
      <point x="403" y="330"/>
      <point x="403" y="316"/>
      <point x="404" y="304" type="curve" smooth="yes"/>
      <point x="405" y="292"/>
      <point x="404" y="279"/>
      <point x="405" y="266" type="curve" smooth="yes"/>
      <point x="406" y="249"/>
      <point x="408" y="233"/>
      <point x="414" y="224" type="curve"/>
      <point x="421" y="219"/>
      <point x="468" y="237"/>
      <point x="468" y="316" type="curve" smooth="yes"/>
      <point x="468" y="339"/>
      <point x="468" y="357"/>
      <point x="467" y="376" type="curve"/>
      <point x="467" y="404" type="line"/>
      <point x="464" y="455"/>
      <point x="453" y="535"/>
      <point x="388" y="576" type="curve"/>
      <point x="388" y="576" type="line"/>
      <point x="359" y="593"/>
      <point x="307" y="599"/>
      <point x="260" y="599" type="curve" smooth="yes"/>
      <point x="139" y="596"/>
      <point x="101" y="522"/>
      <point x="101" y="341" type="curve" smooth="yes"/>
      <point x="101" y="266"/>
      <point x="103" y="117"/>
      <point x="182" y="68" type="curve" smooth="yes"/>
      <point x="219" y="46"/>
      <point x="260" y="44"/>
      <point x="292" y="44" type="curve"/>
      <point x="302" y="44" type="line"/>
      <point x="313" y="44"/>
      <point x="324" y="45"/>
      <point x="332" y="45" type="curve"/>
      <point x="331" y="45" type="line"/>
      <point x="379" y="48"/>
      <point x="455" y="75"/>
      <point x="503" y="99" type="curve"/>
      <point x="513" y="80"/>
      <point x="521" y="61"/>
      <point x="531" y="42" type="curve"/>
      <point x="451" y="-9"/>
      <point x="375" y="-23"/>
      <point x="293" y="-23" type="curve" smooth="yes"/>
      <point x="210" y="-23"/>
      <point x="137" y="-11"/>
      <point x="90" y="53" type="curve" smooth="yes"/>
      <point x="64" y="88"/>
      <point x="43" y="156"/>
      <point x="40" y="195" type="curve" smooth="yes"/>
      <point x="36" y="263"/>
      <point x="33" y="312"/>
      <point x="33" y="376" type="curve" smooth="yes"/>
      <point x="33" y="406" type="line" smooth="yes"/>
      <point x="33" y="470"/>
      <point x="40" y="535"/>
      <point x="83" y="590" type="curve" smooth="yes"/>
      <point x="128" y="648"/>
      <point x="210" y="659"/>
      <point x="280" y="659" type="curve" smooth="yes"/>
      <point x="348" y="659"/>
      <point x="416" y="651"/>
      <point x="470" y="602" type="curve" smooth="yes"/>
      <point x="530" y="546"/>
      <point x="533" y="453"/>
      <point x="533" y="380" type="curve" smooth="yes"/>
      <point x="533" y="326" type="line" smooth="yes"/>
      <point x="533" y="223"/>
      <point x="516" y="155"/>
      <point x="418" y="154" type="curve" smooth="yes"/>
      <point x="394" y="154"/>
      <point x="378" y="162"/>
      <point x="359" y="187" type="curve"/>
      <point x="337" y="169"/>
      <point x="310" y="160"/>
      <point x="278" y="160" type="curve" smooth="yes"/>
      <point x="182" y="160"/>
      <point x="162" y="244"/>
      <point x="164" y="315" type="curve" smooth="yes"/>
      <point x="166" y="392"/>
      <point x="216" y="479"/>
      <point x="333" y="479" type="curve" smooth="yes"/>
      <point x="352" y="479"/>
      <point x="381" y="475"/>
    </contour>
    <contour>
      <point x="229" y="271" type="line"/>
      <point x="234" y="236"/>
      <point x="261" y="220"/>
      <point x="296" y="231" type="curve"/>
      <point x="345" y="242"/>
      <point x="341" y="277"/>
      <point x="341" y="315" type="curve" smooth="yes"/>
      <point x="341" y="321"/>
      <point x="341" y="337"/>
      <point x="341" y="358" type="curve" smooth="yes"/>
      <point x="341" y="393"/>
      <point x="342" y="410"/>
      <point x="343" y="410" type="curve" smooth="yes"/>
      <point x="242" y="414"/>
      <point x="229" y="342"/>
      <point x="229" y="274" type="curve" smooth="yes"/>
    </contour>
  </outline>
</glyph>
<glyph name="B" format="1">
  <advance width="477"/>
  <unicode hex="0042"/>
  <outline>
    <contour>
      <point x="395" y="331" type="curve" smooth="yes"/>
      <point x="437" y="278"/>
      <point x="478" y="231"/>
      <point x="463" y="145" type="curve" smooth="yes"/>
      <point x="430" y="-44"/>
      <point x="211" y="-2"/>
      <point x="66" y="2" type="curve" smooth="yes"/>
      <point x="58" y="2"/>
      <point x="51" y="1"/>
      <point x="44" y="4" type="curve"/>
      <point x="36" y="235"/>
      <point x="45" y="460"/>
      <point x="41" y="692" type="curve"/>
      <point x="42" y="693" type="line"/>
      <point x="202" y="737"/>
      <point x="439" y="732"/>
      <point x="439" y="508" type="curve" smooth="yes"/>
      <point x="439" y="452"/>
      <point x="417" y="397"/>
      <point x="390" y="352" type="curve" smooth="yes"/>
      <point x="385" y="343"/>
      <point x="388" y="339"/>
    </contour>
    <contour>
      <point x="352" y="145" type="curve"/>
      <point x="364" y="167"/>
      <point x="362" y="201"/>
      <point x="349" y="235" type="curve" smooth="yes"/>
      <point x="328" y="295"/>
      <point x="254" y="288"/>
      <point x="232" y="290" type="curve" smooth="yes"/>
      <point x="215" y="292"/>
      <point x="183" y="291"/>
      <point x="135" y="289" type="curve"/>
      <point x="121" y="268"/>
      <point x="125" y="189"/>
      <point x="139" y="91" type="curve"/>
      <point x="147" y="90"/>
      <point x="163" y="88"/>
      <point x="185" y="87" type="curve" smooth="yes"/>
      <point x="269" y="81"/>
      <point x="316" y="82"/>
    </contour>
    <contour>
      <point x="337" y="432" type="curve" smooth="yes"/>
      <point x="349" y="455"/>
      <point x="358" y="488"/>
      <point x="350" y="527" type="curve" smooth="yes"/>
      <point x="339" y="589"/>
      <point x="295" y="610"/>
      <point x="232" y="612" type="curve" smooth="yes"/>
      <point x="196" y="614"/>
      <point x="148" y="613"/>
      <point x="131" y="604" type="curve"/>
      <point x="132" y="590"/>
      <point x="132" y="557"/>
      <point x="130" y="507" type="curve" smooth="yes"/>
      <point x="129" y="453"/>
      <point x="129" y="412"/>
      <point x="136" y="386" type="curve"/>
      <point x="145" y="385"/>
      <point x="161" y="383"/>
      <point x="185" y="381" type="curve" smooth="yes"/>
      <point x="279" y="374"/>
      <point x="315" y="382"/>
    </contour>
  </outline>
</glyph>
<glyph name="C" format="1">
  <advance width="488"/>
  <unicode hex="0043"/>
  <outline>
    <contour>
      <point x="202" y="611" type="curve" smooth="yes"/>
      <point x="249" y="615"/>
      <point x="287" y="608"/>
      <point x="308" y="593" type="curve"/>
      <point x="375" y="558"/>
      <point x="369" y="491"/>
      <point x="369" y="421" type="curve"/>
      <point x="393" y="415"/>
      <point x="423" y="412"/>
      <point x="465" y="420" type="curve"/>
      <point x="505" y="611"/>
      <point x="338" y="775"/>
      <point x="150" y="714" type="curve"/>
      <point x="75" y="694"/>
      <point x="32" y="619"/>
      <point x="33" y="537" type="curve"/>
      <point x="30" y="321"/>
      <point x="31" y="218"/>
      <point x="36" y="122" type="curve"/>
      <point x="47" y="10"/>
      <point x="168" y="-24"/>
      <point x="263" y="-11" type="curve"/>
      <point x="410" y="-6"/>
      <point x="499" y="138"/>
      <point x="461" y="283" type="curve"/>
      <point x="435" y="288"/>
      <point x="399" y="282"/>
      <point x="372" y="284" type="curve"/>
      <point x="373" y="142"/>
      <point x="318" y="69"/>
      <point x="189" y="96" type="curve"/>
      <point x="110" y="126"/>
      <point x="125" y="227"/>
      <point x="128" y="371" type="curve" smooth="yes"/>
      <point x="125" y="543"/>
      <point x="150" y="609"/>
    </contour>
  </outline>
</glyph>
<glyph name="D" format="1">
  <advance width="482"/>
  <unicode hex="0044"/>
  <outline>
    <contour>
      <point x="393" y="617" type="curve" smooth="yes"/>
      <point x="431" y="556"/>
      <point x="458" y="479"/>
      <point x="462" y="407" type="curve"/>
      <point x="459" y="344"/>
      <point x="460" y="280"/>
      <point x="448" y="219" type="curve"/>
      <point x="448" y="213"/>
      <point x="440" y="200"/>
      <point x="432" y="179" type="curve" smooth="yes"/>
      <point x="411" y="129"/>
      <point x="363" y="59"/>
      <point x="320" y="5" type="curve"/>
      <point x="232" y="2"/>
      <point x="141" y="2"/>
      <point x="57" y="2" type="curve"/>
      <point x="56" y="1" type="line"/>
      <point x="27" y="212"/>
      <point x="45" y="455"/>
      <point x="40" y="687" type="curve"/>
      <point x="41" y="688"/>
      <point x="42" y="690"/>
      <point x="43" y="691" type="curve"/>
      <point x="119" y="710"/>
      <point x="207" y="698"/>
      <point x="284" y="701" type="curve"/>
      <point x="327" y="690"/>
      <point x="369" y="656"/>
    </contour>
    <contour>
      <point x="329" y="187" type="curve" smooth="yes"/>
      <point x="348" y="212"/>
      <point x="363" y="255"/>
      <point x="373" y="314" type="curve" smooth="yes"/>
      <point x="375" y="338"/>
      <point x="375" y="361"/>
      <point x="373" y="386" type="curve" smooth="yes"/>
      <point x="363" y="498"/>
      <point x="307" y="565"/>
      <point x="266" y="573" type="curve"/>
      <point x="253" y="574"/>
      <point x="242" y="575"/>
      <point x="232" y="575" type="curve" smooth="yes"/>
      <point x="216" y="576"/>
      <point x="184" y="575"/>
      <point x="136" y="571" type="curve" smooth="yes"/>
      <point x="131" y="571" type="line"/>
      <point x="134" y="550"/>
      <point x="135" y="515"/>
      <point x="135" y="465" type="curve" smooth="yes"/>
      <point x="135" y="415"/>
      <point x="134" y="379"/>
      <point x="133" y="357" type="curve" smooth="yes"/>
      <point x="132" y="335"/>
      <point x="132" y="297"/>
      <point x="134" y="245" type="curve" smooth="yes"/>
      <point x="136" y="193"/>
      <point x="138" y="156"/>
      <point x="139" y="135" type="curve"/>
      <point x="146" y="130"/>
      <point x="165" y="129"/>
      <point x="194" y="129" type="curve" smooth="yes"/>
      <point x="291" y="131"/>
      <point x="294" y="141"/>
    </contour>
  </outline>
</glyph>
<glyph name="F" format="1">
  <advance width="494"/>
  <unicode hex="0046"/>
  <outline>
    <contour>
      <point x="352" y="289" type="curve" smooth="yes"/>
      <point x="323" y="287"/>
      <point x="296" y="286"/>
      <point x="273" y="285" type="curve" smooth="yes"/>
      <point x="257" y="284"/>
      <point x="217" y="282"/>
      <point x="156" y="280" type="curve"/>
      <point x="155" y="280" type="line"/>
      <point x="154" y="211"/>
      <point x="153" y="153"/>
      <point x="152" y="108" type="curve" smooth="yes"/>
      <point x="151" y="71"/>
      <point x="151" y="35"/>
      <point x="151" y="1" type="curve"/>
      <point x="129" y="-1"/>
      <point x="107" y="-2"/>
      <point x="95" y="-3" type="curve" smooth="yes"/>
      <point x="92" y="-4"/>
      <point x="44" y="-1"/>
      <point x="42" y="1" type="curve" smooth="yes"/>
      <point x="41" y="2" type="line"/>
      <point x="41" y="244"/>
      <point x="43" y="368"/>
      <point x="43" y="679" type="curve"/>
      <point x="43" y="680" type="line"/>
      <point x="112" y="692"/>
      <point x="378" y="710"/>
      <point x="490" y="682" type="curve"/>
      <point x="490" y="660"/>
      <point x="491" y="615"/>
      <point x="489" y="591" type="curve"/>
      <point x="410" y="592"/>
      <point x="367" y="592"/>
      <point x="308" y="589" type="curve" smooth="yes"/>
      <point x="264" y="587"/>
      <point x="248" y="586"/>
      <point x="154" y="580" type="curve"/>
      <point x="150" y="518"/>
      <point x="149" y="475"/>
      <point x="149" y="451" type="curve" smooth="yes"/>
      <point x="149" y="430"/>
      <point x="152" y="392"/>
      <point x="158" y="392" type="curve"/>
      <point x="229" y="391"/>
      <point x="278" y="391"/>
      <point x="306" y="391" type="curve" smooth="yes"/>
      <point x="326" y="391"/>
      <point x="340" y="391"/>
      <point x="353" y="392" type="curve"/>
      <point x="360" y="377"/>
      <point x="352" y="314"/>
      <point x="354" y="290" type="curve"/>
      <point x="354" y="290"/>
      <point x="353" y="289"/>
    </contour>
  </outline>
</glyph>
<glyph name="G" format="1">
  <advance width="481"/>
  <unicode hex="0047"/>
  <outline>
    <contour>
      <point x="243" y="348" type="curve"/>
      <point x="277" y="369"/>
      <point x="421" y="352"/>
      <point x="448" y="352" type="curve"/>
      <point x="451" y="351" type="line"/>
      <point x="459" y="280"/>
      <point x="464" y="197"/>
      <point x="451" y="125" type="curve"/>
      <point x="444" y="57"/>
      <point x="407" y="25"/>
      <point x="356" y="6" type="curve"/>
      <point x="290" y="-13"/>
      <point x="208" y="-28"/>
      <point x="144" y="-1" type="curve" smooth="yes"/>
      <point x="73" y="29"/>
      <point x="48" y="87"/>
      <point x="38" y="187" type="curve" smooth="yes"/>
      <point x="29" y="272"/>
      <point x="25" y="317"/>
      <point x="28" y="416" type="curve" smooth="yes"/>
      <point x="31" y="535"/>
      <point x="26" y="676"/>
      <point x="194" y="699" type="curve" smooth="yes"/>
      <point x="343" y="718"/>
      <point x="469" y="643"/>
      <point x="450" y="481" type="curve" smooth="yes"/>
      <point x="450" y="479"/>
      <point x="449" y="477"/>
      <point x="449" y="475" type="curve"/>
      <point x="439" y="477"/>
      <point x="382" y="469"/>
      <point x="357" y="474" type="curve" smooth="yes"/>
      <point x="352" y="475"/>
      <point x="357" y="489"/>
      <point x="356" y="534" type="curve"/>
      <point x="354" y="565"/>
      <point x="310" y="608"/>
      <point x="257" y="610" type="curve" smooth="yes"/>
      <point x="176" y="616"/>
      <point x="147" y="583"/>
      <point x="134" y="530" type="curve" smooth="yes"/>
      <point x="117" y="467"/>
      <point x="112" y="354"/>
      <point x="118" y="259" type="curve" smooth="yes"/>
      <point x="130" y="140"/>
      <point x="144" y="105"/>
      <point x="198" y="84" type="curve" smooth="yes"/>
      <point x="248" y="70"/>
      <point x="284" y="77"/>
      <point x="307" y="87" type="curve" smooth="yes"/>
      <point x="331" y="98"/>
      <point x="347" y="99"/>
      <point x="364" y="151" type="curve" smooth="yes"/>
      <point x="373" y="247"/>
      <point x="359" y="274"/>
      <point x="358" y="275" type="curve" smooth="yes"/>
      <point x="354" y="276"/>
      <point x="340" y="276"/>
      <point x="318" y="276" type="curve" smooth="yes"/>
      <point x="297" y="277"/>
      <point x="281" y="276"/>
      <point x="272" y="276" type="curve" smooth="yes"/>
      <point x="260" y="276"/>
      <point x="250" y="276"/>
      <point x="244" y="278" type="curve"/>
      <point x="241" y="303"/>
      <point x="243" y="316"/>
      <point x="240" y="345" type="curve"/>
      <point x="240" y="346" type="line"/>
      <point x="240" y="348"/>
      <point x="240" y="345"/>
    </contour>
  </outline>
</glyph>
<glyph name="H" format="1">
  <advance width="499"/>
  <unicode hex="0048"/>
  <outline>
    <contour>
      <point x="469" y="6" type="curve"/>
      <point x="440" y="1"/>
      <point x="402" y="3"/>
      <point x="376" y="3" type="curve"/>
      <point x="375" y="3" type="line"/>
      <point x="362" y="128"/>
      <point x="369" y="152"/>
      <point x="361" y="299" type="curve"/>
      <point x="346" y="299"/>
      <point x="330" y="299"/>
      <point x="315" y="299" type="curve"/>
      <point x="264" y="304"/>
      <point x="207" y="303"/>
      <point x="143" y="296" type="curve"/>
      <point x="138" y="114"/>
      <point x="144" y="97"/>
      <point x="141" y="4" type="curve"/>
      <point x="116" y="-6"/>
      <point x="70" y="7"/>
      <point x="54" y="1" type="curve"/>
      <point x="46" y="114"/>
      <point x="36" y="494"/>
      <point x="40" y="698" type="curve"/>
      <point x="41" y="699" type="line"/>
      <point x="43" y="699" type="line" smooth="yes"/>
      <point x="68" y="694"/>
      <point x="97" y="702"/>
      <point x="121" y="696" type="curve"/>
      <point x="129" y="582"/>
      <point x="127" y="482"/>
      <point x="139" y="395" type="curve"/>
      <point x="140" y="395" type="line"/>
      <point x="242" y="390"/>
      <point x="319" y="395"/>
      <point x="352" y="398" type="curve"/>
      <point x="353" y="398" type="line"/>
      <point x="356" y="493"/>
      <point x="355" y="586"/>
      <point x="353" y="700" type="curve"/>
      <point x="379" y="706"/>
      <point x="417" y="708"/>
      <point x="442" y="706" type="curve"/>
      <point x="451" y="473"/>
      <point x="460" y="239"/>
    </contour>
  </outline>
</glyph>
<glyph name="I" format="1">
  <advance width="260"/>
  <unicode hex="0049"/>
  <outline>
    <contour>
      <point x="188" y="703" type="curve"/>
      <point x="188" y="699" type="line" smooth="yes"/>
      <point x="187" y="469"/>
      <point x="177" y="234"/>
      <point x="187" y="3" type="curve"/>
      <point x="169" y="-10"/>
      <point x="94" y="2"/>
      <point x="67" y="-4" type="curve"/>
      <point x="71" y="81"/>
      <point x="72" y="175"/>
      <point x="70" y="274" type="curve" smooth="yes"/>
      <point x="69" y="374"/>
      <point x="67" y="461"/>
      <point x="66" y="534" type="curve" smooth="yes"/>
      <point x="66" y="592"/>
      <point x="69" y="650"/>
      <point x="75" y="706" type="curve" smooth="yes"/>
      <point x="75" y="708" type="line"/>
      <point x="113" y="711"/>
      <point x="116" y="704"/>
    </contour>
  </outline>
</glyph>
<glyph name="J" format="1">
  <advance width="463"/>
  <unicode hex="004A"/>
  <outline>
    <contour>
      <point x="425" y="712" type="curve"/>
      <point x="422" y="587"/>
      <point x="432" y="458"/>
      <point x="429" y="329" type="curve"/>
      <point x="424" y="220"/>
      <point x="437" y="62"/>
      <point x="313" y="16" type="curve"/>
      <point x="257" y="-12"/>
      <point x="186" y="-13"/>
      <point x="126" y="0" type="curve"/>
      <point x="17" y="32"/>
      <point x="-1" y="186"/>
      <point x="4" y="288" type="curve"/>
      <point x="29" y="292"/>
      <point x="71" y="291"/>
      <point x="101" y="286" type="curve"/>
      <point x="101" y="285" type="line"/>
      <point x="101" y="282" type="line"/>
      <point x="101" y="277"/>
      <point x="102" y="271"/>
      <point x="102" y="265" type="curve"/>
      <point x="104" y="233"/>
      <point x="103" y="88"/>
      <point x="224" y="102" type="curve"/>
      <point x="340" y="112"/>
      <point x="327" y="219"/>
      <point x="329" y="243" type="curve"/>
      <point x="327" y="383"/>
      <point x="324" y="544"/>
      <point x="329" y="703" type="curve" smooth="yes"/>
      <point x="329" y="710" type="line"/>
      <point x="361" y="711"/>
      <point x="393" y="711"/>
    </contour>
  </outline>
</glyph>
<glyph name="K" format="1">
  <advance width="459"/>
  <unicode hex="004B"/>
  <outline>
    <contour>
      <point x="463" y="4" type="curve"/>
      <point x="431" y="-1"/>
      <point x="395" y="2"/>
      <point x="363" y="2" type="curve"/>
      <point x="225" y="150"/>
      <point x="193" y="227"/>
      <point x="142" y="292" type="curve"/>
      <point x="142" y="273"/>
      <point x="142" y="248"/>
      <point x="140" y="218" type="curve" smooth="yes"/>
      <point x="138" y="152"/>
      <point x="144" y="48"/>
      <point x="144" y="5" type="curve"/>
      <point x="116" y="-3"/>
      <point x="69" y="-1"/>
      <point x="43" y="5" type="curve"/>
      <point x="32" y="234"/>
      <point x="46" y="466"/>
      <point x="45" y="699" type="curve"/>
      <point x="75" y="699"/>
      <point x="107" y="697"/>
      <point x="137" y="697" type="curve"/>
      <point x="139" y="620"/>
      <point x="136" y="549"/>
      <point x="139" y="429" type="curve" smooth="yes"/>
      <point x="139" y="429"/>
      <point x="187" y="480"/>
      <point x="232" y="527" type="curve" smooth="yes"/>
      <point x="292" y="595"/>
      <point x="322" y="641"/>
      <point x="362" y="695" type="curve"/>
      <point x="394" y="693"/>
      <point x="430" y="697"/>
      <point x="462" y="693" type="curve"/>
      <point x="373" y="558"/>
      <point x="323" y="494"/>
      <point x="212" y="360" type="curve"/>
      <point x="296" y="242"/>
      <point x="379" y="122"/>
    </contour>
  </outline>
</glyph>
<glyph name="L" format="1">
  <advance width="461"/>
  <unicode hex="004C"/>
  <outline>
    <contour>
      <point x="455" y="46" type="curve"/>
      <point x="454" y="-3"/>
      <point x="448" y="0"/>
      <point x="431" y="0" type="curve"/>
      <point x="403" y="3"/>
      <point x="358" y="-6"/>
      <point x="36" y="-1" type="curve"/>
      <point x="36" y="17" type="line"/>
      <point x="48" y="317"/>
      <point x="43" y="422"/>
      <point x="39" y="703" type="curve"/>
      <point x="59" y="711"/>
      <point x="119" y="710"/>
      <point x="148" y="698" type="curve"/>
      <point x="143" y="567"/>
      <point x="149" y="424"/>
      <point x="149" y="289" type="curve" smooth="yes"/>
      <point x="149" y="244"/>
      <point x="150" y="180"/>
      <point x="147" y="102" type="curve"/>
      <point x="147" y="101" type="line"/>
      <point x="150" y="102"/>
      <point x="236" y="105"/>
      <point x="258" y="104" type="curve"/>
      <point x="324" y="101"/>
      <point x="435" y="94"/>
      <point x="457" y="97" type="curve"/>
      <point x="457" y="83"/>
      <point x="454" y="64"/>
    </contour>
  </outline>
</glyph>
<glyph name="M" format="1">
  <advance width="501"/>
  <unicode hex="004D"/>
  <outline>
    <contour>
      <point x="456" y="-1" type="curve"/>
      <point x="426" y="3"/>
      <point x="390" y="1"/>
      <point x="366" y="1" type="curve"/>
      <point x="357" y="162"/>
      <point x="363" y="206"/>
      <point x="358" y="506" type="curve"/>
      <point x="346" y="489"/>
      <point x="353" y="496"/>
      <point x="307" y="399" type="curve" smooth="yes"/>
      <point x="257" y="293"/>
      <point x="255" y="273"/>
      <point x="247" y="273" type="curve" smooth="yes"/>
      <point x="227" y="286"/>
      <point x="176" y="416"/>
      <point x="137" y="497" type="curve" smooth="yes"/>
      <point x="135" y="357"/>
      <point x="136" y="256"/>
      <point x="137" y="192" type="curve" smooth="yes"/>
      <point x="138" y="128"/>
      <point x="141" y="65"/>
      <point x="145" y="3" type="curve"/>
      <point x="115" y="-1"/>
      <point x="78" y="0"/>
      <point x="48" y="0" type="curve" smooth="yes"/>
      <point x="39" y="0"/>
      <point x="39" y="76"/>
      <point x="44" y="686" type="curve"/>
      <point x="67" y="693"/>
      <point x="103" y="689"/>
      <point x="137" y="691" type="curve"/>
      <point x="138" y="691" type="line"/>
      <point x="148" y="680"/>
      <point x="186" y="578"/>
      <point x="248" y="464" type="curve"/>
      <point x="255" y="466"/>
      <point x="319" y="648"/>
      <point x="354" y="694" type="curve"/>
      <point x="368" y="692"/>
      <point x="428" y="697"/>
      <point x="460" y="697" type="curve"/>
      <point x="455" y="569"/>
      <point x="466" y="446"/>
      <point x="459" y="318" type="curve"/>
      <point x="458" y="212"/>
      <point x="457" y="105"/>
    </contour>
  </outline>
</glyph>
<glyph name="O" format="1">
  <advance width="483"/>
  <unicode hex="004F"/>
  <outline>
    <contour>
      <point x="437" y="592" type="curve"/>
      <point x="459" y="543"/>
      <point x="457" y="484"/>
      <point x="455" y="431" type="curve" smooth="yes"/>
      <point x="451" y="360"/>
      <point x="454" y="295"/>
      <point x="450" y="226" type="curve"/>
      <point x="447" y="193" type="line" smooth="yes"/>
      <point x="443" y="146"/>
      <point x="433" y="97"/>
      <point x="409" y="58" type="curve"/>
      <point x="366" y="-1"/>
      <point x="268" y="-20"/>
      <point x="192" y="-13" type="curve" smooth="yes"/>
      <point x="97" y="-5"/>
      <point x="39" y="36"/>
      <point x="36" y="168" type="curve" smooth="yes"/>
      <point x="32" y="272"/>
      <point x="23" y="377"/>
      <point x="31" y="482" type="curve"/>
      <point x="32" y="545"/>
      <point x="46" y="637"/>
      <point x="107" y="671" type="curve"/>
      <point x="212" y="722"/>
      <point x="395" y="713"/>
    </contour>
    <contour>
      <point x="368" y="427" type="curve" smooth="yes"/>
      <point x="366" y="465"/>
      <point x="378" y="605"/>
      <point x="253" y="612" type="curve"/>
      <point x="134" y="619"/>
      <point x="103" y="513"/>
      <point x="105" y="325" type="curve" smooth="yes"/>
      <point x="107" y="182"/>
      <point x="113" y="122"/>
      <point x="157" y="91" type="curve" smooth="yes"/>
      <point x="175" y="78"/>
      <point x="201" y="73"/>
      <point x="234" y="74" type="curve" smooth="yes"/>
      <point x="327" y="76"/>
      <point x="360" y="119"/>
      <point x="364" y="188" type="curve" smooth="yes"/>
      <point x="364" y="235"/>
      <point x="369" y="313"/>
      <point x="369" y="312" type="curve" smooth="yes"/>
      <point x="369" y="347" type="line" smooth="yes"/>
      <point x="369" y="374"/>
      <point x="368" y="400"/>
    </contour>
  </outline>
</glyph>
<glyph name="P" format="1">
  <advance width="497"/>
  <unicode hex="0050"/>
  <outline>
    <contour>
      <point x="484" y="478" type="line"/>
      <point x="473" y="325"/>
      <point x="355" y="250"/>
      <point x="149" y="262" type="curve"/>
      <point x="152" y="225"/>
      <point x="148" y="205"/>
      <point x="153" y="11" type="curve"/>
      <point x="153" y="10" type="line"/>
      <point x="152" y="10"/>
      <point x="151" y="9"/>
      <point x="150" y="9" type="curve" smooth="yes"/>
      <point x="122" y="2"/>
      <point x="78" y="2"/>
      <point x="44" y="6" type="curve"/>
      <point x="36" y="200"/>
      <point x="45" y="473"/>
      <point x="37" y="695" type="curve"/>
      <point x="202" y="739"/>
      <point x="472" y="718"/>
      <point x="484" y="491" type="curve"/>
    </contour>
    <contour>
      <point x="344" y="583" type="curve"/>
      <point x="305" y="610"/>
      <point x="270" y="620"/>
      <point x="199" y="618" type="curve" smooth="yes"/>
      <point x="169" y="617"/>
      <point x="148" y="615"/>
      <point x="132" y="611" type="curve"/>
      <point x="134" y="582"/>
      <point x="132" y="579"/>
      <point x="133" y="479" type="curve" smooth="yes"/>
      <point x="134" y="423"/>
      <point x="135" y="380"/>
      <point x="139" y="353" type="curve"/>
      <point x="216" y="353"/>
      <point x="431" y="350"/>
      <point x="386" y="515" type="curve" smooth="yes"/>
      <point x="377" y="547"/>
      <point x="363" y="571"/>
    </contour>
  </outline>
</glyph>
<glyph name="Q" format="1">
  <advance width="495"/>
  <unicode hex="0051"/>
  <outline>
    <contour>
      <point x="456" y="165" type="curve"/>
      <point x="453" y="139"/>
      <point x="447" y="118"/>
      <point x="404" y="64" type="curve"/>
      <point x="413" y="53"/>
      <point x="421" y="44"/>
      <point x="427" y="34" type="curve" smooth="yes"/>
      <point x="429" y="23"/>
      <point x="418" y="14"/>
      <point x="398" y="1" type="curve" smooth="yes"/>
      <point x="384" y="-8"/>
      <point x="381" y="-17"/>
      <point x="367" y="-2" type="curve" smooth="yes"/>
      <point x="362" y="4"/>
      <point x="346" y="15"/>
      <point x="340" y="24" type="curve"/>
      <point x="324" y="5"/>
      <point x="272" y="-9"/>
      <point x="231" y="-6" type="curve" smooth="yes"/>
      <point x="165" y="-1"/>
      <point x="129" y="17"/>
      <point x="90" y="54" type="curve" smooth="yes"/>
      <point x="23" y="118"/>
      <point x="30" y="209"/>
      <point x="30" y="307" type="curve" smooth="yes"/>
      <point x="30" y="400"/>
      <point x="25" y="522"/>
      <point x="52" y="618" type="curve"/>
      <point x="71" y="674"/>
      <point x="151" y="714"/>
      <point x="253" y="714" type="curve" smooth="yes"/>
      <point x="346" y="714"/>
      <point x="394" y="709"/>
      <point x="439" y="602" type="curve"/>
      <point x="462" y="530"/>
      <point x="468" y="448"/>
      <point x="468" y="368" type="curve" smooth="yes"/>
      <point x="468" y="327"/>
      <point x="468" y="304"/>
      <point x="465" y="264" type="curve" smooth="yes"/>
      <point x="462" y="231"/>
      <point x="464" y="197"/>
    </contour>
    <contour>
      <point x="306" y="176" type="curve" smooth="yes"/>
      <point x="329" y="162"/>
      <point x="330" y="147"/>
      <point x="347" y="130" type="curve"/>
      <point x="363" y="160"/>
      <point x="382" y="194"/>
      <point x="386" y="263" type="curve" smooth="yes"/>
      <point x="390" y="366"/>
      <point x="385" y="441"/>
      <point x="371" y="522" type="curve" smooth="yes"/>
      <point x="357" y="589"/>
      <point x="341" y="617"/>
      <point x="255" y="617" type="curve" smooth="yes"/>
      <point x="129" y="616"/>
      <point x="124" y="585"/>
      <point x="116" y="460" type="curve" smooth="yes"/>
      <point x="113" y="426"/>
      <point x="112" y="393"/>
      <point x="112" y="355" type="curve" smooth="yes"/>
      <point x="112" y="326" type="line" smooth="yes"/>
      <point x="112" y="309"/>
      <point x="110" y="288"/>
      <point x="111" y="262" type="curve" smooth="yes"/>
      <point x="114" y="177"/>
      <point x="121" y="73"/>
      <point x="254" y="73" type="curve" smooth="yes"/>
      <point x="273" y="73"/>
      <point x="293" y="79"/>
      <point x="294" y="86" type="curve"/>
      <point x="284" y="98"/>
      <point x="259" y="126"/>
      <point x="258" y="138" type="curve" smooth="yes"/>
      <point x="260" y="149"/>
      <point x="271" y="152"/>
      <point x="281" y="160" type="curve" smooth="yes"/>
      <point x="289" y="165"/>
      <point x="296" y="174"/>
    </contour>
  </outline>
</glyph>
<glyph name="V" format="1">
  <advance width="440"/>
  <unicode hex="0056"/>
  <outline>
    <contour>
      <point x="445" y="684" type="curve"/>
      <point x="387" y="419"/>
      <point x="334" y="227"/>
      <point x="265" y="1" type="curve"/>
      <point x="257" y="1"/>
      <point x="240" y="-2"/>
      <point x="220" y="-2" type="curve" smooth="yes"/>
      <point x="199" y="-2"/>
      <point x="176" y="-2"/>
      <point x="161" y="4" type="curve"/>
      <point x="83" y="256"/>
      <point x="56" y="417"/>
      <point x="16" y="681" type="curve"/>
      <point x="16" y="682" type="line"/>
      <point x="27" y="695"/>
      <point x="97" y="695"/>
      <point x="113" y="691" type="curve"/>
      <point x="127" y="626"/>
      <point x="149" y="376"/>
      <point x="217" y="143" type="curve"/>
      <point x="265" y="324"/>
      <point x="297" y="498"/>
      <point x="346" y="688" type="curve"/>
      <point x="346" y="689"/>
      <point x="347" y="689"/>
      <point x="347" y="689" type="curve" smooth="yes"/>
      <point x="370" y="686"/>
      <point x="410" y="690"/>
    </contour>
  </outline>
</glyph>
<glyph name="W" format="1">
  <advance width="465"/>
  <unicode hex="0057"/>
  <outline>
    <contour>
      <point x="446" y="696" type="line"/>
      <point x="426" y="465"/>
      <point x="399" y="237"/>
      <point x="380" y="5" type="curve"/>
      <point x="371" y="2"/>
      <point x="359" y="3"/>
      <point x="346" y="3" type="curve" smooth="yes"/>
      <point x="298" y="3" type="line"/>
      <point x="270" y="58"/>
      <point x="260" y="139"/>
      <point x="239" y="219" type="curve"/>
      <point x="238" y="219" type="line"/>
      <point x="214" y="128"/>
      <point x="199" y="32"/>
      <point x="184" y="7" type="curve"/>
      <point x="167" y="4"/>
      <point x="154" y="2"/>
      <point x="135" y="2" type="curve" smooth="yes"/>
      <point x="124" y="2"/>
      <point x="112" y="3"/>
      <point x="97" y="5" type="curve"/>
      <point x="96" y="5" type="line"/>
      <point x="64" y="233"/>
      <point x="27" y="464"/>
      <point x="23" y="695" type="curve"/>
      <point x="23" y="696" type="line"/>
      <point x="38" y="698"/>
      <point x="54" y="699"/>
      <point x="71" y="700" type="curve" smooth="yes"/>
      <point x="89" y="700"/>
      <point x="107" y="699"/>
      <point x="122" y="698" type="curve"/>
      <point x="130" y="622"/>
      <point x="132" y="288"/>
      <point x="165" y="167" type="curve"/>
      <point x="184" y="235"/>
      <point x="187" y="246"/>
      <point x="228" y="435" type="curve" smooth="yes"/>
      <point x="229" y="437"/>
      <point x="229" y="438"/>
      <point x="229" y="439" type="curve"/>
      <point x="249" y="391"/>
      <point x="277" y="270"/>
      <point x="298" y="200" type="curve" smooth="yes"/>
      <point x="302" y="183"/>
      <point x="307" y="170"/>
      <point x="310" y="161" type="curve"/>
      <point x="334" y="417"/>
      <point x="340" y="625"/>
      <point x="346" y="694" type="curve"/>
      <point x="346" y="695" type="line"/>
      <point x="363" y="699"/>
      <point x="379" y="700"/>
      <point x="392" y="700" type="curve" smooth="yes"/>
      <point x="405" y="700"/>
      <point x="423" y="699"/>
      <point x="445" y="697" type="curve"/>
    </contour>
  </outline>
</glyph>
<glyph name="X" format="1">
  <advance width="436"/>
  <unicode hex="0058"/>
  <outline>
    <contour>
      <point x="439" y="698" type="curve"/>
      <point x="409" y="599"/>
      <point x="392" y="562"/>
      <point x="305" y="353" type="curve"/>
      <point x="362" y="206"/>
      <point x="401" y="88"/>
      <point x="424" y="2" type="curve"/>
      <point x="415" y="2"/>
      <point x="407" y="1"/>
      <point x="399" y="1" type="curve" smooth="yes"/>
      <point x="389" y="1"/>
      <point x="379" y="0"/>
      <point x="367" y="0" type="curve" smooth="yes"/>
      <point x="355" y="0"/>
      <point x="344" y="0"/>
      <point x="334" y="2" type="curve"/>
      <point x="284" y="123"/>
      <point x="259" y="232"/>
      <point x="225" y="284" type="curve"/>
      <point x="225" y="285" type="line"/>
      <point x="151" y="124"/>
      <point x="140" y="79"/>
      <point x="101" y="2" type="curve"/>
      <point x="94" y="2"/>
      <point x="83" y="1"/>
      <point x="70" y="1" type="curve" smooth="yes"/>
      <point x="50" y="0"/>
      <point x="26" y="-1"/>
      <point x="7" y="5" type="curve"/>
      <point x="31" y="89"/>
      <point x="62" y="137"/>
      <point x="148" y="357" type="curve"/>
      <point x="114" y="450"/>
      <point x="60" y="560"/>
      <point x="-1" y="689" type="curve"/>
      <point x="34" y="690"/>
      <point x="59" y="691"/>
      <point x="75" y="691" type="curve" smooth="yes"/>
      <point x="98" y="691"/>
      <point x="105" y="691"/>
      <point x="108" y="686" type="curve"/>
      <point x="119" y="647"/>
      <point x="175" y="517"/>
      <point x="225" y="434" type="curve"/>
      <point x="269" y="516"/>
      <point x="309" y="623"/>
      <point x="339" y="696" type="curve"/>
      <point x="339" y="697" type="line"/>
      <point x="362" y="699"/>
      <point x="391" y="700"/>
      <point x="439" y="700" type="curve"/>
      <point x="440" y="700" type="line"/>
      <point x="440" y="699"/>
      <point x="439" y="699"/>
    </contour>
  </outline>
</glyph>
<glyph name="bracketleft" format="1">
  <advance width="321"/>
  <unicode hex="005B"/>
  <outline>
    <contour>
      <point x="197" y="0" type="curve" smooth="yes"/>
      <point x="163" y="0"/>
      <point x="72" y="1"/>
      <point x="43" y="-2" type="curve"/>
      <point x="43" y="2" type="line" smooth="yes"/>
      <point x="46" y="227"/>
      <point x="37" y="476"/>
      <point x="53" y="704" type="curve"/>
      <point x="53" y="705" type="line"/>
      <point x="138" y="716"/>
      <point x="219" y="698"/>
      <point x="297" y="706" type="curve"/>
      <point x="296" y="676"/>
      <point x="296" y="644"/>
      <point x="292" y="623" type="curve"/>
      <point x="289" y="623" type="line" smooth="yes"/>
      <point x="259" y="625"/>
      <point x="173" y="620"/>
      <point x="142" y="622" type="curve"/>
      <point x="142" y="622" type="line"/>
      <point x="136" y="522"/>
      <point x="134" y="445"/>
      <point x="135" y="394" type="curve" smooth="yes"/>
      <point x="136" y="307"/>
      <point x="142" y="210"/>
      <point x="142" y="102" type="curve"/>
      <point x="142" y="101" type="line"/>
      <point x="234" y="92"/>
      <point x="253" y="94"/>
      <point x="291" y="91" type="curve"/>
      <point x="294" y="64"/>
      <point x="296" y="33"/>
      <point x="294" y="1" type="curve"/>
      <point x="262" y="1"/>
      <point x="229" y="0"/>
    </contour>
  </outline>
</glyph>
<glyph name="bracketright" format="1">
  <advance width="321"/>
  <unicode hex="005D"/>
  <outline>
    <contour>
      <point x="27" y="1" type="curve"/>
      <point x="59" y="1"/>
      <point x="92" y="0"/>
      <point x="124" y="0" type="curve" smooth="yes"/>
      <point x="158" y="0"/>
      <point x="249" y="1"/>
      <point x="278" y="-2" type="curve"/>
      <point x="278" y="2" type="line" smooth="yes"/>
      <point x="274" y="227"/>
      <point x="284" y="476"/>
      <point x="268" y="704" type="curve"/>
      <point x="268" y="705" type="line"/>
      <point x="183" y="716"/>
      <point x="102" y="698"/>
      <point x="24" y="706" type="curve"/>
      <point x="24" y="676"/>
      <point x="24" y="644"/>
      <point x="29" y="623" type="curve"/>
      <point x="32" y="623" type="line" smooth="yes"/>
      <point x="59" y="625"/>
      <point x="104" y="620"/>
      <point x="151" y="621" type="curve"/>
      <point x="163" y="621"/>
      <point x="172" y="621"/>
      <point x="178" y="622" type="curve"/>
      <point x="179" y="622" type="line"/>
      <point x="185" y="519"/>
      <point x="186" y="439"/>
      <point x="185" y="386" type="curve" smooth="yes"/>
      <point x="184" y="301"/>
      <point x="179" y="208"/>
      <point x="179" y="102" type="curve"/>
      <point x="179" y="101" type="line"/>
      <point x="87" y="92"/>
      <point x="67" y="94"/>
      <point x="29" y="91" type="curve"/>
      <point x="26" y="64"/>
      <point x="25" y="33"/>
    </contour>
  </outline>
</glyph>
<glyph name="asciicircum" format="1">
  <advance width="440"/>
  <unicode hex="005E"/>
  <outline>
    <contour>
      <point x="430" y="479" type="line"/>
      <point x="426" y="481"/>
      <point x="384" y="469"/>
      <point x="327" y="473" type="curve"/>
      <point x="321" y="473"/>
      <point x="263" y="530"/>
      <point x="253" y="540" type="curve" smooth="yes"/>
      <point x="241" y="555"/>
      <point x="227" y="570"/>
      <point x="219" y="574" type="curve"/>
      <point x="215" y="573"/>
      <point x="136" y="480"/>
      <point x="118" y="475" type="curve" smooth="yes"/>
      <point x="103" y="473"/>
      <point x="98" y="474"/>
      <point x="77" y="475" type="curve" smooth="yes"/>
      <point x="65" y="475"/>
      <point x="43" y="476"/>
      <point x="11" y="478" type="curve"/>
      <point x="81" y="565"/>
      <point x="141" y="616"/>
      <point x="220" y="689" type="curve"/>
    </contour>
  </outline>
</glyph>
<glyph name="underscore" format="1">
  <advance width="650"/>
  <unicode hex="005F"/>
  <outline>
    <contour>
      <point x="41" y="-68" type="curve"/>
      <point x="64" y="-68"/>
      <point x="587" y="-63"/>
      <point x="610" y="-63" type="curve"/>
      <point x="611" y="-63" type="line"/>
      <point x="605" y="-103"/>
      <point x="607" y="-109"/>
      <point x="607" y="-150" type="curve"/>
      <point x="561" y="-150"/>
      <point x="47" y="-148"/>
      <point x="43" y="-148" type="curve"/>
      <point x="43" y="-142"/>
      <point x="41" y="-93"/>
    </contour>
  </outline>
</glyph>
<glyph name="grave" format="1">
  <advance width="255"/>
  <unicode hex="0060"/>
  <outline>
    <contour>
      <point x="77" y="685" type="curve"/>
      <point x="117" y="649"/>
      <point x="190" y="570"/>
      <point x="237" y="527" type="curve"/>
      <point x="223" y="523"/>
      <point x="177" y="519"/>
      <point x="137" y="524" type="curve"/>
      <point x="125" y="543"/>
      <point x="56" y="595"/>
      <point x="25" y="636" type="curve"/>
      <point x="25" y="637" type="line"/>
      <point x="43" y="653"/>
      <point x="60" y="669"/>
    </contour>
  </outline>
</glyph>
<glyph name="a" format="1">
  <advance width="476"/>
  <unicode hex="0061"/>
  <outline>
    <contour>
      <point x="439" y="498" type="curve"/>
      <point x="440" y="490"/>
      <point x="441" y="482"/>
      <point x="441" y="474" type="curve" smooth="yes"/>
      <point x="441" y="464" type="line" smooth="yes"/>
      <point x="437" y="320"/>
      <point x="448" y="183"/>
      <point x="439" y="40" type="curve"/>
      <point x="439" y="23"/>
      <point x="442" y="2"/>
      <point x="426" y="-1" type="curve"/>
      <point x="409" y="-1" type="line" smooth="yes"/>
      <point x="399" y="-1"/>
      <point x="387" y="0"/>
      <point x="377" y="0" type="curve" smooth="yes"/>
      <point x="367" y="0"/>
      <point x="359" y="-2"/>
      <point x="352" y="-2" type="curve"/>
      <point x="345" y="0"/>
      <point x="342" y="9"/>
      <point x="342" y="20" type="curve" smooth="yes"/>
      <point x="341" y="33"/>
      <point x="344" y="44"/>
      <point x="344" y="55" type="curve"/>
      <point x="307" y="5"/>
      <point x="210" y="-2"/>
      <point x="166" y="-2" type="curve" smooth="yes"/>
      <point x="63" y="-2"/>
      <point x="19" y="159"/>
      <point x="19" y="266" type="curve" smooth="yes"/>
      <point x="19" y="399"/>
      <point x="93" y="494"/>
      <point x="187" y="497" type="curve"/>
      <point x="254" y="500"/>
      <point x="313" y="497"/>
      <point x="337" y="449" type="curve"/>
      <point x="338" y="468"/>
      <point x="341" y="484"/>
      <point x="341" y="500" type="curve" smooth="yes"/>
      <point x="341" y="501"/>
      <point x="347" y="502"/>
      <point x="354" y="502" type="curve" smooth="yes"/>
      <point x="383" y="503"/>
      <point x="396" y="501"/>
    </contour>
    <contour>
      <point x="111" y="320" type="curve"/>
      <point x="104" y="295"/>
      <point x="103" y="267"/>
      <point x="103" y="242" type="curve" smooth="yes"/>
      <point x="106" y="148"/>
      <point x="140" y="83"/>
      <point x="233" y="88" type="curve" smooth="yes"/>
      <point x="338" y="87"/>
      <point x="341" y="145"/>
      <point x="341" y="256" type="curve" smooth="yes"/>
      <point x="341" y="391"/>
      <point x="332" y="406"/>
      <point x="242" y="412" type="curve" smooth="yes"/>
      <point x="168" y="414"/>
      <point x="121" y="366"/>
    </contour>
  </outline>
</glyph>
<glyph name="b" format="1">
  <advance width="464"/>
  <unicode hex="0062"/>
  <outline>
    <contour>
      <point x="132" y="645" type="curve" smooth="yes"/>
      <point x="133" y="621"/>
      <point x="133" y="608"/>
      <point x="134" y="594" type="curve" smooth="yes"/>
      <point x="134" y="574"/>
      <point x="134" y="539"/>
      <point x="133" y="450" type="curve"/>
      <point x="135" y="462"/>
      <point x="171" y="500"/>
      <point x="227" y="502" type="curve" smooth="yes"/>
      <point x="284" y="504"/>
      <point x="326" y="501"/>
      <point x="362" y="488" type="curve" smooth="yes"/>
      <point x="421" y="467"/>
      <point x="443" y="378"/>
      <point x="443" y="285" type="curve"/>
      <point x="438" y="150"/>
      <point x="428" y="14"/>
      <point x="275" y="3" type="curve" smooth="yes"/>
      <point x="253" y="0"/>
      <point x="229" y="0"/>
      <point x="206" y="8" type="curve" smooth="yes"/>
      <point x="194" y="12"/>
      <point x="184" y="19"/>
      <point x="174" y="28" type="curve" smooth="yes"/>
      <point x="154" y="39"/>
      <point x="139" y="52"/>
      <point x="130" y="74" type="curve"/>
      <point x="134" y="40"/>
      <point x="131" y="20"/>
      <point x="131" y="7" type="curve" smooth="yes"/>
      <point x="131" y="4"/>
      <point x="131" y="1"/>
      <point x="130" y="0" type="curve"/>
      <point x="105" y="-2"/>
      <point x="69" y="1"/>
      <point x="35" y="1" type="curve"/>
      <point x="30" y="193"/>
      <point x="41" y="416"/>
      <point x="41" y="638" type="curve" smooth="yes"/>
      <point x="41" y="704" type="line"/>
      <point x="73" y="710"/>
      <point x="130" y="705"/>
      <point x="130" y="703" type="curve" smooth="yes"/>
      <point x="130" y="695" type="line" smooth="yes"/>
      <point x="131" y="667"/>
      <point x="132" y="670"/>
    </contour>
    <contour>
      <point x="358" y="294" type="curve"/>
      <point x="352" y="353"/>
      <point x="347" y="419"/>
      <point x="225" y="419" type="curve" smooth="yes"/>
      <point x="145" y="419"/>
      <point x="130" y="358"/>
      <point x="130" y="256" type="curve" smooth="yes"/>
      <point x="130" y="174"/>
      <point x="156" y="84"/>
      <point x="237" y="84" type="curve" smooth="yes"/>
      <point x="319" y="84"/>
      <point x="362" y="139"/>
      <point x="362" y="244" type="curve" smooth="yes"/>
      <point x="362" y="260"/>
      <point x="362" y="277"/>
    </contour>
  </outline>
</glyph>
<glyph name="c" format="1">
  <advance width="442"/>
  <unicode hex="0063"/>
  <outline>
    <contour>
      <point x="421" y="192" type="curve"/>
      <point x="416" y="123"/>
      <point x="411" y="53"/>
      <point x="393" y="35" type="curve"/>
      <point x="347" y="-30"/>
      <point x="238" y="-9"/>
      <point x="161" y="-9" type="curve"/>
      <point x="35" y="12"/>
      <point x="28" y="119"/>
      <point x="24" y="241" type="curve" smooth="yes"/>
      <point x="24" y="269"/>
      <point x="24" y="297"/>
      <point x="23" y="323" type="curve"/>
      <point x="23" y="367"/>
      <point x="31" y="408"/>
      <point x="45" y="454" type="curve"/>
      <point x="64" y="495"/>
      <point x="132" y="512"/>
      <point x="195" y="512" type="curve"/>
      <point x="222" y="509"/>
      <point x="245" y="513"/>
      <point x="273" y="511" type="curve" smooth="yes"/>
      <point x="316" y="507"/>
      <point x="356" y="496"/>
      <point x="384" y="469" type="curve"/>
      <point x="422" y="442"/>
      <point x="420" y="377"/>
      <point x="423" y="289" type="curve"/>
      <point x="397" y="283"/>
      <point x="365" y="287"/>
      <point x="340" y="291" type="curve"/>
      <point x="338" y="409"/>
      <point x="289" y="420"/>
      <point x="198" y="412" type="curve" smooth="yes"/>
      <point x="157" y="410"/>
      <point x="126" y="408"/>
      <point x="116" y="342" type="curve" smooth="yes"/>
      <point x="111" y="305"/>
      <point x="113" y="254"/>
      <point x="113" y="187" type="curve" smooth="yes"/>
      <point x="111" y="160"/>
      <point x="118" y="86"/>
      <point x="201" y="78" type="curve" smooth="yes"/>
      <point x="328" y="65"/>
      <point x="333" y="142"/>
      <point x="336" y="196" type="curve"/>
      <point x="359" y="191"/>
      <point x="399" y="198"/>
    </contour>
  </outline>
</glyph>
<glyph name="d" format="1">
  <advance width="463"/>
  <unicode hex="0064"/>
  <outline>
    <contour>
      <point x="336" y="701" type="line"/>
      <point x="337" y="705"/>
      <point x="385" y="709"/>
      <point x="423" y="704" type="curve"/>
      <point x="423" y="638" type="line" smooth="yes"/>
      <point x="423" y="415"/>
      <point x="434" y="193"/>
      <point x="429" y="1" type="curve"/>
      <point x="402" y="-1"/>
      <point x="366" y="-3"/>
      <point x="336" y="1" type="curve"/>
      <point x="333" y="4"/>
      <point x="339" y="33"/>
      <point x="330" y="62" type="curve"/>
      <point x="322" y="43"/>
      <point x="298" y="16"/>
      <point x="273" y="11" type="curve" smooth="yes"/>
      <point x="242" y="1"/>
      <point x="214" y="0"/>
      <point x="189" y="3" type="curve" smooth="yes"/>
      <point x="38" y="14"/>
      <point x="24" y="150"/>
      <point x="21" y="285" type="curve"/>
      <point x="21" y="385"/>
      <point x="42" y="472"/>
      <point x="122" y="493" type="curve" smooth="yes"/>
      <point x="169" y="506"/>
      <point x="226" y="506"/>
      <point x="265" y="498" type="curve" smooth="yes"/>
      <point x="310" y="492"/>
      <point x="335" y="453"/>
      <point x="336" y="446" type="curve"/>
      <point x="335" y="556"/>
      <point x="334" y="597"/>
      <point x="335" y="610" type="curve" smooth="yes"/>
      <point x="336" y="621"/>
      <point x="334" y="664"/>
      <point x="336" y="690" type="curve" smooth="yes"/>
    </contour>
    <contour>
      <point x="104" y="320" type="curve"/>
      <point x="101" y="298"/>
      <point x="101" y="276"/>
      <point x="101" y="254" type="curve" smooth="yes"/>
      <point x="106" y="119"/>
      <point x="146" y="86"/>
      <point x="225" y="86" type="curve" smooth="yes"/>
      <point x="326" y="86"/>
      <point x="335" y="163"/>
      <point x="335" y="265" type="curve" smooth="yes"/>
      <point x="334" y="359"/>
      <point x="330" y="423"/>
      <point x="239" y="428" type="curve" smooth="yes"/>
      <point x="156" y="434"/>
      <point x="110" y="403"/>
    </contour>
  </outline>
</glyph>
<glyph name="g" format="1">
  <advance width="467"/>
  <unicode hex="0067"/>
  <outline>
    <contour>
      <point x="100" y="226" type="line"/>
      <point x="97" y="173"/>
      <point x="110" y="79"/>
      <point x="196" y="75" type="curve" smooth="yes"/>
      <point x="294" y="69"/>
      <point x="336" y="78"/>
      <point x="341" y="167" type="curve"/>
      <point x="341" y="200"/>
      <point x="341" y="238"/>
      <point x="340" y="281" type="curve" smooth="yes"/>
      <point x="340" y="362"/>
      <point x="319" y="393"/>
      <point x="295" y="406" type="curve" smooth="yes"/>
      <point x="269" y="420"/>
      <point x="233" y="421"/>
      <point x="198" y="415" type="curve" smooth="yes"/>
      <point x="117" y="401"/>
      <point x="100" y="324"/>
      <point x="100" y="238" type="curve" smooth="yes"/>
    </contour>
    <contour>
      <point x="304" y="-204" type="curve"/>
      <point x="255" y="-207"/>
      <point x="227" y="-206"/>
      <point x="200" y="-204" type="curve" smooth="yes"/>
      <point x="108" y="-197"/>
      <point x="32" y="-133"/>
      <point x="45" y="-42" type="curve"/>
      <point x="53" y="-39"/>
      <point x="130" y="-35"/>
      <point x="133" y="-39" type="curve" smooth="yes"/>
      <point x="138" y="-46"/>
      <point x="117" y="-114"/>
      <point x="197" y="-126" type="curve"/>
      <point x="330" y="-130"/>
      <point x="343" y="-123"/>
      <point x="339" y="-72" type="curve"/>
      <point x="340" y="21"/>
      <point x="338" y="-11"/>
      <point x="341" y="26" type="curve"/>
      <point x="313" y="-6"/>
      <point x="282" y="-1"/>
      <point x="180" y="-2" type="curve"/>
      <point x="128" y="-2"/>
      <point x="74" y="11"/>
      <point x="50" y="61" type="curve" smooth="yes"/>
      <point x="31" y="97"/>
      <point x="24" y="137"/>
      <point x="22" y="178" type="curve"/>
      <point x="22" y="303"/>
      <point x="18" y="486"/>
      <point x="189" y="497" type="curve" smooth="yes"/>
      <point x="294" y="500"/>
      <point x="319" y="484"/>
      <point x="335" y="447" type="curve"/>
      <point x="340" y="467"/>
      <point x="336" y="489"/>
      <point x="338" y="498" type="curve"/>
      <point x="368" y="501"/>
      <point x="398" y="499"/>
      <point x="429" y="499" type="curve"/>
      <point x="434" y="332"/>
      <point x="436" y="149"/>
      <point x="428" y="-43" type="curve" smooth="yes"/>
      <point x="427" y="-75"/>
      <point x="429" y="-107"/>
      <point x="419" y="-130" type="curve" smooth="yes"/>
      <point x="390" y="-196"/>
      <point x="337" y="-201"/>
    </contour>
  </outline>
</glyph>
<glyph name="j" format="1">
  <advance width="204"/>
  <unicode hex="006A"/>
  <outline>
    <contour>
      <point x="81" y="498" type="curve"/>
      <point x="112" y="496"/>
      <point x="145" y="503"/>
      <point x="167" y="500" type="curve"/>
      <point x="175" y="435"/>
      <point x="164" y="312"/>
      <point x="169" y="263" type="curve"/>
      <point x="169" y="135"/>
      <point x="181" y="34"/>
      <point x="154" y="-99" type="curve"/>
      <point x="120" y="-180"/>
      <point x="-14" y="-192"/>
      <point x="-120" y="-187" type="curve"/>
      <point x="-128" y="-155"/>
      <point x="-123" y="-119"/>
      <point x="-120" y="-96" type="curve"/>
      <point x="-94" y="-98"/>
      <point x="11" y="-98"/>
      <point x="58" y="-63" type="curve"/>
      <point x="94" y="7"/>
      <point x="74" y="211"/>
      <point x="82" y="362" type="curve"/>
      <point x="82" y="407"/>
      <point x="82" y="453"/>
    </contour>
    <contour>
      <point x="165" y="718" type="curve"/>
      <point x="165" y="701"/>
      <point x="168" y="630"/>
      <point x="168" y="590" type="curve"/>
      <point x="159" y="577"/>
      <point x="116" y="583"/>
      <point x="77" y="584" type="curve"/>
      <point x="77" y="620"/>
      <point x="72" y="659"/>
      <point x="73" y="720" type="curve"/>
      <point x="104" y="719"/>
      <point x="134" y="718"/>
    </contour>
  </outline>
</glyph>
<glyph name="k" format="1">
  <advance width="435"/>
  <unicode hex="006B"/>
  <outline>
    <contour>
      <point x="125" y="455" type="curve" smooth="yes"/>
      <point x="125" y="410"/>
      <point x="123" y="366"/>
      <point x="126" y="343" type="curve"/>
      <point x="237" y="425"/>
      <point x="276" y="474"/>
      <point x="325" y="517" type="curve"/>
      <point x="358" y="510"/>
      <point x="410" y="516"/>
      <point x="434" y="514" type="curve"/>
      <point x="311" y="408"/>
      <point x="316" y="394"/>
      <point x="191" y="289" type="curve"/>
      <point x="326" y="150"/>
      <point x="356" y="106"/>
      <point x="443" y="0" type="curve"/>
      <point x="414" y="0"/>
      <point x="370" y="-7"/>
      <point x="334" y="-2" type="curve"/>
      <point x="276" y="65"/>
      <point x="259" y="106"/>
      <point x="126" y="226" type="curve"/>
      <point x="126" y="198"/>
      <point x="129" y="120"/>
      <point x="128" y="84" type="curve" smooth="yes"/>
      <point x="128" y="55"/>
      <point x="127" y="33"/>
      <point x="127" y="1" type="curve"/>
      <point x="104" y="2"/>
      <point x="65" y="-3"/>
      <point x="38" y="0" type="curve"/>
      <point x="29" y="248"/>
      <point x="39" y="483"/>
      <point x="38" y="726" type="curve"/>
      <point x="63" y="726"/>
      <point x="101" y="729"/>
      <point x="126" y="727" type="curve"/>
      <point x="126" y="544" type="line" smooth="yes"/>
      <point x="126" y="521"/>
      <point x="126" y="491"/>
    </contour>
  </outline>
</glyph>
<glyph name="m" format="1">
  <advance width="684"/>
  <unicode hex="006D"/>
  <outline>
    <contour>
      <point x="129" y="443" type="curve"/>
      <point x="150" y="464"/>
      <point x="178" y="482"/>
      <point x="217" y="488" type="curve" smooth="yes"/>
      <point x="265" y="498"/>
      <point x="313" y="498"/>
      <point x="347" y="478" type="curve" smooth="yes"/>
      <point x="358" y="473"/>
      <point x="370" y="465"/>
      <point x="376" y="450" type="curve"/>
      <point x="397" y="462"/>
      <point x="418" y="493"/>
      <point x="499" y="495" type="curve" smooth="yes"/>
      <point x="564" y="497"/>
      <point x="597" y="491"/>
      <point x="629" y="464" type="curve" smooth="yes"/>
      <point x="671" y="426"/>
      <point x="641" y="139"/>
      <point x="650" y="2" type="curve"/>
      <point x="618" y="-3"/>
      <point x="595" y="-3"/>
      <point x="565" y="-2" type="curve"/>
      <point x="563" y="25"/>
      <point x="563" y="61"/>
      <point x="563" y="97" type="curve" smooth="yes"/>
      <point x="564" y="145"/>
      <point x="566" y="178"/>
      <point x="565" y="259" type="curve" smooth="yes"/>
      <point x="563" y="282"/>
      <point x="563" y="347"/>
      <point x="547" y="372" type="curve" smooth="yes"/>
      <point x="543" y="385"/>
      <point x="529" y="393"/>
      <point x="508" y="395" type="curve" smooth="yes"/>
      <point x="460" y="403"/>
      <point x="414" y="392"/>
      <point x="399" y="358" type="curve"/>
      <point x="397" y="339"/>
      <point x="397" y="318"/>
      <point x="398" y="295" type="curve" smooth="yes"/>
      <point x="401" y="206"/>
      <point x="391" y="77"/>
      <point x="396" y="1" type="curve"/>
      <point x="365" y="-3"/>
      <point x="341" y="-2"/>
      <point x="308" y="-2" type="curve"/>
      <point x="305" y="32"/>
      <point x="306" y="77"/>
      <point x="306" y="122" type="curve" smooth="yes"/>
      <point x="307" y="174"/>
      <point x="308" y="250"/>
      <point x="303" y="318" type="curve" smooth="yes"/>
      <point x="303" y="373"/>
      <point x="288" y="389"/>
      <point x="239" y="391" type="curve"/>
      <point x="150" y="392"/>
      <point x="127" y="329"/>
      <point x="123" y="272" type="curve" smooth="yes"/>
      <point x="120" y="225"/>
      <point x="123" y="180"/>
      <point x="124" y="138" type="curve" smooth="yes"/>
      <point x="125" y="93"/>
      <point x="125" y="49"/>
      <point x="122" y="4" type="curve" smooth="yes"/>
      <point x="122" y="0" type="line"/>
      <point x="92" y="-6"/>
      <point x="77" y="0"/>
      <point x="37" y="-3" type="curve"/>
      <point x="37" y="161"/>
      <point x="31" y="322"/>
      <point x="36" y="498" type="curve"/>
      <point x="58" y="496"/>
      <point x="68" y="496"/>
      <point x="89" y="497" type="curve"/>
      <point x="99" y="497"/>
      <point x="127" y="502"/>
      <point x="127" y="496" type="curve"/>
      <point x="130" y="473"/>
      <point x="128" y="462"/>
    </contour>
  </outline>
</glyph>
<glyph name="n" format="1">
  <advance width="450"/>
  <unicode hex="006E"/>
  <outline>
    <contour>
      <point x="133" y="444" type="curve"/>
      <point x="169" y="465"/>
      <point x="237" y="495"/>
      <point x="305" y="495" type="curve" smooth="yes"/>
      <point x="338" y="494"/>
      <point x="370" y="485"/>
      <point x="395" y="464" type="curve" smooth="yes"/>
      <point x="437" y="426"/>
      <point x="408" y="140"/>
      <point x="416" y="2" type="curve"/>
      <point x="388" y="-2"/>
      <point x="364" y="-1"/>
      <point x="328" y="-1" type="curve"/>
      <point x="325" y="26"/>
      <point x="326" y="62"/>
      <point x="326" y="98" type="curve" smooth="yes"/>
      <point x="326" y="143"/>
      <point x="329" y="208"/>
      <point x="328" y="255" type="curve" smooth="yes"/>
      <point x="326" y="285"/>
      <point x="325" y="327"/>
      <point x="314" y="358" type="curve" smooth="yes"/>
      <point x="312" y="382"/>
      <point x="294" y="392"/>
      <point x="265" y="390" type="curve" smooth="yes"/>
      <point x="177" y="389"/>
      <point x="132" y="371"/>
      <point x="127" y="306" type="curve" smooth="yes"/>
      <point x="126" y="287"/>
      <point x="125" y="262"/>
      <point x="126" y="232" type="curve" smooth="yes"/>
      <point x="126" y="195"/>
      <point x="127" y="163"/>
      <point x="128" y="137" type="curve" smooth="yes"/>
      <point x="131" y="92"/>
      <point x="130" y="49"/>
      <point x="127" y="5" type="curve" smooth="yes"/>
      <point x="127" y="1" type="line"/>
      <point x="94" y="-6"/>
      <point x="78" y="0"/>
      <point x="38" y="-3" type="curve"/>
      <point x="38" y="161"/>
      <point x="32" y="322"/>
      <point x="37" y="498" type="curve"/>
      <point x="60" y="496"/>
      <point x="70" y="496"/>
      <point x="91" y="498" type="curve"/>
      <point x="102" y="498"/>
      <point x="131" y="503"/>
      <point x="131" y="497" type="curve"/>
      <point x="134" y="474"/>
      <point x="132" y="463"/>
    </contour>
  </outline>
</glyph>
<glyph name="p" format="1">
  <advance width="464"/>
  <unicode hex="0070"/>
  <outline>
    <contour>
      <point x="126" y="-202" type="line"/>
      <point x="126" y="-207"/>
      <point x="73" y="-210"/>
      <point x="41" y="-204" type="curve"/>
      <point x="41" y="-138" type="line" smooth="yes"/>
      <point x="41" y="84"/>
      <point x="30" y="307"/>
      <point x="35" y="499" type="curve"/>
      <point x="66" y="499"/>
      <point x="102" y="501"/>
      <point x="129" y="499" type="curve"/>
      <point x="131" y="497"/>
      <point x="130" y="491"/>
      <point x="131" y="475" type="curve" smooth="yes"/>
      <point x="131" y="467"/>
      <point x="132" y="462"/>
      <point x="131" y="452" type="curve"/>
      <point x="132" y="446"/>
      <point x="136" y="445"/>
      <point x="141" y="455" type="curve" smooth="yes"/>
      <point x="172" y="496"/>
      <point x="239" y="501"/>
      <point x="275" y="497" type="curve"/>
      <point x="422" y="486"/>
      <point x="440" y="359"/>
      <point x="443" y="215" type="curve"/>
      <point x="443" y="122"/>
      <point x="421" y="33"/>
      <point x="362" y="12" type="curve" smooth="yes"/>
      <point x="344" y="5"/>
      <point x="323" y="1"/>
      <point x="302" y="-1" type="curve" smooth="yes"/>
      <point x="232" y="-7"/>
      <point x="132" y="7"/>
      <point x="129" y="26" type="curve"/>
      <point x="133" y="-162"/>
      <point x="130" y="-112"/>
      <point x="126" y="-191" type="curve" smooth="yes"/>
    </contour>
    <contour>
      <point x="359" y="154" type="curve"/>
      <point x="366" y="188"/>
      <point x="368" y="216"/>
      <point x="367" y="237" type="curve" smooth="yes"/>
      <point x="365" y="314"/>
      <point x="345" y="426"/>
      <point x="229" y="417" type="curve" smooth="yes"/>
      <point x="129" y="408"/>
      <point x="124" y="340"/>
      <point x="124" y="227" type="curve" smooth="yes"/>
      <point x="124" y="92"/>
      <point x="134" y="75"/>
      <point x="217" y="75" type="curve" smooth="yes"/>
      <point x="297" y="75"/>
      <point x="336" y="78"/>
    </contour>
  </outline>
</glyph>
<glyph name="q" format="1">
  <advance width="463"/>
  <unicode hex="0071"/>
  <outline>
    <contour>
      <point x="104" y="154" type="curve"/>
      <point x="97" y="188"/>
      <point x="95" y="216"/>
      <point x="96" y="237" type="curve" smooth="yes"/>
      <point x="99" y="318"/>
      <point x="119" y="426"/>
      <point x="234" y="417" type="curve" smooth="yes"/>
      <point x="334" y="408"/>
      <point x="339" y="340"/>
      <point x="339" y="227" type="curve" smooth="yes"/>
      <point x="339" y="92"/>
      <point x="328" y="75"/>
      <point x="246" y="75" type="curve" smooth="yes"/>
      <point x="165" y="75"/>
      <point x="127" y="77"/>
    </contour>
    <contour>
      <point x="337" y="-191" type="curve"/>
      <point x="337" y="-202" type="line" smooth="yes"/>
      <point x="337" y="-207"/>
      <point x="390" y="-210"/>
      <point x="422" y="-204" type="curve"/>
      <point x="422" y="-138" type="line" smooth="yes"/>
      <point x="422" y="84"/>
      <point x="433" y="307"/>
      <point x="428" y="499" type="curve"/>
      <point x="397" y="499"/>
      <point x="361" y="501"/>
      <point x="334" y="499" type="curve"/>
      <point x="332" y="497"/>
      <point x="333" y="491"/>
      <point x="332" y="475" type="curve" smooth="yes"/>
      <point x="332" y="467"/>
      <point x="331" y="462"/>
      <point x="331" y="452" type="curve"/>
      <point x="328" y="459"/>
      <point x="306" y="474"/>
      <point x="287" y="483" type="curve" smooth="yes"/>
      <point x="254" y="499"/>
      <point x="216" y="501"/>
      <point x="188" y="497" type="curve"/>
      <point x="44" y="487"/>
      <point x="20" y="360"/>
      <point x="20" y="215" type="curve" smooth="yes"/>
      <point x="20" y="122"/>
      <point x="42" y="33"/>
      <point x="101" y="12" type="curve" smooth="yes"/>
      <point x="119" y="5"/>
      <point x="140" y="1"/>
      <point x="161" y="-1" type="curve" smooth="yes"/>
      <point x="233" y="-7"/>
      <point x="331" y="7"/>
      <point x="334" y="26" type="curve"/>
      <point x="330" y="-162"/>
      <point x="333" y="-112"/>
    </contour>
  </outline>
</glyph>
<glyph name="r" format="1">
  <advance width="339"/>
  <unicode hex="0072"/>
  <outline>
    <contour>
      <point x="128" y="463" type="curve"/>
      <point x="133" y="466"/>
      <point x="156" y="476"/>
      <point x="175" y="482" type="curve" smooth="yes"/>
      <point x="226" y="499"/>
      <point x="313" y="499"/>
      <point x="313" y="495" type="curve" smooth="yes"/>
      <point x="313" y="441"/>
      <point x="311" y="411"/>
      <point x="313" y="382" type="curve"/>
      <point x="301" y="387"/>
      <point x="291" y="390"/>
      <point x="279" y="393" type="curve"/>
      <point x="233" y="402"/>
      <point x="205" y="398"/>
      <point x="170" y="390" type="curve" smooth="yes"/>
      <point x="135" y="381"/>
      <point x="122" y="370"/>
      <point x="123" y="316" type="curve" smooth="yes"/>
      <point x="126" y="213"/>
      <point x="127" y="112"/>
      <point x="127" y="5" type="curve" smooth="yes"/>
      <point x="127" y="1" type="line"/>
      <point x="98" y="-7"/>
      <point x="79" y="-1"/>
      <point x="38" y="-3" type="curve"/>
      <point x="38" y="161"/>
      <point x="32" y="322"/>
      <point x="37" y="498" type="curve"/>
      <point x="57" y="496"/>
      <point x="127" y="501"/>
      <point x="127" y="497" type="curve" smooth="yes"/>
      <point x="127" y="475"/>
      <point x="128" y="481"/>
    </contour>
  </outline>
</glyph>
<glyph name="s" format="1">
  <advance width="450"/>
  <unicode hex="0073"/>
  <outline>
    <contour>
      <point x="332" y="366" type="curve"/>
      <point x="331" y="370"/>
      <point x="339" y="433"/>
      <point x="274" y="441" type="curve" smooth="yes"/>
      <point x="222" y="447"/>
      <point x="169" y="440"/>
      <point x="151" y="428" type="curve"/>
      <point x="125" y="407"/>
      <point x="119" y="357"/>
      <point x="128" y="343" type="curve"/>
      <point x="138" y="322"/>
      <point x="151" y="314"/>
      <point x="157" y="311" type="curve"/>
      <point x="169" y="302"/>
      <point x="234" y="284"/>
      <point x="273" y="283" type="curve" smooth="yes"/>
      <point x="329" y="282"/>
      <point x="372" y="265"/>
      <point x="395" y="239" type="curve"/>
      <point x="433" y="192"/>
      <point x="440" y="147"/>
      <point x="415" y="74" type="curve"/>
      <point x="384" y="9"/>
      <point x="313" y="-17"/>
      <point x="236" y="-16" type="curve"/>
      <point x="102" y="-21"/>
      <point x="11" y="45"/>
      <point x="11" y="152" type="curve" smooth="yes"/>
      <point x="11" y="157" type="line"/>
      <point x="29" y="159"/>
      <point x="102" y="160"/>
      <point x="106" y="156" type="curve" smooth="yes"/>
      <point x="115" y="147"/>
      <point x="115" y="74"/>
      <point x="196" y="68" type="curve"/>
      <point x="251" y="64"/>
      <point x="259" y="66"/>
      <point x="288" y="80" type="curve" smooth="yes"/>
      <point x="317" y="93"/>
      <point x="339" y="114"/>
      <point x="338" y="147" type="curve"/>
      <point x="342" y="241"/>
      <point x="198" y="210"/>
      <point x="129" y="240" type="curve"/>
      <point x="60" y="263"/>
      <point x="25" y="313"/>
      <point x="22" y="366" type="curve" smooth="yes"/>
      <point x="19" y="428"/>
      <point x="55" y="491"/>
      <point x="125" y="509" type="curve" smooth="yes"/>
      <point x="160" y="518"/>
      <point x="217" y="522"/>
      <point x="275" y="518" type="curve" smooth="yes"/>
      <point x="303" y="516"/>
      <point x="330" y="511"/>
      <point x="355" y="503" type="curve"/>
      <point x="401" y="483"/>
      <point x="434" y="430"/>
      <point x="434" y="370" type="curve" smooth="yes"/>
      <point x="434" y="361"/>
      <point x="343" y="368"/>
    </contour>
  </outline>
</glyph>
<glyph name="x" format="1">
  <advance width="413"/>
  <unicode hex="0078"/>
  <outline>
    <contour>
      <point x="412" y="500" type="curve"/>
      <point x="373" y="430"/>
      <point x="335" y="360"/>
      <point x="283" y="252" type="curve"/>
      <point x="350" y="121"/>
      <point x="350" y="107"/>
      <point x="401" y="0" type="curve"/>
      <point x="395" y="0"/>
      <point x="389" y="1"/>
      <point x="381" y="1" type="curve" smooth="yes"/>
      <point x="372" y="1"/>
      <point x="362" y="0"/>
      <point x="355" y="1" type="curve" smooth="yes"/>
      <point x="343" y="1" type="line" smooth="yes"/>
      <point x="337" y="1"/>
      <point x="308" y="1"/>
      <point x="304" y="2" type="curve"/>
      <point x="303" y="2" type="line"/>
      <point x="262" y="75"/>
      <point x="236" y="146"/>
      <point x="208" y="192" type="curve"/>
      <point x="171" y="128"/>
      <point x="142" y="61"/>
      <point x="105" y="0" type="curve"/>
      <point x="96" y="0"/>
      <point x="66" y="-1"/>
      <point x="57" y="-1" type="curve" smooth="yes"/>
      <point x="42" y="-1"/>
      <point x="21" y="-1"/>
      <point x="9" y="2" type="curve"/>
      <point x="65" y="108"/>
      <point x="87" y="153"/>
      <point x="135" y="253" type="curve"/>
      <point x="64" y="378"/>
      <point x="66" y="396"/>
      <point x="2" y="497" type="curve"/>
      <point x="24" y="498"/>
      <point x="43" y="498"/>
      <point x="58" y="498" type="curve" smooth="yes"/>
      <point x="74" y="498"/>
      <point x="104" y="498"/>
      <point x="106" y="496" type="curve"/>
      <point x="142" y="435"/>
      <point x="180" y="354"/>
      <point x="208" y="311" type="curve"/>
      <point x="233" y="354"/>
      <point x="267" y="435"/>
      <point x="306" y="498" type="curve"/>
      <point x="324" y="500"/>
      <point x="377" y="501"/>
      <point x="412" y="501" type="curve"/>
      <point x="413" y="501" type="line"/>
      <point x="413" y="500"/>
      <point x="413" y="500"/>
    </contour>
  </outline>
</glyph>
<glyph name="y" format="1">
  <advance width="449"/>
  <unicode hex="0079"/>
  <outline>
    <contour>
      <point x="103" y="497" type="curve"/>
      <point x="161" y="279"/>
      <point x="205" y="98"/>
      <point x="229" y="52" type="curve"/>
      <point x="265" y="95"/>
      <point x="326" y="454"/>
      <point x="343" y="497" type="curve"/>
      <point x="374" y="497"/>
      <point x="404" y="500"/>
      <point x="441" y="499" type="curve"/>
      <point x="420" y="419"/>
      <point x="404" y="347"/>
      <point x="387" y="278" type="curve"/>
      <point x="337" y="80"/>
      <point x="332" y="-197"/>
      <point x="-6" y="-177" type="curve"/>
      <point x="-16" y="-149"/>
      <point x="-16" y="-113"/>
      <point x="-10" y="-87" type="curve"/>
      <point x="80" y="-94"/>
      <point x="162" y="-86"/>
      <point x="148" y="-15" type="curve"/>
      <point x="75" y="245"/>
      <point x="47" y="337"/>
      <point x="3" y="500" type="curve"/>
      <point x="37" y="498"/>
      <point x="74" y="501"/>
    </contour>
  </outline>
</glyph>
<glyph name="braceleft" format="1">
  <advance width="318"/>
  <unicode hex="007B"/>
  <outline>
    <contour>
      <point x="292" y="1" type="curve"/>
      <point x="182" y="-12"/>
      <point x="120" y="48"/>
      <point x="123" y="108" type="curve"/>
      <point x="126" y="130"/>
      <point x="127" y="157"/>
      <point x="125" y="186" type="curve"/>
      <point x="121" y="254"/>
      <point x="95" y="312"/>
      <point x="21" y="308" type="curve" smooth="yes"/>
      <point x="17" y="308"/>
      <point x="14" y="308"/>
      <point x="13" y="309" type="curve"/>
      <point x="9" y="334"/>
      <point x="11" y="358"/>
      <point x="15" y="377" type="curve"/>
      <point x="88" y="369"/>
      <point x="120" y="417"/>
      <point x="125" y="473" type="curve" smooth="yes"/>
      <point x="128" y="496"/>
      <point x="128" y="527"/>
      <point x="126" y="562" type="curve"/>
      <point x="115" y="616"/>
      <point x="142" y="668"/>
      <point x="192" y="676" type="curve"/>
      <point x="231" y="680"/>
      <point x="257" y="681"/>
      <point x="289" y="678" type="curve"/>
      <point x="293" y="653"/>
      <point x="292" y="632"/>
      <point x="290" y="617" type="curve"/>
      <point x="243" y="601"/>
      <point x="193" y="633"/>
      <point x="200" y="508" type="curve" smooth="yes"/>
      <point x="201" y="455"/>
      <point x="211" y="385"/>
      <point x="136" y="344" type="curve"/>
      <point x="211" y="287"/>
      <point x="189" y="214"/>
      <point x="200" y="150" type="curve"/>
      <point x="202" y="116"/>
      <point x="196" y="80"/>
      <point x="292" y="69" type="curve"/>
      <point x="293" y="50"/>
      <point x="294" y="24"/>
    </contour>
  </outline>
</glyph>
<glyph name="bar" format="1">
  <advance width="201"/>
  <unicode hex="007C"/>
  <outline>
    <contour>
      <point x="136" y="-28" type="line"/>
      <point x="110" y="-27"/>
      <point x="69" y="-25"/>
      <point x="63" y="-25" type="curve"/>
      <point x="63" y="601" type="line"/>
      <point x="63" y="726" type="line"/>
      <point x="102" y="726"/>
      <point x="104" y="724"/>
      <point x="143" y="729" type="curve"/>
      <point x="143" y="728" type="line"/>
      <point x="143" y="706"/>
      <point x="145" y="-6"/>
      <point x="145" y="-28" type="curve"/>
    </contour>
  </outline>
</glyph>
<glyph name="braceright" format="1">
  <advance width="318"/>
  <unicode hex="007D"/>
  <outline>
    <contour>
      <point x="25" y="1" type="curve"/>
      <point x="135" y="-12"/>
      <point x="197" y="48"/>
      <point x="194" y="108" type="curve"/>
      <point x="191" y="130"/>
      <point x="189" y="157"/>
      <point x="191" y="186" type="curve" smooth="yes"/>
      <point x="196" y="256"/>
      <point x="221" y="312"/>
      <point x="296" y="308" type="curve" smooth="yes"/>
      <point x="300" y="308"/>
      <point x="303" y="308"/>
      <point x="304" y="309" type="curve"/>
      <point x="308" y="334"/>
      <point x="306" y="358"/>
      <point x="302" y="377" type="curve"/>
      <point x="229" y="369"/>
      <point x="197" y="417"/>
      <point x="192" y="473" type="curve" smooth="yes"/>
      <point x="189" y="496"/>
      <point x="188" y="527"/>
      <point x="191" y="562" type="curve"/>
      <point x="202" y="616"/>
      <point x="175" y="668"/>
      <point x="125" y="676" type="curve"/>
      <point x="86" y="680"/>
      <point x="60" y="681"/>
      <point x="28" y="678" type="curve"/>
      <point x="24" y="653"/>
      <point x="25" y="632"/>
      <point x="27" y="617" type="curve"/>
      <point x="72" y="603"/>
      <point x="124" y="633"/>
      <point x="117" y="508" type="curve" smooth="yes"/>
      <point x="116" y="455"/>
      <point x="106" y="385"/>
      <point x="181" y="344" type="curve"/>
      <point x="105" y="287"/>
      <point x="129" y="214"/>
      <point x="117" y="150" type="curve" smooth="yes"/>
      <point x="115" y="116"/>
      <point x="121" y="80"/>
      <point x="25" y="69" type="curve"/>
      <point x="24" y="50"/>
      <point x="23" y="24"/>
    </contour>
  </outline>
</glyph>
<glyph name="asciitilde" format="1">
  <advance width="570"/>
  <unicode hex="007E"/>
  <outline>
    <contour>
      <point x="121" y="135" type="line"/>
      <point x="108" y="138"/>
      <point x="86" y="138"/>
      <point x="64" y="138" type="curve" smooth="yes"/>
      <point x="49" y="138"/>
      <point x="34" y="138"/>
      <point x="17" y="137" type="curve"/>
      <point x="27" y="176"/>
      <point x="62" y="268"/>
      <point x="95" y="306" type="curve"/>
      <point x="140" y="351"/>
      <point x="215" y="368"/>
      <point x="271" y="330" type="curve"/>
      <point x="299" y="310"/>
      <point x="309" y="290"/>
      <point x="331" y="244" type="curve" smooth="yes"/>
      <point x="346" y="217"/>
      <point x="366" y="208"/>
      <point x="394" y="216" type="curve" smooth="yes"/>
      <point x="449" y="230"/>
      <point x="464" y="294"/>
      <point x="462" y="337" type="curve"/>
      <point x="487" y="339"/>
      <point x="514" y="339"/>
      <point x="540" y="340" type="curve"/>
      <point x="541" y="338" type="line"/>
      <point x="555" y="256"/>
      <point x="506" y="152"/>
      <point x="430" y="132" type="curve" smooth="yes"/>
      <point x="372" y="117"/>
      <point x="310" y="127"/>
      <point x="280" y="212" type="curve"/>
      <point x="260" y="259"/>
      <point x="241" y="267"/>
      <point x="208" y="264" type="curve" smooth="yes"/>
      <point x="153" y="255"/>
      <point x="123" y="209"/>
      <point x="121" y="137" type="curve"/>
    </contour>
  </outline>
</glyph>
<glyph name="exclamdown" format="1">
  <advance width="216"/>
  <unicode hex="00A1"/>
  <outline>
    <contour>
      <point x="150" y="-71" type="line"/>
      <point x="151" y="-71" type="line"/>
      <point x="154" y="105"/>
      <point x="147" y="286"/>
      <point x="153" y="459" type="curve"/>
      <point x="121" y="460"/>
      <point x="91" y="460"/>
      <point x="61" y="459" type="curve"/>
      <point x="61" y="459" type="line"/>
      <point x="67" y="286"/>
      <point x="59" y="105"/>
      <point x="63" y="-71" type="curve"/>
    </contour>
    <contour>
      <point x="146" y="631" type="curve" smooth="yes"/>
      <point x="139" y="631"/>
      <point x="131" y="630"/>
      <point x="124" y="630" type="curve" smooth="yes"/>
      <point x="94" y="630" type="line"/>
      <point x="93" y="630" type="line" smooth="yes"/>
      <point x="84" y="630"/>
      <point x="79" y="631"/>
      <point x="69" y="631" type="curve" smooth="yes"/>
      <point x="60" y="631" type="line"/>
      <point x="56" y="611"/>
      <point x="60" y="549"/>
      <point x="60" y="512" type="curve"/>
      <point x="88" y="508"/>
      <point x="120" y="505"/>
      <point x="146" y="512" type="curve"/>
      <point x="146" y="548"/>
      <point x="151" y="611"/>
    </contour>
  </outline>
</glyph>
<glyph name="sterling" format="1">
  <advance width="486"/>
  <unicode hex="00A3"/>
  <outline>
    <contour>
      <point x="158" y="354" type="line"/>
      <point x="164" y="354" type="line"/>
      <point x="163" y="377"/>
      <point x="162" y="405"/>
      <point x="162" y="435" type="curve" smooth="yes"/>
      <point x="162" y="536"/>
      <point x="163" y="657"/>
      <point x="168" y="669" type="curve"/>
      <point x="173" y="669"/>
      <point x="202" y="668"/>
      <point x="223" y="669" type="curve" smooth="yes"/>
      <point x="235" y="670"/>
      <point x="241" y="671"/>
      <point x="255" y="675" type="curve"/>
      <point x="255" y="674" type="line"/>
      <point x="258" y="566"/>
      <point x="258" y="457"/>
      <point x="255" y="350" type="curve"/>
      <point x="294" y="348"/>
      <point x="342" y="347"/>
      <point x="358" y="346" type="curve" smooth="yes"/>
      <point x="385" y="345"/>
      <point x="394" y="346"/>
      <point x="404" y="349" type="curve"/>
      <point x="405" y="349" type="line"/>
      <point x="411" y="303"/>
      <point x="398" y="257"/>
      <point x="404" y="251" type="curve"/>
      <point x="376" y="252"/>
      <point x="351" y="252"/>
      <point x="329" y="252" type="curve" smooth="yes"/>
      <point x="275" y="252"/>
      <point x="273" y="250"/>
      <point x="254" y="250" type="curve"/>
      <point x="253" y="223"/>
      <point x="257" y="224"/>
      <point x="256" y="181" type="curve"/>
      <point x="260" y="115"/>
      <point x="262" y="119"/>
      <point x="265" y="116" type="curve"/>
      <point x="278" y="117"/>
      <point x="455" y="105"/>
      <point x="468" y="105" type="curve"/>
      <point x="462" y="30"/>
      <point x="461" y="8"/>
      <point x="460" y="2" type="curve"/>
      <point x="310" y="2"/>
      <point x="180" y="-3"/>
      <point x="162" y="11" type="curve"/>
      <point x="167" y="79"/>
      <point x="163" y="160"/>
      <point x="160" y="254" type="curve"/>
      <point x="73" y="256"/>
      <point x="31" y="252"/>
      <point x="21" y="256" type="curve"/>
      <point x="20" y="285"/>
      <point x="20" y="304"/>
      <point x="19" y="315" type="curve" smooth="yes"/>
      <point x="18" y="334"/>
      <point x="18" y="341"/>
      <point x="19" y="344" type="curve"/>
      <point x="19" y="357"/>
      <point x="76" y="355"/>
      <point x="96" y="354" type="curve" smooth="yes"/>
      <point x="112" y="353"/>
      <point x="126" y="353"/>
      <point x="139" y="354" type="curve"/>
      <point x="145" y="353"/>
      <point x="150" y="353"/>
      <point x="155" y="354" type="curve"/>
    </contour>
  </outline>
</glyph>
<glyph name="currency" format="1">
  <advance width="607"/>
  <unicode hex="00A4"/>
  <outline>
    <contour>
      <point x="175" y="551" type="curve"/>
      <point x="186" y="552"/>
      <point x="219" y="562"/>
      <point x="273" y="565" type="curve" smooth="yes"/>
      <point x="317" y="568"/>
      <point x="397" y="559"/>
      <point x="432" y="553" type="curve"/>
      <point x="466" y="587"/>
      <point x="485" y="608"/>
      <point x="517" y="643" type="curve"/>
      <point x="541" y="622"/>
      <point x="565" y="599"/>
      <point x="589" y="578" type="curve"/>
      <point x="565" y="550"/>
      <point x="535" y="517"/>
      <point x="506" y="484" type="curve"/>
      <point x="528" y="441"/>
      <point x="527" y="434"/>
      <point x="532" y="322" type="curve" smooth="yes"/>
      <point x="532" y="269"/>
      <point x="530" y="237"/>
      <point x="506" y="178" type="curve"/>
      <point x="540" y="131"/>
      <point x="565" y="107"/>
      <point x="588" y="86" type="curve"/>
      <point x="577" y="76"/>
      <point x="567" y="68"/>
      <point x="560" y="62" type="curve"/>
      <point x="546" y="55"/>
      <point x="515" y="20"/>
      <point x="504" y="22" type="curve"/>
      <point x="473" y="57"/>
      <point x="464" y="67"/>
      <point x="429" y="116" type="curve"/>
      <point x="368" y="104"/>
      <point x="279" y="95"/>
      <point x="168" y="115" type="curve"/>
      <point x="153" y="95"/>
      <point x="132" y="67"/>
      <point x="99" y="22" type="curve"/>
      <point x="86" y="20"/>
      <point x="41" y="68"/>
      <point x="18" y="88" type="curve"/>
      <point x="66" y="144"/>
      <point x="79" y="161"/>
      <point x="92" y="177" type="curve"/>
      <point x="92" y="178" type="line"/>
      <point x="75" y="225"/>
      <point x="78" y="277"/>
      <point x="78" y="312" type="curve" smooth="yes"/>
      <point x="76" y="372"/>
      <point x="80" y="445"/>
      <point x="92" y="491" type="curve"/>
      <point x="44" y="555"/>
      <point x="53" y="530"/>
      <point x="18" y="578" type="curve"/>
      <point x="42" y="599"/>
      <point x="67" y="622"/>
      <point x="91" y="643" type="curve"/>
      <point x="123" y="608"/>
      <point x="137" y="593"/>
    </contour>
    <contour>
      <point x="220" y="477" type="curve"/>
      <point x="150" y="454"/>
      <point x="155" y="393"/>
      <point x="158" y="267" type="curve" smooth="yes"/>
      <point x="158" y="195"/>
      <point x="209" y="177"/>
      <point x="305" y="181" type="curve" smooth="yes"/>
      <point x="405" y="183"/>
      <point x="445" y="204"/>
      <point x="448" y="268" type="curve" smooth="yes"/>
      <point x="450" y="304"/>
      <point x="452" y="341"/>
      <point x="452" y="372" type="curve"/>
      <point x="452" y="511"/>
      <point x="294" y="491"/>
    </contour>
  </outline>
</glyph>
<glyph name="yen" format="1">
  <advance width="530"/>
  <unicode hex="00A5"/>
  <outline>
    <contour>
      <point x="464" y="248" type="curve"/>
      <point x="450" y="249"/>
      <point x="435" y="249"/>
      <point x="403" y="249" type="curve" smooth="yes"/>
      <point x="377" y="249"/>
      <point x="350" y="247"/>
      <point x="324" y="248" type="curve"/>
      <point x="310" y="232"/>
      <point x="305" y="208"/>
      <point x="295" y="187" type="curve"/>
      <point x="295" y="187" type="line"/>
      <point x="350" y="187"/>
      <point x="409" y="189"/>
      <point x="461" y="187" type="curve"/>
      <point x="462" y="165"/>
      <point x="461" y="133"/>
      <point x="464" y="112" type="curve"/>
      <point x="449" y="112" type="line" smooth="yes"/>
      <point x="418" y="112"/>
      <point x="335" y="111"/>
      <point x="264" y="111" type="curve"/>
      <point x="248" y="77"/>
      <point x="233" y="36"/>
      <point x="219" y="0" type="curve"/>
      <point x="218" y="0"/>
      <point x="215" y="0"/>
      <point x="213" y="0" type="curve"/>
      <point x="207" y="1"/>
      <point x="201" y="1"/>
      <point x="193" y="1" type="curve" smooth="yes"/>
      <point x="169" y="2"/>
      <point x="143" y="-2"/>
      <point x="122" y="0" type="curve" smooth="yes"/>
      <point x="119" y="0" type="line"/>
      <point x="129" y="35"/>
      <point x="148" y="75"/>
      <point x="161" y="108" type="curve"/>
      <point x="105" y="115"/>
      <point x="40" y="108"/>
      <point x="24" y="115" type="curve"/>
      <point x="25" y="137"/>
      <point x="25" y="168"/>
      <point x="28" y="186" type="curve"/>
      <point x="80" y="184"/>
      <point x="170" y="177"/>
      <point x="197" y="201" type="curve"/>
      <point x="200" y="208"/>
      <point x="202" y="213"/>
      <point x="206" y="221" type="curve"/>
      <point x="209" y="230"/>
      <point x="213" y="239"/>
      <point x="216" y="247" type="curve"/>
      <point x="141" y="250"/>
      <point x="49" y="246"/>
      <point x="25" y="252" type="curve"/>
      <point x="24" y="262"/>
      <point x="24" y="269"/>
      <point x="24" y="275" type="curve" smooth="yes"/>
      <point x="25" y="286"/>
      <point x="26" y="308"/>
      <point x="26" y="321" type="curve"/>
      <point x="43" y="321" type="line" smooth="yes"/>
      <point x="109" y="325"/>
      <point x="176" y="322"/>
      <point x="243" y="324" type="curve"/>
      <point x="229" y="354"/>
      <point x="212" y="384"/>
      <point x="202" y="405" type="curve" smooth="yes"/>
      <point x="165" y="489"/>
      <point x="100" y="600"/>
      <point x="81" y="692" type="curve"/>
      <point x="118" y="689"/>
      <point x="147" y="696"/>
      <point x="175" y="692" type="curve"/>
      <point x="218" y="586"/>
      <point x="262" y="498"/>
      <point x="303" y="429" type="curve"/>
      <point x="362" y="553"/>
      <point x="400" y="645"/>
      <point x="417" y="687" type="curve"/>
      <point x="424" y="691"/>
      <point x="457" y="692"/>
      <point x="472" y="692" type="curve" smooth="yes"/>
      <point x="485" y="693"/>
      <point x="503" y="692"/>
      <point x="512" y="691" type="curve"/>
      <point x="508" y="677" type="line" smooth="yes"/>
      <point x="473" y="567"/>
      <point x="424" y="462"/>
      <point x="373" y="358" type="curve" smooth="yes"/>
      <point x="368" y="348"/>
      <point x="363" y="337"/>
      <point x="357" y="327" type="curve"/>
      <point x="379" y="321"/>
      <point x="424" y="328"/>
      <point x="447" y="323" type="curve"/>
      <point x="461" y="323" type="line"/>
      <point x="462" y="299"/>
      <point x="461" y="269"/>
    </contour>
  </outline>
</glyph>
<glyph name="copyright" format="1">
  <advance width="553"/>
  <unicode hex="00A9"/>
  <outline>
    <contour>
      <point x="506" y="249" type="qcurve"/>
      <point x="494" y="202"/>
      <point x="458" y="168" type="qcurve"/>
      <point x="438" y="148"/>
      <point x="390" y="127"/>
      <point x="336" y="118"/>
      <point x="281" y="115"/>
      <point x="255" y="113" type="qcurve"/>
      <point x="227" y="113"/>
      <point x="173" y="119"/>
      <point x="147" y="127" type="qcurve"/>
      <point x="103" y="147"/>
      <point x="50" y="205"/>
      <point x="45" y="247" type="qcurve"/>
      <point x="37" y="296"/>
      <point x="36" y="395"/>
      <point x="40" y="446" type="qcurve"/>
      <point x="44" y="493"/>
      <point x="77" y="532" type="qcurve"/>
      <point x="99" y="560"/>
      <point x="163" y="591"/>
      <point x="198" y="596" type="qcurve"/>
      <point x="239" y="598"/>
      <point x="321" y="601"/>
      <point x="361" y="593" type="qcurve"/>
      <point x="382" y="589"/>
      <point x="424" y="574"/>
      <point x="444" y="561" type="qcurve"/>
      <point x="447" y="559"/>
      <point x="453" y="555"/>
      <point x="456" y="553" type="qcurve"/>
      <point x="490" y="529"/>
      <point x="517" y="458"/>
      <point x="521" y="377"/>
      <point x="510" y="290"/>
    </contour>
    <contour>
      <point x="444" y="495" type="qcurve"/>
      <point x="431" y="510"/>
      <point x="382" y="535"/>
      <point x="354" y="541" type="qcurve"/>
      <point x="272" y="550"/>
      <point x="190" y="541" type="qcurve"/>
      <point x="188" y="541"/>
      <point x="187" y="539"/>
      <point x="185" y="539" type="qcurve"/>
      <point x="147" y="532"/>
      <point x="100" y="482"/>
      <point x="95" y="450" type="qcurve"/>
      <point x="89" y="400"/>
      <point x="94" y="300"/>
      <point x="97" y="253" type="qcurve"/>
      <point x="97" y="234"/>
      <point x="116" y="203"/>
      <point x="148" y="180"/>
      <point x="188" y="167"/>
      <point x="209" y="166" type="qcurve"/>
      <point x="244" y="169"/>
      <point x="332" y="170"/>
      <point x="369" y="178" type="qcurve"/>
      <point x="390" y="181"/>
      <point x="423" y="203"/>
      <point x="445" y="235"/>
      <point x="458" y="274"/>
      <point x="460" y="293" type="qcurve"/>
      <point x="462" y="321"/>
      <point x="465" y="381"/>
      <point x="464" y="411" type="qcurve"/>
      <point x="463" y="433"/>
      <point x="460" y="476"/>
    </contour>
    <contour>
      <point x="239" y="441" type="qcurve"/>
      <point x="238" y="440"/>
      <point x="237" y="437"/>
      <point x="236" y="435" type="qcurve"/>
      <point x="236" y="433"/>
      <point x="234" y="409"/>
      <point x="230" y="363"/>
      <point x="230" y="327"/>
      <point x="231" y="314" type="qcurve"/>
      <point x="233" y="280"/>
      <point x="242" y="260"/>
      <point x="253" y="256" type="qcurve"/>
      <point x="262" y="255"/>
      <point x="295" y="256"/>
      <point x="303" y="269" type="qcurve"/>
      <point x="305" y="278"/>
      <point x="304" y="319"/>
      <point x="305" y="329" type="qcurve"/>
      <point x="316" y="328"/>
      <point x="339" y="330"/>
      <point x="351" y="326" type="qcurve"/>
      <point x="357" y="304"/>
      <point x="351" y="264"/>
      <point x="330" y="233"/>
      <point x="296" y="212"/>
      <point x="275" y="212" type="qcurve"/>
      <point x="261" y="210"/>
      <point x="232" y="213"/>
      <point x="207" y="225"/>
      <point x="189" y="246"/>
      <point x="188" y="262" type="qcurve"/>
      <point x="186" y="290"/>
      <point x="185" y="362"/>
      <point x="186" y="424" type="qcurve"/>
      <point x="185" y="431"/>
      <point x="189" y="444"/>
      <point x="191" y="449" type="qcurve"/>
      <point x="199" y="471"/>
      <point x="212" y="483" type="qcurve"/>
      <point x="216" y="486"/>
      <point x="227" y="491"/>
      <point x="232" y="493" type="qcurve"/>
      <point x="258" y="501"/>
      <point x="308" y="496"/>
      <point x="342" y="470"/>
      <point x="361" y="413"/>
      <point x="354" y="381" type="qcurve"/>
      <point x="330" y="382"/>
      <point x="317" y="381"/>
      <point x="303" y="383" type="qcurve"/>
      <point x="302" y="391"/>
      <point x="305" y="422"/>
      <point x="300" y="438"/>
      <point x="269" y="448"/>
      <point x="258" y="448" type="qcurve"/>
      <point x="250" y="447"/>
      <point x="242" y="444"/>
    </contour>
  </outline>
</glyph>
<glyph name="ordfeminine" format="1">
  <advance width="276"/>
  <unicode hex="00AA"/>
  <outline>
    <contour>
      <point x="236" y="720" type="curve"/>
      <point x="236" y="716"/>
      <point x="238" y="712"/>
      <point x="238" y="708" type="curve" smooth="yes"/>
      <point x="238" y="704" type="line" smooth="yes"/>
      <point x="235" y="644"/>
      <point x="245" y="470"/>
      <point x="229" y="468" type="curve"/>
      <point x="221" y="468" type="line" smooth="yes"/>
      <point x="216" y="468"/>
      <point x="210" y="469"/>
      <point x="205" y="469" type="curve" smooth="yes"/>
      <point x="200" y="469"/>
      <point x="196" y="468"/>
      <point x="192" y="468" type="curve"/>
      <point x="188" y="469"/>
      <point x="187" y="473"/>
      <point x="187" y="479" type="curve" smooth="yes"/>
      <point x="187" y="486"/>
      <point x="189" y="491"/>
      <point x="189" y="497" type="curve"/>
      <point x="169" y="470"/>
      <point x="122" y="467"/>
      <point x="100" y="467" type="curve" smooth="yes"/>
      <point x="49" y="467"/>
      <point x="28" y="548"/>
      <point x="28" y="603" type="curve" smooth="yes"/>
      <point x="28" y="671"/>
      <point x="65" y="719"/>
      <point x="111" y="720" type="curve" smooth="yes"/>
      <point x="144" y="720"/>
      <point x="173" y="721"/>
      <point x="185" y="696" type="curve"/>
      <point x="185" y="707"/>
      <point x="184" y="722"/>
      <point x="194" y="722" type="curve" smooth="yes"/>
      <point x="206" y="723"/>
      <point x="210" y="721"/>
    </contour>
    <contour>
      <point x="74" y="630" type="curve"/>
      <point x="70" y="618"/>
      <point x="70" y="604"/>
      <point x="70" y="591" type="curve" smooth="yes"/>
      <point x="72" y="542"/>
      <point x="90" y="511"/>
      <point x="134" y="513" type="curve" smooth="yes"/>
      <point x="186" y="512"/>
      <point x="187" y="544"/>
      <point x="187" y="598" type="curve" smooth="yes"/>
      <point x="187" y="662"/>
      <point x="188" y="674"/>
      <point x="138" y="677" type="curve" smooth="yes"/>
      <point x="103" y="677"/>
      <point x="79" y="655"/>
    </contour>
  </outline>
</glyph>
<glyph name="guillemotleft" format="1">
  <advance width="583"/>
  <unicode hex="00AB"/>
  <outline>
    <contour>
      <point x="564" y="69" type="curve"/>
      <point x="559" y="64"/>
      <point x="555" y="58"/>
      <point x="550" y="53" type="curve" smooth="yes"/>
      <point x="542" y="45" type="line" smooth="yes"/>
      <point x="537" y="41"/>
      <point x="531" y="34"/>
      <point x="509" y="15" type="curve"/>
      <point x="508" y="16" type="line" smooth="yes"/>
      <point x="427" y="98"/>
      <point x="336" y="165"/>
      <point x="257" y="266" type="curve"/>
      <point x="323" y="349"/>
      <point x="433" y="455"/>
      <point x="502" y="524" type="curve"/>
      <point x="520" y="514"/>
      <point x="541" y="486"/>
      <point x="555" y="474" type="curve"/>
      <point x="524" y="436"/>
      <point x="403" y="314"/>
      <point x="361" y="263" type="curve"/>
      <point x="424" y="200"/>
      <point x="501" y="120"/>
    </contour>
    <contour>
      <point x="342" y="69" type="curve"/>
      <point x="337" y="64"/>
      <point x="332" y="58"/>
      <point x="327" y="53" type="curve" smooth="yes"/>
      <point x="319" y="45" type="line" smooth="yes"/>
      <point x="314" y="41"/>
      <point x="309" y="34"/>
      <point x="286" y="15" type="curve"/>
      <point x="285" y="16" type="line" smooth="yes"/>
      <point x="205" y="98"/>
      <point x="113" y="165"/>
      <point x="34" y="266" type="curve"/>
      <point x="101" y="349"/>
      <point x="210" y="455"/>
      <point x="279" y="524" type="curve"/>
      <point x="297" y="514"/>
      <point x="318" y="486"/>
      <point x="332" y="474" type="curve"/>
      <point x="302" y="436"/>
      <point x="180" y="314"/>
      <point x="138" y="263" type="curve"/>
      <point x="201" y="200"/>
      <point x="279" y="120"/>
    </contour>
  </outline>
</glyph>
<glyph name="logicalnot" format="1">
  <advance width="471"/>
  <unicode hex="00AC"/>
  <outline>
    <contour>
      <point x="376" y="251" type="line"/>
      <point x="376" y="258"/>
      <point x="375" y="353"/>
      <point x="375" y="412" type="curve"/>
      <point x="264" y="413"/>
      <point x="22" y="416"/>
      <point x="21" y="417" type="curve"/>
      <point x="21" y="420"/>
      <point x="20" y="456"/>
      <point x="20" y="472" type="curve"/>
      <point x="32" y="472"/>
      <point x="422" y="470"/>
      <point x="434" y="470" type="curve"/>
      <point x="434" y="469"/>
      <point x="433" y="468"/>
      <point x="433" y="467" type="curve"/>
      <point x="434" y="467" type="line"/>
      <point x="434" y="443"/>
      <point x="431" y="253"/>
      <point x="431" y="251" type="curve"/>
    </contour>
  </outline>
</glyph>
<glyph name="twosuperior" format="1">
  <advance width="264"/>
  <unicode hex="00B2"/>
  <outline>
    <contour>
      <point x="53" y="334" type="curve"/>
      <point x="32" y="334" type="line"/>
      <point x="32" y="336" type="line" smooth="yes"/>
      <point x="34" y="373"/>
      <point x="34" y="404"/>
      <point x="70" y="442" type="curve"/>
      <point x="113" y="481"/>
      <point x="185" y="500"/>
      <point x="185" y="541" type="curve" smooth="yes"/>
      <point x="188" y="588"/>
      <point x="168" y="607"/>
      <point x="136" y="608" type="curve"/>
      <point x="82" y="608"/>
      <point x="82" y="554"/>
      <point x="82" y="526" type="curve"/>
      <point x="82" y="525" type="line"/>
      <point x="65" y="522"/>
      <point x="51" y="522"/>
      <point x="36" y="523" type="curve"/>
      <point x="35" y="523" type="line"/>
      <point x="35" y="528"/>
      <point x="34" y="532"/>
      <point x="34" y="536" type="curve"/>
      <point x="29" y="573"/>
      <point x="38" y="606"/>
      <point x="58" y="628" type="curve" smooth="yes"/>
      <point x="82" y="658"/>
      <point x="154" y="661"/>
      <point x="187" y="647" type="curve" smooth="yes"/>
      <point x="228" y="627"/>
      <point x="233" y="580"/>
      <point x="233" y="531" type="curve"/>
      <point x="229" y="470"/>
      <point x="140" y="448"/>
      <point x="95" y="406" type="curve"/>
      <point x="89" y="396"/>
      <point x="87" y="381"/>
      <point x="90" y="379" type="curve"/>
      <point x="108" y="379"/>
      <point x="129" y="379"/>
      <point x="151" y="379" type="curve" smooth="yes"/>
      <point x="178" y="379"/>
      <point x="201" y="380"/>
      <point x="223" y="381" type="curve"/>
      <point x="228" y="363"/>
      <point x="222" y="346"/>
      <point x="226" y="337" type="curve"/>
      <point x="225" y="337" type="line" smooth="yes"/>
      <point x="167" y="336"/>
      <point x="110" y="335"/>
    </contour>
  </outline>
</glyph>
<glyph name="mu" format="1">
  <advance width="458"/>
  <unicode hex="00B5"/>
  <outline>
    <contour>
      <point x="125" y="12" type="curve"/>
      <point x="125" y="-99"/>
      <point x="128" y="-116"/>
      <point x="129" y="-159" type="curve"/>
      <point x="117" y="-173"/>
      <point x="47" y="-161"/>
      <point x="33" y="-165" type="curve"/>
      <point x="36" y="-45"/>
      <point x="34" y="211"/>
      <point x="40" y="415" type="curve" smooth="yes"/>
      <point x="40" y="446"/>
      <point x="40" y="474"/>
      <point x="39" y="498" type="curve"/>
      <point x="70" y="501"/>
      <point x="93" y="500"/>
      <point x="124" y="500" type="curve"/>
      <point x="124" y="442"/>
      <point x="122" y="390"/>
      <point x="123" y="214" type="curve" smooth="yes"/>
      <point x="124" y="173"/>
      <point x="130" y="132"/>
      <point x="152" y="115" type="curve" smooth="yes"/>
      <point x="158" y="110"/>
      <point x="167" y="107"/>
      <point x="176" y="105" type="curve" smooth="yes"/>
      <point x="205" y="100"/>
      <point x="236" y="102"/>
      <point x="266" y="113" type="curve" smooth="yes"/>
      <point x="329" y="134"/>
      <point x="335" y="176"/>
      <point x="336" y="221" type="curve" smooth="yes"/>
      <point x="336" y="241"/>
      <point x="335" y="268"/>
      <point x="335" y="301" type="curve" smooth="yes"/>
      <point x="334" y="377"/>
      <point x="331" y="415"/>
      <point x="330" y="468" type="curve" smooth="yes"/>
      <point x="330" y="477"/>
      <point x="331" y="486"/>
      <point x="332" y="495" type="curve"/>
      <point x="332" y="496" type="line"/>
      <point x="371" y="502"/>
      <point x="376" y="498"/>
      <point x="417" y="503" type="curve"/>
      <point x="417" y="339"/>
      <point x="423" y="178"/>
      <point x="418" y="2" type="curve"/>
      <point x="407" y="0"/>
      <point x="395" y="-1"/>
      <point x="384" y="-2" type="curve" smooth="yes"/>
      <point x="361" y="-4"/>
      <point x="332" y="-5"/>
      <point x="331" y="0" type="curve" smooth="yes"/>
      <point x="329" y="25"/>
      <point x="330" y="39"/>
      <point x="329" y="53" type="curve"/>
      <point x="322" y="45"/>
      <point x="305" y="27"/>
      <point x="265" y="17" type="curve" smooth="yes"/>
      <point x="225" y="8"/>
      <point x="185" y="6"/>
      <point x="161" y="9" type="curve" smooth="yes"/>
      <point x="148" y="9"/>
      <point x="136" y="11"/>
    </contour>
  </outline>
</glyph>
<glyph name="paragraph" format="1">
  <advance width="672"/>
  <unicode hex="00B6"/>
  <outline>
    <contour>
      <point x="557" y="730" type="curve"/>
      <point x="589" y="729"/>
      <point x="620" y="729"/>
      <point x="652" y="728" type="curve"/>
      <point x="652" y="716"/>
      <point x="655" y="661"/>
      <point x="655" y="631" type="curve"/>
      <point x="647" y="617"/>
      <point x="600" y="621"/>
      <point x="555" y="624" type="curve"/>
      <point x="551" y="487"/>
      <point x="549" y="276"/>
      <point x="548" y="150" type="curve"/>
      <point x="547" y="2"/>
      <point x="546" y="-134"/>
      <point x="550" y="-198" type="curve"/>
      <point x="545" y="-204"/>
      <point x="523" y="-205"/>
      <point x="498" y="-204" type="curve" smooth="yes"/>
      <point x="472" y="-203"/>
      <point x="450" y="-203"/>
      <point x="443" y="-204" type="curve"/>
      <point x="460" y="13"/>
      <point x="449" y="394"/>
      <point x="456" y="625" type="curve"/>
      <point x="387" y="625"/>
      <point x="318" y="625"/>
      <point x="249" y="625" type="curve"/>
      <point x="245" y="486"/>
      <point x="244" y="278"/>
      <point x="243" y="151" type="curve" smooth="yes"/>
      <point x="243" y="2"/>
      <point x="242" y="-135"/>
      <point x="246" y="-200" type="curve"/>
      <point x="241" y="-206"/>
      <point x="219" y="-207"/>
      <point x="193" y="-206" type="curve" smooth="yes"/>
      <point x="167" y="-205"/>
      <point x="144" y="-204"/>
      <point x="137" y="-206" type="curve"/>
      <point x="143" y="-137"/>
      <point x="145" y="-39"/>
      <point x="146" y="65" type="curve" smooth="yes"/>
      <point x="146" y="149"/>
      <point x="145" y="235"/>
      <point x="145" y="327" type="curve"/>
      <point x="72" y="320"/>
      <point x="45" y="346"/>
      <point x="24" y="408" type="curve"/>
      <point x="16" y="492"/>
      <point x="17" y="561"/>
      <point x="28" y="645" type="curve"/>
      <point x="50" y="734"/>
      <point x="129" y="722"/>
      <point x="219" y="727" type="curve"/>
      <point x="331" y="727"/>
      <point x="444" y="728"/>
    </contour>
  </outline>
</glyph>
<glyph name="periodcentered" format="1">
  <advance width="164"/>
  <unicode hex="00B7"/>
  <outline>
    <contour>
      <point x="115" y="392" type="curve"/>
      <point x="115" y="375"/>
      <point x="118" y="304"/>
      <point x="118" y="264" type="curve"/>
      <point x="114" y="257"/>
      <point x="107" y="255"/>
      <point x="98" y="255" type="curve" smooth="yes"/>
      <point x="85" y="253"/>
      <point x="76" y="256"/>
      <point x="50" y="255" type="curve"/>
      <point x="50" y="294"/>
      <point x="45" y="332"/>
      <point x="46" y="393" type="curve"/>
      <point x="69" y="393"/>
      <point x="92" y="392"/>
    </contour>
  </outline>
</glyph>
<glyph name="onesuperior" format="1">
  <advance width="187"/>
  <unicode hex="00B9"/>
  <outline>
    <contour>
      <point x="134" y="341" type="line"/>
      <point x="133" y="337"/>
      <point x="124" y="337"/>
      <point x="117" y="337" type="curve" smooth="yes"/>
      <point x="107" y="337"/>
      <point x="96" y="338"/>
      <point x="88" y="339" type="curve"/>
      <point x="88" y="373" type="line"/>
      <point x="88" y="389" type="line" smooth="yes"/>
      <point x="89" y="443"/>
      <point x="93" y="485"/>
      <point x="93" y="563" type="curve"/>
      <point x="93" y="574" type="line"/>
      <point x="93" y="582" type="line"/>
      <point x="89" y="582"/>
      <point x="93" y="584"/>
      <point x="74" y="554" type="curve" smooth="yes"/>
      <point x="65" y="538"/>
      <point x="58" y="529"/>
      <point x="55" y="529" type="curve" smooth="yes"/>
      <point x="51" y="529"/>
      <point x="19" y="538"/>
      <point x="19" y="541" type="curve" smooth="yes"/>
      <point x="38" y="584"/>
      <point x="75" y="638"/>
      <point x="76" y="640" type="curve"/>
      <point x="84" y="640"/>
      <point x="92" y="641"/>
      <point x="100" y="641" type="curve" smooth="yes"/>
      <point x="111" y="641"/>
      <point x="123" y="640"/>
      <point x="137" y="639" type="curve"/>
      <point x="139" y="615"/>
      <point x="138" y="592"/>
      <point x="138" y="567" type="curve" smooth="yes"/>
      <point x="140" y="503"/>
      <point x="134" y="439"/>
      <point x="134" y="373" type="curve" smooth="yes"/>
    </contour>
  </outline>
</glyph>
<glyph name="ordmasculine" format="1">
  <advance width="254"/>
  <unicode hex="00BA"/>
  <outline>
    <contour>
      <point x="50" y="605" type="curve"/>
      <point x="51" y="607"/>
      <point x="53" y="609"/>
      <point x="54" y="610" type="curve" smooth="yes"/>
      <point x="72" y="630"/>
      <point x="92" y="644"/>
      <point x="122" y="645" type="curve" smooth="yes"/>
      <point x="206" y="649"/>
      <point x="231" y="558"/>
      <point x="227" y="498" type="curve"/>
      <point x="232" y="429"/>
      <point x="202" y="331"/>
      <point x="121" y="335" type="curve"/>
      <point x="32" y="339"/>
      <point x="28" y="416"/>
      <point x="28" y="472" type="curve"/>
      <point x="25" y="516"/>
      <point x="23" y="566"/>
    </contour>
    <contour>
      <point x="121" y="380" type="curve"/>
      <point x="128" y="379"/>
      <point x="134" y="380"/>
      <point x="140" y="382" type="curve" smooth="yes"/>
      <point x="187" y="400"/>
      <point x="179" y="458"/>
      <point x="181" y="470" type="curve" smooth="yes"/>
      <point x="182" y="483"/>
      <point x="182" y="498"/>
      <point x="181" y="521" type="curve" smooth="yes"/>
      <point x="180" y="558"/>
      <point x="163" y="597"/>
      <point x="130" y="601" type="curve" smooth="yes"/>
      <point x="74" y="601"/>
      <point x="71" y="548"/>
      <point x="73" y="541" type="curve"/>
      <point x="72" y="535"/>
      <point x="71" y="530"/>
      <point x="71" y="524" type="curve" smooth="yes"/>
      <point x="69" y="480"/>
      <point x="59" y="382"/>
    </contour>
  </outline>
</glyph>
<glyph name="guillemotright" format="1">
  <advance width="583"/>
  <unicode hex="00BB"/>
  <outline>
    <contour>
      <point x="18" y="69" type="curve"/>
      <point x="23" y="64"/>
      <point x="27" y="58"/>
      <point x="32" y="53" type="curve" smooth="yes"/>
      <point x="40" y="45" type="line" smooth="yes"/>
      <point x="45" y="41"/>
      <point x="51" y="34"/>
      <point x="73" y="15" type="curve"/>
      <point x="74" y="16" type="line" smooth="yes"/>
      <point x="155" y="98"/>
      <point x="246" y="165"/>
      <point x="325" y="266" type="curve"/>
      <point x="259" y="349"/>
      <point x="149" y="455"/>
      <point x="80" y="524" type="curve"/>
      <point x="62" y="514"/>
      <point x="41" y="486"/>
      <point x="27" y="474" type="curve"/>
      <point x="58" y="436"/>
      <point x="179" y="314"/>
      <point x="221" y="263" type="curve"/>
      <point x="158" y="200"/>
      <point x="81" y="120"/>
    </contour>
    <contour>
      <point x="240" y="69" type="curve"/>
      <point x="245" y="64"/>
      <point x="250" y="58"/>
      <point x="255" y="53" type="curve" smooth="yes"/>
      <point x="263" y="45" type="line" smooth="yes"/>
      <point x="268" y="41"/>
      <point x="273" y="34"/>
      <point x="296" y="15" type="curve"/>
      <point x="297" y="16" type="line" smooth="yes"/>
      <point x="377" y="98"/>
      <point x="469" y="165"/>
      <point x="548" y="266" type="curve"/>
      <point x="481" y="349"/>
      <point x="372" y="455"/>
      <point x="303" y="524" type="curve"/>
      <point x="285" y="514"/>
      <point x="264" y="486"/>
      <point x="250" y="474" type="curve"/>
      <point x="280" y="436"/>
      <point x="402" y="314"/>
      <point x="444" y="263" type="curve"/>
      <point x="381" y="200"/>
      <point x="303" y="120"/>
    </contour>
  </outline>
</glyph>
<glyph name="onequarter" format="1">
  <advance width="595"/>
  <unicode hex="00BC"/>
  <outline>
    <contour>
      <point x="493" y="282" type="line"/>
      <point x="493" y="285"/>
      <point x="483" y="272"/>
      <point x="449" y="220"/>
      <point x="412" y="173"/>
      <point x="412" y="172" type="qcurve"/>
      <point x="412" y="172"/>
      <point x="453" y="171"/>
      <point x="449" y="170"/>
      <point x="487" y="171"/>
      <point x="491" y="172" type="qcurve"/>
    </contour>
    <contour>
      <point x="167" y="310" type="curve"/>
      <point x="165" y="307"/>
      <point x="154" y="306"/>
      <point x="146" y="306" type="curve" smooth="yes"/>
      <point x="135" y="306"/>
      <point x="123" y="307"/>
      <point x="112" y="308" type="curve"/>
      <point x="112" y="356" type="line" smooth="yes"/>
      <point x="113" y="422"/>
      <point x="117" y="471"/>
      <point x="117" y="566" type="curve" smooth="yes"/>
      <point x="117" y="582" type="line" smooth="yes"/>
      <point x="117" y="585"/>
      <point x="117" y="587"/>
      <point x="117" y="590" type="curve"/>
      <point x="111" y="592"/>
      <point x="89" y="529"/>
      <point x="74" y="529" type="curve" smooth="yes"/>
      <point x="70" y="529"/>
      <point x="32" y="539"/>
      <point x="32" y="544" type="curve"/>
      <point x="53" y="589"/>
      <point x="97" y="656"/>
      <point x="99" y="658" type="curve"/>
      <point x="109" y="658"/>
      <point x="118" y="659"/>
      <point x="130" y="659" type="curve" smooth="yes"/>
      <point x="143" y="659"/>
      <point x="156" y="658"/>
      <point x="170" y="658" type="curve"/>
      <point x="172" y="629"/>
      <point x="171" y="602"/>
      <point x="171" y="575" type="curve"/>
      <point x="173" y="498"/>
      <point x="167" y="424"/>
      <point x="167" y="349" type="curve" smooth="yes"/>
      <point x="167" y="337"/>
      <point x="167" y="327"/>
    </contour>
    <contour>
      <point x="279" y="181" type="curve" smooth="yes"/>
      <point x="313" y="267"/>
      <point x="339" y="355"/>
      <point x="370" y="441" type="curve"/>
      <point x="444" y="662"/>
      <point x="453" y="696"/>
      <point x="455" y="701" type="curve"/>
      <point x="435" y="711"/>
      <point x="396" y="704"/>
      <point x="366" y="709" type="curve"/>
      <point x="349" y="646"/>
      <point x="336" y="606"/>
      <point x="306" y="517" type="curve"/>
      <point x="257" y="363"/>
      <point x="222" y="280"/>
      <point x="203" y="229" type="curve" smooth="yes"/>
      <point x="181" y="167"/>
      <point x="177" y="154"/>
      <point x="150" y="80" type="curve" smooth="yes"/>
      <point x="143" y="60"/>
      <point x="121" y="3"/>
      <point x="124" y="-1" type="curve"/>
      <point x="199" y="1"/>
      <point x="210" y="-2"/>
      <point x="213" y="7" type="curve" smooth="yes"/>
      <point x="234" y="65"/>
      <point x="257" y="123"/>
    </contour>
    <contour>
      <point x="549" y="164" type="curve" smooth="yes"/>
      <point x="562" y="165"/>
      <point x="574" y="163"/>
      <point x="580" y="163" type="curve"/>
      <point x="579" y="146"/>
      <point x="578" y="129"/>
      <point x="577" y="111" type="curve"/>
      <point x="569" y="109"/>
      <point x="558" y="110"/>
      <point x="546" y="110" type="curve"/>
      <point x="546" y="110"/>
      <point x="545" y="107"/>
      <point x="545" y="101" type="curve" smooth="yes"/>
      <point x="543" y="73"/>
      <point x="540" y="1"/>
      <point x="540" y="1" type="curve" smooth="yes"/>
      <point x="537" y="-3"/>
      <point x="520" y="-3"/>
      <point x="486" y="-3" type="curve"/>
      <point x="484" y="3"/>
      <point x="488" y="44"/>
      <point x="490" y="88" type="curve" smooth="yes"/>
      <point x="491" y="104"/>
      <point x="491" y="112"/>
      <point x="491" y="113" type="curve"/>
      <point x="488" y="114"/>
      <point x="488" y="115"/>
      <point x="456" y="114" type="curve" smooth="yes"/>
      <point x="438" y="114"/>
      <point x="419" y="114"/>
      <point x="404" y="114" type="curve"/>
      <point x="381" y="114"/>
      <point x="360" y="114"/>
      <point x="359" y="115" type="curve"/>
      <point x="358" y="123"/>
      <point x="355" y="142"/>
      <point x="357" y="166" type="curve"/>
      <point x="400" y="224"/>
      <point x="436" y="282"/>
      <point x="488" y="357" type="curve"/>
      <point x="488" y="357"/>
      <point x="541" y="359"/>
      <point x="545" y="358" type="curve"/>
      <point x="546" y="358"/>
      <point x="547" y="358"/>
      <point x="548" y="358" type="curve" smooth="yes"/>
      <point x="549" y="358" type="line"/>
      <point x="549" y="355"/>
      <point x="546" y="268"/>
      <point x="545" y="208" type="curve" smooth="yes"/>
      <point x="545" y="177" type="line" smooth="yes"/>
      <point x="545" y="170"/>
      <point x="545" y="166"/>
      <point x="546" y="164" type="curve"/>
      <point x="547" y="164"/>
      <point x="548" y="164"/>
    </contour>
  </outline>
</glyph>
<glyph name="onehalf" format="1">
  <advance width="602"/>
  <unicode hex="00BD"/>
  <outline>
    <contour>
      <point x="167" y="310" type="curve"/>
      <point x="165" y="307"/>
      <point x="154" y="306"/>
      <point x="146" y="306" type="curve" smooth="yes"/>
      <point x="135" y="306"/>
      <point x="123" y="307"/>
      <point x="112" y="308" type="curve"/>
      <point x="112" y="356" type="line" smooth="yes"/>
      <point x="113" y="422"/>
      <point x="117" y="471"/>
      <point x="117" y="566" type="curve" smooth="yes"/>
      <point x="117" y="582" type="line" smooth="yes"/>
      <point x="117" y="585"/>
      <point x="117" y="587"/>
      <point x="117" y="590" type="curve"/>
      <point x="111" y="592"/>
      <point x="89" y="529"/>
      <point x="74" y="529" type="curve" smooth="yes"/>
      <point x="70" y="529"/>
      <point x="32" y="539"/>
      <point x="32" y="544" type="curve"/>
      <point x="53" y="589"/>
      <point x="97" y="656"/>
      <point x="99" y="658" type="curve"/>
      <point x="109" y="658"/>
      <point x="118" y="659"/>
      <point x="130" y="659" type="curve" smooth="yes"/>
      <point x="143" y="659"/>
      <point x="156" y="658"/>
      <point x="170" y="658" type="curve"/>
      <point x="172" y="629"/>
      <point x="171" y="602"/>
      <point x="171" y="575" type="curve"/>
      <point x="173" y="498"/>
      <point x="167" y="424"/>
      <point x="167" y="349" type="curve" smooth="yes"/>
      <point x="167" y="337"/>
      <point x="167" y="327"/>
    </contour>
    <contour>
      <point x="279" y="181" type="curve" smooth="yes"/>
      <point x="313" y="267"/>
      <point x="339" y="355"/>
      <point x="370" y="441" type="curve"/>
      <point x="444" y="662"/>
      <point x="453" y="696"/>
      <point x="455" y="701" type="curve"/>
      <point x="435" y="711"/>
      <point x="396" y="704"/>
      <point x="366" y="709" type="curve"/>
      <point x="349" y="646"/>
      <point x="336" y="606"/>
      <point x="306" y="517" type="curve"/>
      <point x="257" y="363"/>
      <point x="222" y="280"/>
      <point x="203" y="229" type="curve" smooth="yes"/>
      <point x="181" y="167"/>
      <point x="177" y="154"/>
      <point x="150" y="80" type="curve" smooth="yes"/>
      <point x="143" y="60"/>
      <point x="121" y="3"/>
      <point x="124" y="-1" type="curve"/>
      <point x="199" y="1"/>
      <point x="210" y="-2"/>
      <point x="213" y="7" type="curve" smooth="yes"/>
      <point x="234" y="65"/>
      <point x="257" y="123"/>
    </contour>
    <contour>
      <point x="376" y="-1" type="curve"/>
      <point x="354" y="-1" type="line"/>
      <point x="353" y="-1"/>
      <point x="353" y="0"/>
      <point x="353" y="0" type="curve" smooth="yes"/>
      <point x="355" y="36"/>
      <point x="351" y="67"/>
      <point x="378" y="101" type="curve"/>
      <point x="408" y="134"/>
      <point x="453" y="157"/>
      <point x="489" y="181" type="curve"/>
      <point x="509" y="191"/>
      <point x="519" y="205"/>
      <point x="520" y="220" type="curve" smooth="yes"/>
      <point x="524" y="305"/>
      <point x="481" y="298"/>
      <point x="448" y="296" type="curve"/>
      <point x="416" y="292"/>
      <point x="406" y="254"/>
      <point x="407" y="226" type="curve" smooth="yes"/>
      <point x="407" y="217"/>
      <point x="408" y="211"/>
      <point x="407" y="208" type="curve" smooth="yes"/>
      <point x="407" y="207" type="line"/>
      <point x="389" y="204"/>
      <point x="374" y="203"/>
      <point x="357" y="205" type="curve"/>
      <point x="357" y="206" type="line"/>
      <point x="349" y="251"/>
      <point x="357" y="293"/>
      <point x="381" y="320" type="curve"/>
      <point x="407" y="354"/>
      <point x="486" y="355"/>
      <point x="522" y="340" type="curve"/>
      <point x="565" y="318"/>
      <point x="573" y="267"/>
      <point x="571" y="214" type="curve"/>
      <point x="565" y="145"/>
      <point x="486" y="139"/>
      <point x="443" y="96" type="curve"/>
      <point x="433" y="86"/>
      <point x="404" y="56"/>
      <point x="416" y="49" type="curve"/>
      <point x="434" y="49"/>
      <point x="454" y="48"/>
      <point x="479" y="48" type="curve" smooth="yes"/>
      <point x="509" y="48"/>
      <point x="536" y="50"/>
      <point x="561" y="51" type="curve"/>
      <point x="567" y="32"/>
      <point x="561" y="16"/>
      <point x="565" y="2" type="curve" smooth="yes"/>
      <point x="565" y="1"/>
      <point x="399" y="-1"/>
    </contour>
  </outline>
</glyph>
<glyph name="threequarters" format="1">
  <advance width="626"/>
  <unicode hex="00BE"/>
  <outline>
    <contour>
      <point x="525" y="282" type="line"/>
      <point x="525" y="285"/>
      <point x="515" y="272"/>
      <point x="481" y="220"/>
      <point x="444" y="173"/>
      <point x="444" y="172" type="qcurve"/>
      <point x="444" y="172"/>
      <point x="485" y="171"/>
      <point x="481" y="170"/>
      <point x="519" y="171"/>
      <point x="523" y="172" type="qcurve"/>
    </contour>
    <contour>
      <point x="279" y="181" type="curve" smooth="yes"/>
      <point x="313" y="267"/>
      <point x="339" y="355"/>
      <point x="370" y="441" type="curve"/>
      <point x="444" y="662"/>
      <point x="453" y="696"/>
      <point x="455" y="701" type="curve"/>
      <point x="435" y="711"/>
      <point x="396" y="704"/>
      <point x="366" y="709" type="curve"/>
      <point x="349" y="646"/>
      <point x="336" y="606"/>
      <point x="306" y="517" type="curve"/>
      <point x="257" y="363"/>
      <point x="222" y="280"/>
      <point x="203" y="229" type="curve" smooth="yes"/>
      <point x="181" y="167"/>
      <point x="177" y="154"/>
      <point x="150" y="80" type="curve" smooth="yes"/>
      <point x="143" y="60"/>
      <point x="121" y="3"/>
      <point x="124" y="-1" type="curve"/>
      <point x="199" y="1"/>
      <point x="210" y="-2"/>
      <point x="213" y="7" type="curve" smooth="yes"/>
      <point x="234" y="65"/>
      <point x="257" y="123"/>
    </contour>
    <contour>
      <point x="45" y="326" type="curve" smooth="yes"/>
      <point x="25" y="346"/>
      <point x="27" y="375"/>
      <point x="24" y="412" type="curve"/>
      <point x="24" y="412"/>
      <point x="24" y="412"/>
      <point x="25" y="412" type="curve"/>
      <point x="25" y="412" type="line"/>
      <point x="40" y="411"/>
      <point x="54" y="415"/>
      <point x="69" y="415" type="curve"/>
      <point x="70" y="414" type="line"/>
      <point x="73" y="407"/>
      <point x="72" y="355"/>
      <point x="128" y="356" type="curve"/>
      <point x="157" y="356"/>
      <point x="180" y="366"/>
      <point x="182" y="391" type="curve"/>
      <point x="193" y="446"/>
      <point x="177" y="463"/>
      <point x="131" y="462" type="curve" smooth="yes"/>
      <point x="116" y="462"/>
      <point x="103" y="461"/>
      <point x="95" y="460" type="curve"/>
      <point x="92" y="467"/>
      <point x="92" y="476"/>
      <point x="92" y="486" type="curve" smooth="yes"/>
      <point x="92" y="496"/>
      <point x="92" y="504"/>
      <point x="92" y="507" type="curve"/>
      <point x="92" y="507" type="line"/>
      <point x="99" y="510"/>
      <point x="113" y="510"/>
      <point x="132" y="510" type="curve" smooth="yes"/>
      <point x="147" y="510"/>
      <point x="159" y="510"/>
      <point x="166" y="510" type="curve" smooth="yes"/>
      <point x="182" y="511"/>
      <point x="188" y="527"/>
      <point x="186" y="564" type="curve" smooth="yes"/>
      <point x="184" y="590"/>
      <point x="170" y="601"/>
      <point x="148" y="602" type="curve"/>
      <point x="133" y="605"/>
      <point x="118" y="603"/>
      <point x="108" y="600" type="curve" smooth="yes"/>
      <point x="86" y="593"/>
      <point x="70" y="583"/>
      <point x="71" y="546" type="curve"/>
      <point x="55" y="545"/>
      <point x="26" y="545"/>
      <point x="24" y="545" type="curve"/>
      <point x="24" y="546" type="line" smooth="yes"/>
      <point x="24" y="559"/>
      <point x="21" y="578"/>
      <point x="26" y="592" type="curve"/>
      <point x="50" y="672"/>
      <point x="194" y="672"/>
      <point x="229" y="612" type="curve" smooth="yes"/>
      <point x="234" y="601"/>
      <point x="236" y="590"/>
      <point x="235" y="577" type="curve"/>
      <point x="237" y="521"/>
      <point x="236" y="466"/>
      <point x="234" y="413" type="curve"/>
      <point x="233" y="393"/>
      <point x="234" y="374"/>
      <point x="226" y="355" type="curve" smooth="yes"/>
      <point x="204" y="306"/>
      <point x="150" y="298"/>
      <point x="96" y="306" type="curve" smooth="yes"/>
      <point x="69" y="310"/>
      <point x="48" y="322"/>
    </contour>
    <contour>
      <point x="570" y="164" type="curve" smooth="yes"/>
      <point x="583" y="164"/>
      <point x="595" y="162"/>
      <point x="601" y="162" type="curve"/>
      <point x="600" y="145"/>
      <point x="599" y="128"/>
      <point x="598" y="110" type="curve"/>
      <point x="589" y="108"/>
      <point x="579" y="109"/>
      <point x="567" y="109" type="curve"/>
      <point x="567" y="109"/>
      <point x="566" y="106"/>
      <point x="565" y="100" type="curve" smooth="yes"/>
      <point x="565" y="72"/>
      <point x="562" y="1"/>
      <point x="561" y="1" type="curve" smooth="yes"/>
      <point x="558" y="-3"/>
      <point x="541" y="-3"/>
      <point x="507" y="-3" type="curve"/>
      <point x="506" y="3"/>
      <point x="510" y="44"/>
      <point x="512" y="88" type="curve" smooth="yes"/>
      <point x="512" y="104"/>
      <point x="513" y="112"/>
      <point x="513" y="113" type="curve"/>
      <point x="509" y="114"/>
      <point x="509" y="114"/>
      <point x="477" y="114" type="curve" smooth="yes"/>
      <point x="460" y="114"/>
      <point x="441" y="114"/>
      <point x="425" y="113" type="curve"/>
      <point x="403" y="113"/>
      <point x="383" y="113"/>
      <point x="381" y="115" type="curve"/>
      <point x="380" y="123"/>
      <point x="377" y="141"/>
      <point x="379" y="165" type="curve"/>
      <point x="422" y="223"/>
      <point x="458" y="281"/>
      <point x="509" y="355" type="curve"/>
      <point x="509" y="355"/>
      <point x="562" y="357"/>
      <point x="566" y="356" type="curve"/>
      <point x="567" y="356"/>
      <point x="568" y="356"/>
      <point x="569" y="356" type="curve" smooth="yes"/>
      <point x="570" y="356" type="line"/>
      <point x="570" y="353"/>
      <point x="567" y="266"/>
      <point x="566" y="206" type="curve" smooth="yes"/>
      <point x="566" y="176" type="line" smooth="yes"/>
      <point x="566" y="169"/>
      <point x="566" y="165"/>
      <point x="567" y="163" type="curve"/>
      <point x="568" y="163"/>
      <point x="569" y="164"/>
    </contour>
  </outline>
</glyph>
<glyph name="questiondown" format="1">
  <advance width="450"/>
  <unicode hex="00BF"/>
  <outline>
    <contour>
      <point x="250" y="344" type="curve"/>
      <point x="240" y="312"/>
      <point x="227" y="281"/>
      <point x="202" y="249" type="curve"/>
      <point x="170" y="205"/>
      <point x="135" y="163"/>
      <point x="123" y="114" type="curve" smooth="yes"/>
      <point x="111" y="52"/>
      <point x="158" y="3"/>
      <point x="239" y="10" type="curve"/>
      <point x="317" y="6"/>
      <point x="330" y="89"/>
      <point x="347" y="120" type="curve"/>
      <point x="374" y="122"/>
      <point x="403" y="119"/>
      <point x="433" y="118" type="curve"/>
      <point x="433" y="117" type="line"/>
      <point x="428" y="16"/>
      <point x="350" y="-86"/>
      <point x="236" y="-91" type="curve"/>
      <point x="113" y="-103"/>
      <point x="6" y="-13"/>
      <point x="19" y="105" type="curve" smooth="yes"/>
      <point x="29" y="189"/>
      <point x="89" y="230"/>
      <point x="126" y="280" type="curve" smooth="yes"/>
      <point x="154" y="318"/>
      <point x="169" y="351"/>
      <point x="176" y="398" type="curve" smooth="yes"/>
      <point x="179" y="415"/>
      <point x="181" y="428"/>
      <point x="179" y="436" type="curve"/>
      <point x="179" y="437" type="line"/>
      <point x="206" y="440"/>
      <point x="234" y="437"/>
      <point x="262" y="439" type="curve"/>
      <point x="263" y="439" type="line"/>
      <point x="266" y="432"/>
      <point x="265" y="422"/>
      <point x="265" y="414" type="curve"/>
      <point x="264" y="401" type="line"/>
      <point x="261" y="379"/>
      <point x="257" y="361"/>
    </contour>
    <contour>
      <point x="262" y="616" type="curve"/>
      <point x="265" y="616" type="line"/>
      <point x="270" y="586"/>
      <point x="266" y="519"/>
      <point x="266" y="500" type="curve"/>
      <point x="243" y="492"/>
      <point x="201" y="492"/>
      <point x="182" y="497" type="curve"/>
      <point x="182" y="500"/>
      <point x="188" y="584"/>
      <point x="188" y="609" type="curve"/>
      <point x="188" y="614" type="line"/>
      <point x="188" y="616" type="line"/>
      <point x="190" y="616" type="line" smooth="yes"/>
      <point x="214" y="616"/>
      <point x="238" y="616"/>
    </contour>
  </outline>
</glyph>
<glyph name="Agrave" format="1">
  <advance width="434"/>
  <unicode hex="00C0"/>
  <outline>
    <contour>
      <point x="115" y="910" type="curve"/>
      <point x="154" y="874"/>
      <point x="228" y="795"/>
      <point x="274" y="752" type="curve"/>
      <point x="260" y="748"/>
      <point x="214" y="744"/>
      <point x="175" y="749" type="curve"/>
      <point x="168" y="760"/>
      <point x="72" y="853"/>
      <point x="63" y="857" type="curve"/>
      <point x="80" y="875"/>
      <point x="98" y="893"/>
    </contour>
    <contour>
      <point x="437" y="1" type="curve"/>
      <point x="437" y="0" type="line"/>
      <point x="408" y="-5"/>
      <point x="385" y="-5"/>
      <point x="371" y="-2" type="curve" smooth="yes"/>
      <point x="363" y="-1"/>
      <point x="355" y="0"/>
      <point x="348" y="2" type="curve"/>
      <point x="347" y="2" type="line"/>
      <point x="331" y="47"/>
      <point x="325" y="93"/>
      <point x="301" y="168" type="curve"/>
      <point x="240" y="171"/>
      <point x="197" y="169"/>
      <point x="138" y="170" type="curve"/>
      <point x="131" y="143"/>
      <point x="116" y="5"/>
      <point x="96" y="1" type="curve"/>
      <point x="87" y="-1"/>
      <point x="64" y="2"/>
      <point x="15" y="1" type="curve"/>
      <point x="4" y="1" type="line"/>
      <point x="4" y="1"/>
      <point x="4" y="1"/>
      <point x="4" y="2" type="curve" smooth="yes"/>
      <point x="10" y="29"/>
      <point x="52" y="387"/>
      <point x="161" y="700" type="curve"/>
      <point x="183" y="703"/>
      <point x="189" y="697"/>
      <point x="280" y="705" type="curve"/>
      <point x="293" y="654"/>
      <point x="346" y="418"/>
      <point x="362" y="351" type="curve" smooth="yes"/>
      <point x="387" y="234"/>
      <point x="411" y="118"/>
    </contour>
    <contour>
      <point x="303" y="249" type="curve"/>
      <point x="265" y="462"/>
      <point x="243" y="568"/>
      <point x="236" y="575" type="curve" smooth="yes"/>
      <point x="198" y="587"/>
      <point x="199" y="582"/>
      <point x="137" y="249" type="curve"/>
      <point x="146" y="248"/>
      <point x="164" y="249"/>
      <point x="189" y="248" type="curve" smooth="yes"/>
      <point x="215" y="248"/>
      <point x="253" y="248"/>
    </contour>
  </outline>
</glyph>
<glyph name="Aacute" format="1">
  <advance width="434"/>
  <unicode hex="00C1"/>
  <outline>
    <contour>
      <point x="366" y="858" type="curve"/>
      <point x="349" y="876"/>
      <point x="332" y="894"/>
      <point x="315" y="911" type="curve"/>
      <point x="275" y="876"/>
      <point x="202" y="796"/>
      <point x="155" y="753" type="curve"/>
      <point x="169" y="749"/>
      <point x="215" y="745"/>
      <point x="255" y="750" type="curve"/>
      <point x="263" y="764"/>
      <point x="357" y="853"/>
    </contour>
    <contour>
      <point x="437" y="1" type="curve"/>
      <point x="437" y="0" type="line"/>
      <point x="408" y="-5"/>
      <point x="385" y="-5"/>
      <point x="371" y="-2" type="curve" smooth="yes"/>
      <point x="363" y="-1"/>
      <point x="355" y="0"/>
      <point x="348" y="2" type="curve"/>
      <point x="347" y="2" type="line"/>
      <point x="331" y="47"/>
      <point x="325" y="93"/>
      <point x="301" y="168" type="curve"/>
      <point x="240" y="171"/>
      <point x="197" y="169"/>
      <point x="138" y="170" type="curve"/>
      <point x="131" y="143"/>
      <point x="116" y="5"/>
      <point x="96" y="1" type="curve" smooth="yes"/>
      <point x="87" y="-1"/>
      <point x="64" y="2"/>
      <point x="15" y="1" type="curve" smooth="yes"/>
      <point x="4" y="1" type="line"/>
      <point x="4" y="1"/>
      <point x="4" y="1"/>
      <point x="4" y="2" type="curve" smooth="yes"/>
      <point x="12" y="29"/>
      <point x="52" y="387"/>
      <point x="161" y="700" type="curve"/>
      <point x="183" y="703"/>
      <point x="189" y="697"/>
      <point x="280" y="705" type="curve"/>
      <point x="335" y="464"/>
      <point x="390" y="220"/>
    </contour>
    <contour>
      <point x="303" y="249" type="curve"/>
      <point x="265" y="462"/>
      <point x="240" y="575"/>
      <point x="236" y="575" type="curve"/>
      <point x="195" y="578"/>
      <point x="199" y="582"/>
      <point x="137" y="249" type="curve"/>
      <point x="146" y="248"/>
      <point x="164" y="249"/>
      <point x="189" y="248" type="curve"/>
      <point x="215" y="248"/>
      <point x="253" y="248"/>
    </contour>
  </outline>
</glyph>
<glyph name="Acircumflex" format="1">
  <advance width="434"/>
  <unicode hex="00C2"/>
  <outline>
    <contour>
      <point x="382" y="755" type="curve" smooth="yes"/>
      <point x="379" y="757"/>
      <point x="347" y="748"/>
      <point x="302" y="750" type="curve"/>
      <point x="298" y="750"/>
      <point x="287" y="761"/>
      <point x="269" y="779" type="curve"/>
      <point x="246" y="801" type="line"/>
      <point x="237" y="813"/>
      <point x="225" y="825"/>
      <point x="220" y="828" type="curve"/>
      <point x="213" y="825"/>
      <point x="162" y="758"/>
      <point x="142" y="752" type="curve"/>
      <point x="124" y="750"/>
      <point x="124" y="751"/>
      <point x="59" y="754" type="curve"/>
      <point x="113" y="822"/>
      <point x="159" y="859"/>
      <point x="220" y="916" type="curve"/>
      <point x="274" y="862"/>
      <point x="328" y="809"/>
    </contour>
    <contour>
      <point x="437" y="1" type="curve"/>
      <point x="437" y="0" type="line"/>
      <point x="408" y="-5"/>
      <point x="385" y="-5"/>
      <point x="371" y="-2" type="curve" smooth="yes"/>
      <point x="363" y="-1"/>
      <point x="355" y="0"/>
      <point x="348" y="2" type="curve"/>
      <point x="347" y="2" type="line"/>
      <point x="331" y="47"/>
      <point x="325" y="93"/>
      <point x="301" y="168" type="curve"/>
      <point x="240" y="171"/>
      <point x="197" y="169"/>
      <point x="138" y="170" type="curve"/>
      <point x="131" y="143"/>
      <point x="116" y="5"/>
      <point x="96" y="1" type="curve"/>
      <point x="87" y="-1"/>
      <point x="64" y="2"/>
      <point x="15" y="1" type="curve"/>
      <point x="4" y="1" type="line"/>
      <point x="4" y="1"/>
      <point x="4" y="1"/>
      <point x="4" y="2" type="curve" smooth="yes"/>
      <point x="12" y="29"/>
      <point x="52" y="387"/>
      <point x="161" y="700" type="curve"/>
      <point x="183" y="703"/>
      <point x="189" y="697"/>
      <point x="280" y="705" type="curve"/>
      <point x="335" y="464"/>
      <point x="390" y="220"/>
    </contour>
    <contour>
      <point x="303" y="249" type="curve"/>
      <point x="265" y="462"/>
      <point x="243" y="568"/>
      <point x="236" y="575" type="curve" smooth="yes"/>
      <point x="198" y="587"/>
      <point x="199" y="582"/>
      <point x="137" y="249" type="curve"/>
      <point x="146" y="248"/>
      <point x="164" y="249"/>
      <point x="189" y="248" type="curve" smooth="yes"/>
      <point x="215" y="248"/>
      <point x="253" y="248"/>
    </contour>
  </outline>
</glyph>
<glyph name="Aring" format="1">
  <advance width="434"/>
  <unicode hex="00C5"/>
  <outline>
    <contour>
      <point x="292" y="777" type="curve"/>
      <point x="272" y="746"/>
      <point x="210" y="750"/>
      <point x="176" y="752" type="curve" smooth="yes"/>
      <point x="115" y="755"/>
      <point x="117" y="847"/>
      <point x="130" y="895" type="curve" smooth="yes"/>
      <point x="139" y="929"/>
      <point x="181" y="938"/>
      <point x="219" y="935" type="curve" smooth="yes"/>
      <point x="247" y="933"/>
      <point x="283" y="927"/>
      <point x="298" y="906" type="curve"/>
      <point x="310" y="865"/>
      <point x="308" y="817"/>
    </contour>
    <contour>
      <point x="186" y="885" type="curve"/>
      <point x="172" y="876"/>
      <point x="169" y="861"/>
      <point x="169" y="848" type="curve" smooth="yes"/>
      <point x="169" y="825"/>
      <point x="169" y="795"/>
      <point x="204" y="795" type="curve" smooth="yes"/>
      <point x="214" y="795" type="line" smooth="yes"/>
      <point x="229" y="796"/>
      <point x="250" y="795"/>
      <point x="257" y="810" type="curve"/>
      <point x="260" y="823"/>
      <point x="263" y="840"/>
      <point x="262" y="855" type="curve" smooth="yes"/>
      <point x="259" y="886"/>
      <point x="236" y="891"/>
      <point x="216" y="891" type="curve" smooth="yes"/>
      <point x="205" y="891"/>
      <point x="195" y="889"/>
    </contour>
    <contour>
      <point x="437" y="1" type="curve"/>
      <point x="437" y="0" type="line"/>
      <point x="408" y="-5"/>
      <point x="385" y="-5"/>
      <point x="371" y="-2" type="curve" smooth="yes"/>
      <point x="363" y="-1"/>
      <point x="355" y="0"/>
      <point x="348" y="2" type="curve"/>
      <point x="347" y="2" type="line"/>
      <point x="331" y="47"/>
      <point x="325" y="93"/>
      <point x="301" y="168" type="curve"/>
      <point x="240" y="171"/>
      <point x="197" y="169"/>
      <point x="138" y="170" type="curve"/>
      <point x="131" y="143"/>
      <point x="116" y="5"/>
      <point x="96" y="1" type="curve"/>
      <point x="87" y="-1"/>
      <point x="64" y="2"/>
      <point x="15" y="1" type="curve"/>
      <point x="4" y="1" type="line"/>
      <point x="4" y="1"/>
      <point x="4" y="1"/>
      <point x="4" y="2" type="curve" smooth="yes"/>
      <point x="12" y="29"/>
      <point x="52" y="387"/>
      <point x="161" y="700" type="curve"/>
      <point x="183" y="703"/>
      <point x="189" y="697"/>
      <point x="280" y="705" type="curve"/>
      <point x="335" y="464"/>
      <point x="390" y="220"/>
    </contour>
    <contour>
      <point x="303" y="249" type="curve"/>
      <point x="265" y="462"/>
      <point x="243" y="568"/>
      <point x="236" y="575" type="curve" smooth="yes"/>
      <point x="198" y="587"/>
      <point x="199" y="582"/>
      <point x="137" y="249" type="curve"/>
      <point x="146" y="248"/>
      <point x="164" y="249"/>
      <point x="189" y="248" type="curve" smooth="yes"/>
      <point x="215" y="248"/>
      <point x="253" y="248"/>
    </contour>
  </outline>
</glyph>
